<?xml version="1.0" encoding="UTF-8"?><svg xmlns="http://www.w3.org/2000/svg" xmlns:xlink="http://www.w3.org/1999/xlink" height="312.0" preserveAspectRatio="xMidYMid meet" version="1.0" viewBox="90.2 56.6 244.8 312.0" width="244.8" zoomAndPan="magnify"><g><g id="change1_1"><path d="M 326.265625 329.296875 L 326.265625 305.875 L 103.027344 305.875 L 103.027344 329.296875 C 103.027344 350.996094 153.003906 368.582031 214.648438 368.582031 C 276.289062 368.582031 326.265625 350.996094 326.265625 329.296875" fill="#f89e19"/></g><g id="change2_1"><path d="M 214.648438 343.429688 C 153.003906 343.429688 103.027344 325.84375 103.027344 304.148438 C 103.027344 282.449219 153.003906 264.863281 214.648438 264.863281 C 276.289062 264.863281 326.265625 282.449219 326.265625 304.148438 C 326.265625 325.84375 276.289062 343.429688 214.648438 343.429688" fill="#f5c116"/></g><g id="change1_2"><path d="M 221.367188 319.484375 C 225.839844 319.1875 229.484375 318.457031 232.289062 317.289062 C 235.101562 316.125 236.503906 314.75 236.503906 313.179688 C 236.503906 311.769531 235.328125 310.550781 232.964844 309.535156 C 230.601562 308.519531 226.746094 307.726562 221.367188 307.183594 L 221.367188 319.484375 M 208.378906 285.945312 C 204.859375 286.359375 202.046875 287.074219 199.960938 288.078125 C 197.863281 289.101562 196.820312 290.207031 196.820312 291.425781 C 196.820312 292.546875 197.78125 293.574219 199.6875 294.535156 C 201.601562 295.484375 204.488281 296.261719 208.378906 296.847656 L 208.378906 285.945312 M 208.378906 319.035156 L 208.378906 305.828125 C 196.675781 304.652344 188.097656 302.875 182.628906 300.488281 C 177.164062 298.105469 174.433594 295.210938 174.433594 291.808594 C 174.433594 288.359375 177.519531 285.460938 183.703125 283.121094 C 189.875 280.773438 198.105469 279.429688 208.378906 279.074219 L 208.378906 275.949219 L 221.367188 275.949219 L 221.367188 279.074219 C 230.855469 279.46875 238.398438 280.613281 244.019531 282.492188 C 249.644531 284.375 253.222656 286.882812 254.765625 290.042969 L 232.109375 291.082031 C 230.738281 288.601562 227.148438 286.921875 221.367188 286.039062 L 221.367188 298.363281 C 235.699219 299.71875 245.46875 301.5 250.652344 303.671875 C 255.851562 305.847656 258.441406 308.640625 258.441406 312.042969 C 258.441406 315.851562 255.179688 319.050781 248.652344 321.65625 C 242.097656 324.265625 233.007812 325.855469 221.367188 326.453125 L 221.367188 332.34375 L 208.378906 332.34375 L 208.378906 326.605469 C 198.042969 326.164062 189.652344 324.808594 183.207031 322.539062 C 176.761719 320.265625 172.644531 317.066406 170.847656 312.929688 L 194.222656 312.042969 C 195.1875 313.71875 196.972656 315.171875 199.605469 316.398438 C 202.222656 317.605469 205.152344 318.496094 208.378906 319.035156" fill="#f89e19"/></g><g id="change3_1"><path d="M 313.65625 345.03125 L 313.628906 344.980469 L 313.628906 323.78125 C 314.957031 322.882812 316.199219 321.976562 317.328125 321.050781 L 317.328125 342.039062 C 316.214844 343.058594 315.003906 344.058594 313.65625 345.03125" fill="#e98b1b"/></g><g id="change3_2"><path d="M 308.097656 348.554688 C 307.644531 348.4375 307.332031 348.253906 307.332031 348.042969 L 307.332031 327.523438 C 308.632812 326.84375 309.855469 326.136719 311.03125 325.433594 L 311.03125 346.804688 C 310.097656 347.402344 309.117188 347.984375 308.097656 348.554688" fill="#e98b1b"/></g><g id="change3_3"><path d="M 319.925781 339.414062 L 319.925781 318.683594 C 321.414062 317.203125 322.648438 315.671875 323.625 314.109375 L 323.625 333.46875 C 322.824219 335.5 321.59375 337.492188 319.925781 339.414062" fill="#e98b1b"/></g><g id="change3_4"><path d="M 301.980469 351.660156 C 301.429688 351.550781 301.027344 351.347656 301.027344 351.105469 L 301.027344 330.507812 C 302.3125 329.953125 303.539062 329.386719 304.734375 328.816406 L 304.734375 350.34375 C 303.84375 350.789062 302.925781 351.234375 301.980469 351.660156" fill="#e98b1b"/></g><g id="change3_5"><path d="M 295.082031 354.535156 C 294.882812 354.425781 294.734375 354.304688 294.734375 354.167969 L 294.734375 332.976562 C 296.003906 332.523438 297.234375 332.046875 298.4375 331.574219 L 298.4375 353.203125 C 297.347656 353.652344 296.230469 354.097656 295.082031 354.535156" fill="#e98b1b"/></g><g id="change3_6"><path d="M 288.441406 356.835938 L 288.441406 335.085938 C 289.699219 334.703125 290.933594 334.292969 292.144531 333.886719 L 292.144531 355.605469 C 290.933594 356.03125 289.707031 356.441406 288.441406 356.835938" fill="#e98b1b"/></g><g id="change3_7"><path d="M 282.140625 358.683594 L 282.140625 336.914062 C 283.394531 336.574219 284.636719 336.234375 285.84375 335.886719 L 285.84375 357.632812 C 284.632812 357.996094 283.398438 358.347656 282.140625 358.683594" fill="#e98b1b"/></g><g id="change3_8"><path d="M 275.84375 360.304688 L 275.84375 338.476562 C 277.101562 338.1875 278.328125 337.882812 279.550781 337.574219 L 279.550781 359.378906 C 278.328125 359.695312 277.101562 360.003906 275.84375 360.304688" fill="#e98b1b"/></g><g id="change3_9"><path d="M 269.550781 361.671875 L 269.550781 339.828125 C 270.796875 339.578125 272.03125 339.324219 273.246094 339.058594 L 273.246094 360.882812 C 272.03125 361.15625 270.796875 361.417969 269.550781 361.671875" fill="#e98b1b"/></g><g id="change3_10"><path d="M 263.257812 362.859375 L 263.257812 340.996094 C 264.503906 340.78125 265.730469 340.566406 266.953125 340.328125 L 266.953125 362.191406 C 265.734375 362.421875 264.492188 362.644531 263.257812 362.859375" fill="#e98b1b"/></g><g id="change3_11"><path d="M 256.957031 363.871094 L 256.957031 341.980469 C 258.199219 341.804688 259.433594 341.617188 260.652344 341.414062 L 260.652344 363.289062 C 259.433594 363.488281 258.199219 363.6875 256.957031 363.871094" fill="#e98b1b"/></g><g id="change3_12"><path d="M 172.34375 363.871094 C 171.09375 363.6875 169.859375 363.488281 168.644531 363.289062 L 168.644531 341.414062 C 169.859375 341.617188 171.09375 341.804688 172.34375 341.980469 L 172.34375 363.871094" fill="#e98b1b"/></g><g id="change3_13"><path d="M 166.039062 362.859375 C 164.796875 362.644531 163.558594 362.421875 162.34375 362.191406 L 162.34375 340.328125 C 163.566406 340.566406 164.792969 340.78125 166.039062 340.996094 L 166.039062 362.859375" fill="#e98b1b"/></g><g id="change3_14"><path d="M 159.742188 361.671875 C 158.496094 361.417969 157.261719 361.15625 156.042969 360.882812 L 156.042969 339.058594 C 157.261719 339.324219 158.496094 339.578125 159.742188 339.828125 L 159.742188 361.671875" fill="#e98b1b"/></g><g id="change3_15"><path d="M 153.449219 360.304688 C 152.195312 360.003906 150.960938 359.695312 149.746094 359.378906 L 149.746094 337.574219 C 150.960938 337.882812 152.195312 338.1875 153.449219 338.476562 L 153.449219 360.304688" fill="#e98b1b"/></g><g id="change3_16"><path d="M 147.152344 358.683594 C 145.894531 358.347656 144.660156 357.996094 143.449219 357.632812 L 143.449219 335.886719 C 144.65625 336.234375 145.898438 336.574219 147.152344 336.914062 L 147.152344 358.683594" fill="#e98b1b"/></g><g id="change3_17"><path d="M 203.820312 366.648438 C 202.578125 366.605469 201.355469 366.550781 200.125 366.496094 L 200.125 344.566406 C 201.355469 344.625 202.578125 344.679688 203.820312 344.722656 L 203.820312 366.648438" fill="#e98b1b"/></g><g id="change3_18"><path d="M 197.527344 366.367188 C 196.285156 366.304688 195.054688 366.21875 193.824219 366.136719 L 193.824219 344.21875 C 195.054688 344.296875 196.285156 344.386719 197.527344 344.453125 L 197.527344 366.367188" fill="#e98b1b"/></g><g id="change3_19"><path d="M 210.121094 366.808594 C 208.882812 366.78125 207.644531 366.75 206.421875 366.722656 L 206.421875 344.792969 C 207.644531 344.824219 208.882812 344.847656 210.121094 344.871094 L 210.121094 366.808594" fill="#e98b1b"/></g><g id="change3_20"><path d="M 214.648438 366.84375 C 214 366.84375 213.355469 366.828125 212.71875 366.820312 L 212.71875 344.890625 C 213.355469 344.898438 214 344.90625 214.648438 344.90625 C 215.238281 344.90625 215.828125 344.902344 216.414062 344.898438 L 216.414062 366.820312 C 215.828125 366.828125 215.238281 366.84375 214.648438 366.84375" fill="#e98b1b"/></g><g id="change3_21"><path d="M 219.019531 366.808594 L 219.019531 344.871094 C 220.25 344.855469 221.484375 344.832031 222.71875 344.800781 L 222.71875 366.726562 C 221.484375 366.757812 220.25 366.78125 219.019531 366.808594" fill="#e98b1b"/></g><g id="change3_22"><path d="M 225.3125 366.652344 L 225.3125 344.734375 C 226.554688 344.683594 227.78125 344.628906 229.011719 344.574219 L 229.011719 366.503906 C 227.78125 366.554688 226.554688 366.617188 225.3125 366.652344" fill="#e98b1b"/></g><g id="change3_23"><path d="M 231.609375 366.378906 L 231.609375 344.460938 C 232.851562 344.394531 234.074219 344.308594 235.3125 344.226562 L 235.3125 366.148438 C 234.074219 366.230469 232.851562 366.3125 231.609375 366.378906" fill="#e98b1b"/></g><g id="change3_24"><path d="M 237.902344 365.960938 L 237.902344 344.046875 C 239.144531 343.957031 240.378906 343.859375 241.605469 343.75 L 241.605469 365.664062 C 240.386719 365.769531 239.144531 365.871094 237.902344 365.960938" fill="#e98b1b"/></g><g id="change3_25"><path d="M 244.199219 365.414062 L 244.199219 343.507812 C 245.441406 343.390625 246.683594 343.273438 247.902344 343.136719 L 247.902344 365.03125 C 246.683594 365.171875 245.441406 365.292969 244.199219 365.414062" fill="#e98b1b"/></g><g id="change3_26"><path d="M 250.496094 364.722656 L 250.496094 342.832031 C 251.738281 342.679688 252.976562 342.527344 254.199219 342.359375 L 254.199219 364.257812 C 252.976562 364.417969 251.738281 364.570312 250.496094 364.722656" fill="#e98b1b"/></g><g id="change3_27"><path d="M 191.230469 365.953125 C 189.992188 365.855469 188.757812 365.761719 187.523438 365.652344 L 187.523438 343.742188 C 188.757812 343.84375 189.992188 343.945312 191.230469 344.035156 L 191.230469 365.953125" fill="#e98b1b"/></g><g id="change3_28"><path d="M 184.9375 365.398438 C 183.691406 365.277344 182.453125 365.148438 181.230469 365.019531 L 181.230469 343.113281 C 182.453125 343.25 183.691406 343.371094 184.9375 343.492188 L 184.9375 365.398438" fill="#e98b1b"/></g><g id="change3_29"><path d="M 178.636719 364.703125 C 177.394531 364.554688 176.160156 364.394531 174.933594 364.226562 L 174.933594 342.339844 C 176.15625 342.503906 177.394531 342.660156 178.636719 342.808594 L 178.636719 364.703125" fill="#e98b1b"/></g><g id="change3_30"><path d="M 140.851562 356.835938 C 139.589844 356.441406 138.355469 356.03125 137.148438 355.605469 L 137.148438 333.886719 C 138.355469 334.292969 139.597656 334.703125 140.851562 335.085938 L 140.851562 356.835938" fill="#e98b1b"/></g><g id="change3_31"><path d="M 134.207031 354.535156 C 133.066406 354.097656 131.941406 353.652344 130.855469 353.203125 L 130.855469 331.574219 C 132.058594 332.046875 133.289062 332.523438 134.558594 332.976562 L 134.558594 354.167969 C 134.558594 354.304688 134.410156 354.425781 134.207031 354.535156" fill="#e98b1b"/></g><g id="change3_32"><path d="M 127.3125 351.660156 C 126.363281 351.234375 125.453125 350.789062 124.558594 350.34375 L 124.558594 328.816406 C 125.757812 329.386719 126.980469 329.953125 128.261719 330.507812 L 128.261719 351.105469 C 128.261719 351.347656 127.859375 351.550781 127.3125 351.660156" fill="#e98b1b"/></g><g id="change3_33"><path d="M 121.191406 348.554688 C 120.183594 347.984375 119.195312 347.402344 118.265625 346.804688 L 118.265625 325.433594 C 119.4375 326.136719 120.660156 326.84375 121.964844 327.523438 L 121.964844 348.042969 C 121.964844 348.253906 121.648438 348.4375 121.191406 348.554688" fill="#e98b1b"/></g><g id="change3_34"><path d="M 115.640625 345.03125 C 114.289062 344.058594 113.082031 343.058594 111.964844 342.039062 L 111.964844 321.050781 C 113.097656 321.976562 114.34375 322.882812 115.664062 323.78125 L 115.664062 344.980469 L 115.640625 345.03125" fill="#e98b1b"/></g><g id="change3_35"><path d="M 109.367188 339.414062 C 107.699219 337.492188 106.46875 335.507812 105.664062 333.46875 L 105.664062 314.109375 C 106.644531 315.671875 107.882812 317.203125 109.367188 318.683594 L 109.367188 339.414062" fill="#e98b1b"/></g><g id="change1_3"><path d="M 330.636719 296.597656 L 330.636719 273.171875 L 107.398438 273.171875 L 107.398438 296.597656 C 107.398438 318.292969 157.371094 335.886719 219.019531 335.886719 C 280.660156 335.886719 330.636719 318.292969 330.636719 296.597656" fill="#f89e19"/></g><g id="change2_2"><path d="M 219.019531 310.726562 C 157.371094 310.726562 107.398438 293.144531 107.398438 271.445312 C 107.398438 249.753906 157.371094 232.164062 219.019531 232.164062 C 280.660156 232.164062 330.636719 249.753906 330.636719 271.445312 C 330.636719 293.144531 280.660156 310.726562 219.019531 310.726562" fill="#f5c116"/></g><g id="change1_4"><path d="M 225.738281 286.78125 C 230.207031 286.488281 233.847656 285.753906 236.660156 284.589844 C 239.464844 283.425781 240.871094 282.054688 240.871094 280.480469 C 240.871094 279.074219 239.691406 277.855469 237.328125 276.835938 C 234.96875 275.816406 231.117188 275.027344 225.738281 274.484375 L 225.738281 286.78125 M 212.75 253.242188 C 209.226562 253.660156 206.414062 254.375 204.328125 255.382812 C 202.238281 256.394531 201.195312 257.507812 201.195312 258.730469 C 201.195312 259.84375 202.148438 260.882812 204.058594 261.832031 C 205.972656 262.78125 208.859375 263.558594 212.75 264.148438 L 212.75 253.242188 M 212.75 286.34375 L 212.75 273.136719 C 201.046875 271.953125 192.464844 270.175781 186.992188 267.785156 C 181.535156 265.40625 178.800781 262.511719 178.800781 259.105469 C 178.800781 255.65625 181.894531 252.757812 188.070312 250.417969 C 194.242188 248.078125 202.476562 246.726562 212.75 246.371094 L 212.75 243.25 L 225.738281 243.25 L 225.738281 246.371094 C 235.226562 246.765625 242.769531 247.910156 248.394531 249.789062 C 254.011719 251.667969 257.59375 254.1875 259.136719 257.339844 L 236.480469 258.386719 C 235.109375 255.898438 231.519531 254.21875 225.738281 253.339844 L 225.738281 265.664062 C 240.066406 267.027344 249.835938 268.800781 255.023438 270.972656 C 260.21875 273.148438 262.8125 275.9375 262.8125 279.339844 C 262.8125 283.144531 259.539062 286.351562 253.015625 288.953125 C 246.464844 291.5625 237.378906 293.160156 225.738281 293.75 L 225.738281 299.644531 L 212.75 299.644531 L 212.75 293.902344 C 202.414062 293.46875 194.023438 292.117188 187.570312 289.839844 C 181.128906 287.5625 177.015625 284.363281 175.21875 280.230469 L 198.59375 279.339844 C 199.554688 281.023438 201.335938 282.472656 203.96875 283.699219 C 206.59375 284.910156 209.519531 285.792969 212.75 286.34375" fill="#f89e19"/></g><g id="change3_36"><path d="M 318.023438 312.335938 L 317.996094 312.28125 L 317.996094 291.082031 C 319.320312 290.1875 320.566406 289.277344 321.703125 288.347656 L 321.703125 309.34375 C 320.582031 310.355469 319.371094 311.355469 318.023438 312.335938" fill="#e98b1b"/></g><g id="change3_37"><path d="M 312.46875 315.859375 C 312.015625 315.734375 311.695312 315.558594 311.695312 315.34375 L 311.695312 294.824219 C 313.003906 294.140625 314.222656 293.445312 315.402344 292.730469 L 315.402344 314.105469 C 314.46875 314.699219 313.484375 315.285156 312.46875 315.859375" fill="#e98b1b"/></g><g id="change3_38"><path d="M 324.296875 306.714844 L 324.296875 285.992188 C 325.78125 284.503906 327.015625 282.972656 327.992188 281.414062 L 327.992188 300.769531 C 327.195312 302.796875 325.957031 304.792969 324.296875 306.714844" fill="#e98b1b"/></g><g id="change3_39"><path d="M 306.351562 318.964844 C 305.796875 318.847656 305.398438 318.648438 305.398438 318.40625 L 305.398438 297.800781 C 306.6875 297.25 307.910156 296.691406 309.105469 296.113281 L 309.105469 317.640625 C 308.210938 318.089844 307.296875 318.53125 306.351562 318.964844" fill="#e98b1b"/></g><g id="change3_40"><path d="M 299.453125 321.832031 C 299.253906 321.726562 299.109375 321.605469 299.109375 321.464844 L 299.109375 300.277344 C 300.371094 299.820312 301.605469 299.34375 302.808594 298.867188 L 302.808594 320.507812 C 301.714844 320.957031 300.601562 321.394531 299.453125 321.832031" fill="#e98b1b"/></g><g id="change3_41"><path d="M 292.808594 324.140625 L 292.808594 302.386719 C 294.066406 302 295.308594 301.601562 296.511719 301.1875 L 296.511719 322.90625 C 295.308594 323.328125 294.074219 323.742188 292.808594 324.140625" fill="#e98b1b"/></g><g id="change3_42"><path d="M 286.511719 325.992188 L 286.511719 304.210938 C 287.761719 303.878906 289.003906 303.535156 290.210938 303.183594 L 290.210938 324.933594 C 289 325.292969 287.769531 325.644531 286.511719 325.992188" fill="#e98b1b"/></g><g id="change3_43"><path d="M 280.210938 327.601562 L 280.210938 305.777344 C 281.472656 305.484375 282.695312 305.183594 283.921875 304.878906 L 283.921875 326.683594 C 282.695312 326.992188 281.472656 327.304688 280.210938 327.601562" fill="#e98b1b"/></g><g id="change3_44"><path d="M 273.917969 328.96875 L 273.917969 307.132812 C 275.160156 306.878906 276.402344 306.628906 277.617188 306.359375 L 277.617188 328.1875 C 276.402344 328.457031 275.160156 328.714844 273.917969 328.96875" fill="#e98b1b"/></g><g id="change3_45"><path d="M 267.628906 330.160156 L 267.628906 308.300781 C 268.867188 308.089844 270.097656 307.863281 271.324219 307.636719 L 271.324219 329.492188 C 270.105469 329.726562 268.867188 329.941406 267.628906 330.160156" fill="#e98b1b"/></g><g id="change3_46"><path d="M 261.324219 331.171875 L 261.324219 309.28125 C 262.566406 309.109375 263.804688 308.914062 265.023438 308.714844 L 265.023438 330.597656 C 263.804688 330.789062 262.566406 330.988281 261.324219 331.171875" fill="#e98b1b"/></g><g id="change3_47"><path d="M 176.707031 331.171875 C 175.464844 330.988281 174.230469 330.789062 173.011719 330.597656 L 173.011719 308.714844 C 174.230469 308.914062 175.464844 309.109375 176.707031 309.28125 L 176.707031 331.171875" fill="#e98b1b"/></g><g id="change3_48"><path d="M 170.410156 330.160156 C 169.164062 329.941406 167.925781 329.726562 166.710938 329.492188 L 166.710938 307.636719 C 167.9375 307.863281 169.164062 308.089844 170.410156 308.300781 L 170.410156 330.160156" fill="#e98b1b"/></g><g id="change3_49"><path d="M 164.113281 328.96875 C 162.867188 328.714844 161.628906 328.457031 160.414062 328.1875 L 160.414062 306.359375 C 161.628906 306.628906 162.867188 306.878906 164.113281 307.132812 L 164.113281 328.96875" fill="#e98b1b"/></g><g id="change3_50"><path d="M 157.820312 327.601562 C 156.5625 327.304688 155.332031 326.992188 154.113281 326.683594 L 154.113281 304.878906 C 155.332031 305.183594 156.5625 305.484375 157.820312 305.777344 L 157.820312 327.601562" fill="#e98b1b"/></g><g id="change3_51"><path d="M 151.519531 325.992188 C 150.265625 325.644531 149.027344 325.292969 147.820312 324.933594 L 147.820312 303.183594 C 149.023438 303.535156 150.269531 303.878906 151.519531 304.210938 L 151.519531 325.992188" fill="#e98b1b"/></g><g id="change3_52"><path d="M 208.191406 333.953125 C 206.949219 333.902344 205.722656 333.851562 204.488281 333.792969 L 204.488281 311.871094 C 205.722656 311.929688 206.949219 311.980469 208.191406 312.027344 L 208.191406 333.953125" fill="#e98b1b"/></g><g id="change3_53"><path d="M 201.898438 333.671875 C 200.65625 333.605469 199.425781 333.523438 198.195312 333.433594 L 198.195312 311.515625 C 199.425781 311.601562 200.65625 311.683594 201.898438 311.753906 L 201.898438 333.671875" fill="#e98b1b"/></g><g id="change3_54"><path d="M 214.488281 334.105469 C 213.246094 334.082031 212.015625 334.054688 210.792969 334.019531 L 210.792969 312.097656 C 212.015625 312.128906 213.246094 312.15625 214.488281 312.171875 L 214.488281 334.105469" fill="#e98b1b"/></g><g id="change3_55"><path d="M 219.019531 334.140625 C 218.367188 334.140625 217.730469 334.125 217.085938 334.121094 L 217.085938 312.191406 C 217.730469 312.199219 218.367188 312.214844 219.019531 312.214844 C 219.609375 312.214844 220.195312 312.203125 220.789062 312.199219 L 220.789062 334.121094 C 220.195312 334.125 219.609375 334.140625 219.019531 334.140625" fill="#e98b1b"/></g><g id="change3_56"><path d="M 223.386719 334.105469 L 223.386719 312.171875 C 224.617188 312.15625 225.855469 312.132812 227.085938 312.097656 L 227.085938 334.027344 C 225.855469 334.058594 224.617188 334.082031 223.386719 334.105469" fill="#e98b1b"/></g><g id="change3_57"><path d="M 229.679688 333.957031 L 229.679688 312.03125 C 230.921875 311.988281 232.152344 311.929688 233.378906 311.875 L 233.378906 333.796875 C 232.152344 333.859375 230.921875 333.917969 229.679688 333.957031" fill="#e98b1b"/></g><g id="change3_58"><path d="M 235.980469 333.679688 L 235.980469 311.761719 C 237.226562 311.695312 238.445312 311.609375 239.679688 311.527344 L 239.679688 333.449219 C 238.445312 333.527344 237.226562 333.613281 235.980469 333.679688" fill="#e98b1b"/></g><g id="change3_59"><path d="M 242.273438 333.261719 L 242.273438 311.355469 C 243.519531 311.253906 244.746094 311.15625 245.972656 311.050781 L 245.972656 332.96875 C 244.753906 333.074219 243.519531 333.175781 242.273438 333.261719" fill="#e98b1b"/></g><g id="change3_60"><path d="M 248.566406 332.710938 L 248.566406 310.808594 C 249.8125 310.6875 251.054688 310.574219 252.273438 310.433594 L 252.273438 332.332031 C 251.054688 332.472656 249.8125 332.589844 248.566406 332.710938" fill="#e98b1b"/></g><g id="change3_61"><path d="M 254.863281 332.023438 L 254.863281 310.128906 C 256.113281 309.980469 257.347656 309.828125 258.566406 309.664062 L 258.566406 331.554688 C 257.347656 331.71875 256.113281 331.875 254.863281 332.023438" fill="#e98b1b"/></g><g id="change3_62"><path d="M 195.59375 333.253906 C 194.359375 333.160156 193.121094 333.058594 191.894531 332.953125 L 191.894531 311.042969 C 193.121094 311.144531 194.359375 311.25 195.59375 311.339844 L 195.59375 333.253906" fill="#e98b1b"/></g><g id="change3_63"><path d="M 189.304688 332.695312 C 188.058594 332.578125 186.828125 332.457031 185.601562 332.320312 L 185.601562 310.417969 C 186.828125 310.550781 188.058594 310.671875 189.304688 310.796875 L 189.304688 332.695312" fill="#e98b1b"/></g><g id="change3_64"><path d="M 183.003906 332.003906 C 181.761719 331.851562 180.527344 331.695312 179.304688 331.523438 L 179.304688 309.644531 C 180.527344 309.8125 181.761719 309.960938 183.003906 310.109375 L 183.003906 332.003906" fill="#e98b1b"/></g><g id="change3_65"><path d="M 145.222656 324.140625 C 143.960938 323.742188 142.726562 323.328125 141.519531 322.90625 L 141.519531 301.1875 C 142.726562 301.601562 143.964844 302 145.222656 302.386719 L 145.222656 324.140625" fill="#e98b1b"/></g><g id="change3_66"><path d="M 138.582031 321.832031 C 137.433594 321.394531 136.3125 320.957031 135.226562 320.507812 L 135.226562 298.867188 C 136.425781 299.34375 137.660156 299.820312 138.925781 300.277344 L 138.925781 321.464844 C 138.925781 321.605469 138.777344 321.726562 138.582031 321.832031" fill="#e98b1b"/></g><g id="change3_67"><path d="M 131.679688 318.964844 C 130.730469 318.53125 129.820312 318.089844 128.925781 317.640625 L 128.925781 296.113281 C 130.121094 296.691406 131.351562 297.25 132.632812 297.800781 L 132.632812 318.40625 C 132.632812 318.648438 132.234375 318.847656 131.679688 318.964844" fill="#e98b1b"/></g><g id="change3_68"><path d="M 125.5625 315.859375 C 124.546875 315.285156 123.5625 314.699219 122.632812 314.105469 L 122.632812 292.730469 C 123.808594 293.445312 125.03125 294.140625 126.328125 294.824219 L 126.328125 315.34375 C 126.328125 315.558594 126.015625 315.734375 125.5625 315.859375" fill="#e98b1b"/></g><g id="change3_69"><path d="M 120.007812 312.335938 C 118.660156 311.355469 117.445312 310.355469 116.332031 309.34375 L 116.332031 288.347656 C 117.464844 289.277344 118.710938 290.1875 120.039062 291.082031 L 120.039062 312.28125 L 120.007812 312.335938" fill="#e98b1b"/></g><g id="change3_70"><path d="M 113.738281 306.714844 C 112.070312 304.792969 110.835938 302.808594 110.039062 300.769531 L 110.039062 282.621094 C 110.539062 282.945312 111.054688 283.269531 111.582031 283.589844 C 112.230469 284.398438 112.949219 285.203125 113.738281 285.992188 L 113.738281 306.714844" fill="#e98b1b"/></g><g id="change1_5"><path d="M 319.808594 263.898438 L 319.808594 240.472656 L 96.574219 240.472656 L 96.574219 263.898438 C 96.574219 285.601562 146.550781 303.183594 208.191406 303.183594 C 269.832031 303.183594 319.808594 285.601562 319.808594 263.898438" fill="#f89e19"/></g><g id="change2_3"><path d="M 208.191406 278.03125 C 146.550781 278.03125 96.574219 260.441406 96.574219 238.746094 C 96.574219 217.050781 146.550781 199.460938 208.191406 199.460938 C 269.832031 199.460938 319.808594 217.050781 319.808594 238.746094 C 319.808594 260.441406 269.832031 278.03125 208.191406 278.03125" fill="#f5c116"/></g><g id="change1_6"><path d="M 214.910156 254.085938 C 219.382812 253.785156 223.027344 253.0625 225.839844 251.890625 C 228.640625 250.726562 230.039062 249.351562 230.039062 247.777344 C 230.039062 246.371094 228.867188 245.15625 226.507812 244.140625 C 224.144531 243.121094 220.292969 242.328125 214.910156 241.785156 L 214.910156 254.085938 M 201.921875 220.542969 C 198.398438 220.964844 195.589844 221.675781 193.503906 222.683594 C 191.414062 223.695312 190.367188 224.808594 190.367188 226.027344 C 190.367188 227.148438 191.324219 228.179688 193.234375 229.128906 C 195.144531 230.089844 198.035156 230.863281 201.921875 231.449219 L 201.921875 220.542969 M 201.921875 253.640625 L 201.921875 240.433594 C 190.21875 239.253906 181.640625 237.480469 176.171875 235.089844 C 170.710938 232.703125 167.976562 229.8125 167.976562 226.40625 C 167.976562 222.960938 171.066406 220.0625 177.25 217.714844 C 183.421875 215.378906 191.652344 214.027344 201.921875 213.671875 L 201.921875 210.550781 L 214.910156 210.550781 L 214.910156 213.671875 C 224.402344 214.070312 231.945312 215.207031 237.566406 217.089844 C 243.1875 218.96875 246.765625 221.484375 248.3125 224.640625 L 225.65625 225.683594 C 224.28125 223.195312 220.695312 221.515625 214.910156 220.640625 L 214.910156 232.964844 C 229.242188 234.324219 239.011719 236.097656 244.199219 238.269531 C 249.394531 240.449219 251.988281 243.234375 251.988281 246.640625 C 251.988281 250.449219 248.722656 253.648438 242.195312 256.253906 C 235.644531 258.859375 226.554688 260.457031 214.910156 261.050781 L 214.910156 266.941406 L 201.921875 266.941406 L 201.921875 261.210938 C 191.59375 260.765625 183.199219 259.414062 176.75 257.140625 C 170.300781 254.871094 166.1875 251.664062 164.394531 247.523438 L 187.769531 246.640625 C 188.730469 248.324219 190.515625 249.765625 193.144531 250.992188 C 195.769531 252.207031 198.699219 253.089844 201.921875 253.640625" fill="#f89e19"/></g><g id="change3_71"><path d="M 307.199219 279.632812 L 307.171875 279.585938 L 307.171875 258.386719 C 308.496094 257.484375 309.742188 256.574219 310.875 255.644531 L 310.875 276.644531 C 309.761719 277.65625 308.546875 278.660156 307.199219 279.632812" fill="#e98b1b"/></g><g id="change3_72"><path d="M 301.644531 283.160156 C 301.191406 283.035156 300.871094 282.855469 300.871094 282.648438 L 300.871094 262.121094 C 302.179688 261.441406 303.398438 260.742188 304.578125 260.03125 L 304.578125 281.402344 C 303.644531 282 302.65625 282.585938 301.644531 283.160156" fill="#e98b1b"/></g><g id="change3_73"><path d="M 313.472656 274.011719 L 313.472656 253.289062 C 314.960938 251.796875 316.195312 250.273438 317.167969 248.714844 L 317.167969 268.070312 C 316.367188 270.105469 315.136719 272.09375 313.472656 274.011719" fill="#e98b1b"/></g><g id="change3_74"><path d="M 295.523438 286.261719 C 294.972656 286.148438 294.574219 285.945312 294.574219 285.707031 L 294.574219 265.101562 C 295.855469 264.550781 297.085938 263.988281 298.277344 263.410156 L 298.277344 284.945312 C 297.386719 285.390625 296.472656 285.832031 295.523438 286.261719" fill="#e98b1b"/></g><g id="change3_75"><path d="M 288.628906 289.128906 C 288.425781 289.023438 288.277344 288.902344 288.277344 288.769531 L 288.277344 267.578125 C 289.550781 267.117188 290.78125 266.652344 291.980469 266.171875 L 291.980469 287.804688 C 290.894531 288.257812 289.769531 288.703125 288.628906 289.128906" fill="#e98b1b"/></g><g id="change3_76"><path d="M 281.984375 291.441406 L 281.984375 269.691406 C 283.242188 269.304688 284.476562 268.898438 285.6875 268.484375 L 285.6875 290.207031 C 284.476562 290.632812 283.246094 291.042969 281.984375 291.441406" fill="#e98b1b"/></g><g id="change3_77"><path d="M 275.6875 293.289062 L 275.6875 271.515625 C 276.9375 271.179688 278.183594 270.839844 279.390625 270.484375 L 279.390625 292.230469 C 278.175781 292.59375 276.941406 292.941406 275.6875 293.289062" fill="#e98b1b"/></g><g id="change3_78"><path d="M 269.390625 294.902344 L 269.390625 273.078125 C 270.644531 272.789062 271.871094 272.484375 273.089844 272.179688 L 273.089844 293.980469 C 271.871094 294.296875 270.644531 294.605469 269.390625 294.902344" fill="#e98b1b"/></g><g id="change3_79"><path d="M 263.09375 296.265625 L 263.09375 274.429688 C 264.335938 274.179688 265.578125 273.925781 266.792969 273.660156 L 266.792969 295.484375 C 265.578125 295.757812 264.335938 296.023438 263.09375 296.265625" fill="#e98b1b"/></g><g id="change3_80"><path d="M 256.796875 297.464844 L 256.796875 275.605469 C 258.046875 275.386719 259.273438 275.160156 260.5 274.933594 L 260.5 296.792969 C 259.285156 297.023438 258.039062 297.25 256.796875 297.464844" fill="#e98b1b"/></g><g id="change3_81"><path d="M 250.496094 298.46875 L 250.496094 276.582031 C 251.742188 276.40625 252.976562 276.210938 254.199219 276.019531 L 254.199219 297.894531 C 252.976562 298.09375 251.742188 298.285156 250.496094 298.46875" fill="#e98b1b"/></g><g id="change3_82"><path d="M 165.886719 298.46875 C 164.644531 298.285156 163.402344 298.09375 162.1875 297.894531 L 162.1875 276.019531 C 163.402344 276.210938 164.644531 276.40625 165.886719 276.582031 L 165.886719 298.46875" fill="#e98b1b"/></g><g id="change3_83"><path d="M 159.585938 297.464844 C 158.34375 297.25 157.101562 297.023438 155.882812 296.792969 L 155.882812 274.933594 C 157.105469 275.160156 158.339844 275.386719 159.585938 275.605469 L 159.585938 297.464844" fill="#e98b1b"/></g><g id="change3_84"><path d="M 153.289062 296.265625 C 152.039062 296.023438 150.808594 295.757812 149.589844 295.484375 L 149.589844 273.660156 C 150.808594 273.925781 152.039062 274.179688 153.289062 274.429688 L 153.289062 296.265625" fill="#e98b1b"/></g><g id="change3_85"><path d="M 146.992188 294.902344 C 145.734375 294.605469 144.503906 294.296875 143.292969 293.980469 L 143.292969 272.179688 C 144.503906 272.484375 145.734375 272.789062 146.992188 273.078125 L 146.992188 294.902344" fill="#e98b1b"/></g><g id="change3_86"><path d="M 140.699219 293.289062 C 139.441406 292.941406 138.207031 292.59375 136.996094 292.230469 L 136.996094 270.484375 C 138.203125 270.839844 139.445312 271.179688 140.699219 271.515625 L 140.699219 293.289062" fill="#e98b1b"/></g><g id="change3_87"><path d="M 197.367188 301.253906 C 196.125 301.210938 194.898438 301.152344 193.664062 301.09375 L 193.664062 279.171875 C 194.898438 279.226562 196.125 279.28125 197.367188 279.328125 L 197.367188 301.253906" fill="#e98b1b"/></g><g id="change3_88"><path d="M 191.074219 300.972656 C 189.828125 300.90625 188.601562 300.824219 187.371094 300.742188 L 187.371094 278.816406 C 188.601562 278.898438 189.828125 278.980469 191.074219 279.054688 L 191.074219 300.972656" fill="#e98b1b"/></g><g id="change3_89"><path d="M 203.664062 301.402344 C 202.425781 301.390625 201.195312 301.351562 199.96875 301.324219 L 199.96875 279.394531 C 201.195312 279.429688 202.425781 279.453125 203.664062 279.472656 L 203.664062 301.402344" fill="#e98b1b"/></g><g id="change3_90"><path d="M 208.191406 301.441406 C 207.546875 301.441406 206.902344 301.425781 206.261719 301.425781 L 206.261719 279.488281 C 206.902344 279.496094 207.546875 279.515625 208.191406 279.515625 C 208.785156 279.515625 209.371094 279.503906 209.960938 279.496094 L 209.960938 301.425781 C 209.371094 301.425781 208.785156 301.441406 208.191406 301.441406" fill="#e98b1b"/></g><g id="change3_91"><path d="M 212.5625 301.402344 L 212.5625 279.472656 C 213.796875 279.460938 215.027344 279.4375 216.261719 279.402344 L 216.261719 301.324219 C 215.027344 301.359375 213.796875 301.390625 212.5625 301.402344" fill="#e98b1b"/></g><g id="change3_92"><path d="M 218.855469 301.253906 L 218.855469 279.328125 C 220.09375 279.285156 221.328125 279.234375 222.558594 279.179688 L 222.558594 301.101562 C 221.328125 301.15625 220.09375 301.21875 218.855469 301.253906" fill="#e98b1b"/></g><g id="change3_93"><path d="M 225.152344 300.980469 L 225.152344 279.058594 C 226.394531 278.996094 227.621094 278.910156 228.851562 278.832031 L 228.851562 300.75 C 227.621094 300.828125 226.394531 300.917969 225.152344 300.980469" fill="#e98b1b"/></g><g id="change3_94"><path d="M 231.445312 300.566406 L 231.445312 278.652344 C 232.691406 278.558594 233.925781 278.457031 235.148438 278.351562 L 235.148438 300.265625 C 233.933594 300.375 232.691406 300.472656 231.445312 300.566406" fill="#e98b1b"/></g><g id="change3_95"><path d="M 237.742188 300.019531 L 237.742188 278.109375 C 238.984375 277.988281 240.226562 277.871094 241.445312 277.738281 L 241.445312 299.632812 C 240.226562 299.773438 238.984375 299.898438 237.742188 300.019531" fill="#e98b1b"/></g><g id="change3_96"><path d="M 244.039062 299.328125 L 244.039062 277.433594 C 245.285156 277.277344 246.519531 277.128906 247.742188 276.964844 L 247.742188 298.855469 C 246.519531 299.023438 245.285156 299.175781 244.039062 299.328125" fill="#e98b1b"/></g><g id="change3_97"><path d="M 184.773438 300.554688 C 183.535156 300.457031 182.300781 300.367188 181.070312 300.25 L 181.070312 278.339844 C 182.300781 278.445312 183.535156 278.546875 184.773438 278.640625 L 184.773438 300.554688" fill="#e98b1b"/></g><g id="change3_98"><path d="M 178.476562 300 C 177.238281 299.882812 176 299.757812 174.777344 299.617188 L 174.777344 277.71875 C 176 277.855469 177.238281 277.972656 178.476562 278.09375 L 178.476562 300" fill="#e98b1b"/></g><g id="change3_99"><path d="M 172.179688 299.304688 C 170.9375 299.152344 169.703125 298.992188 168.480469 298.832031 L 168.480469 276.941406 C 169.695312 277.109375 170.9375 277.265625 172.179688 277.414062 L 172.179688 299.304688" fill="#e98b1b"/></g><g id="change3_100"><path d="M 134.398438 291.441406 C 133.132812 291.042969 131.902344 290.632812 130.695312 290.207031 L 130.695312 268.484375 C 131.902344 268.898438 133.140625 269.304688 134.398438 269.691406 L 134.398438 291.441406" fill="#e98b1b"/></g><g id="change3_101"><path d="M 127.757812 289.128906 C 126.605469 288.703125 125.484375 288.257812 124.402344 287.804688 L 124.402344 266.171875 C 125.605469 266.652344 126.832031 267.117188 128.101562 267.578125 L 128.101562 288.769531 C 128.101562 288.902344 127.953125 289.023438 127.757812 289.128906" fill="#e98b1b"/></g><g id="change3_102"><path d="M 120.855469 286.261719 C 119.902344 285.832031 119 285.390625 118.105469 284.945312 L 118.105469 263.410156 C 119.296875 263.988281 120.523438 264.550781 121.808594 265.101562 L 121.808594 285.707031 C 121.808594 285.945312 121.40625 286.148438 120.855469 286.261719" fill="#e98b1b"/></g><g id="change3_103"><path d="M 114.738281 283.160156 C 113.722656 282.585938 112.738281 282 111.808594 281.402344 L 111.808594 260.03125 C 112.984375 260.742188 114.199219 261.441406 115.507812 262.121094 L 115.507812 282.648438 C 115.507812 282.855469 115.191406 283.035156 114.738281 283.160156" fill="#e98b1b"/></g><g id="change3_104"><path d="M 109.183594 279.632812 C 107.835938 278.660156 106.621094 277.65625 105.507812 276.644531 L 105.507812 255.644531 C 106.640625 256.574219 107.886719 257.484375 109.210938 258.386719 L 109.210938 279.585938 L 109.183594 279.632812" fill="#e98b1b"/></g><g id="change3_105"><path d="M 102.910156 274.011719 C 101.253906 272.09375 100.015625 270.105469 99.214844 268.070312 L 99.214844 248.714844 C 100.1875 250.273438 101.429688 251.796875 102.910156 253.289062 L 102.910156 274.011719" fill="#e98b1b"/></g><g id="change1_7"><path d="M 335.003906 223.121094 L 335.003906 199.703125 L 111.769531 199.703125 L 111.769531 223.121094 C 111.769531 244.824219 161.742188 262.410156 223.386719 262.410156 C 285.027344 262.410156 335.003906 244.824219 335.003906 223.121094" fill="#f89e19"/></g><g id="change2_4"><path d="M 223.386719 237.257812 C 161.742188 237.257812 111.769531 219.664062 111.769531 197.976562 C 111.769531 176.273438 161.742188 158.691406 223.386719 158.691406 C 285.027344 158.691406 335.003906 176.273438 335.003906 197.976562 C 335.003906 219.664062 285.027344 237.257812 223.386719 237.257812" fill="#f5c116"/></g><g id="change1_8"><path d="M 230.105469 213.3125 C 234.574219 213.011719 238.222656 212.285156 241.035156 211.117188 C 243.835938 209.949219 245.238281 208.574219 245.238281 207.003906 C 245.238281 205.597656 244.066406 204.382812 241.699219 203.363281 C 239.339844 202.347656 235.488281 201.554688 230.105469 201.011719 L 230.105469 213.3125 M 217.113281 179.773438 C 213.597656 180.1875 210.785156 180.902344 208.699219 181.90625 C 206.609375 182.925781 205.5625 184.039062 205.5625 185.253906 C 205.5625 186.371094 206.515625 187.402344 208.425781 188.359375 C 210.339844 189.3125 213.230469 190.089844 217.113281 190.671875 L 217.113281 179.773438 M 217.113281 212.867188 L 217.113281 199.65625 C 205.410156 198.476562 196.835938 196.703125 191.359375 194.316406 C 185.90625 191.933594 183.171875 189.039062 183.171875 185.636719 C 183.171875 182.183594 186.265625 179.289062 192.441406 176.945312 C 198.617188 174.601562 206.84375 173.253906 217.113281 172.898438 L 217.113281 169.773438 L 230.105469 169.773438 L 230.105469 172.898438 C 239.597656 173.296875 247.140625 174.441406 252.761719 176.320312 C 258.382812 178.195312 261.964844 180.710938 263.507812 183.871094 L 240.855469 184.90625 C 239.480469 182.421875 235.890625 180.75 230.105469 179.867188 L 230.105469 192.191406 C 244.4375 193.546875 254.203125 195.328125 259.394531 197.5 C 264.585938 199.675781 267.183594 202.46875 267.183594 205.867188 C 267.183594 209.675781 263.910156 212.871094 257.386719 215.476562 C 250.839844 218.09375 241.746094 219.683594 230.105469 220.28125 L 230.105469 226.171875 L 217.113281 226.171875 L 217.113281 220.4375 C 206.785156 219.992188 198.394531 218.636719 191.941406 216.367188 C 185.5 214.097656 181.382812 210.894531 179.589844 206.75 L 202.960938 205.867188 C 203.921875 207.546875 205.707031 209 208.339844 210.21875 C 210.960938 211.429688 213.890625 212.324219 217.113281 212.867188" fill="#f89e19"/></g><g id="change3_106"><path d="M 322.394531 238.859375 L 322.359375 238.808594 L 322.359375 217.609375 C 323.6875 216.710938 324.9375 215.804688 326.066406 214.875 L 326.066406 235.867188 C 324.949219 236.886719 323.738281 237.886719 322.394531 238.859375" fill="#e98b1b"/></g><g id="change3_107"><path d="M 316.835938 242.386719 C 316.386719 242.261719 316.066406 242.082031 316.066406 241.871094 L 316.066406 221.347656 C 317.371094 220.671875 318.59375 219.964844 319.773438 219.261719 L 319.773438 240.628906 C 318.839844 241.222656 317.855469 241.8125 316.835938 242.386719" fill="#e98b1b"/></g><g id="change3_108"><path d="M 328.664062 233.238281 L 328.664062 212.511719 C 330.152344 211.023438 331.386719 209.496094 332.359375 207.9375 L 332.359375 227.296875 C 331.5625 229.332031 330.328125 231.316406 328.664062 233.238281" fill="#e98b1b"/></g><g id="change3_109"><path d="M 310.722656 245.492188 C 310.167969 245.378906 309.769531 245.175781 309.769531 244.933594 L 309.769531 224.335938 C 311.050781 223.773438 312.277344 223.210938 313.476562 222.640625 L 313.476562 244.171875 C 312.578125 244.617188 311.664062 245.058594 310.722656 245.492188" fill="#e98b1b"/></g><g id="change3_110"><path d="M 303.820312 248.355469 C 303.617188 248.253906 303.476562 248.132812 303.476562 247.992188 L 303.476562 226.804688 C 304.742188 226.347656 305.972656 225.878906 307.175781 225.394531 L 307.175781 247.03125 C 306.082031 247.480469 304.96875 247.925781 303.820312 248.355469" fill="#e98b1b"/></g><g id="change3_111"><path d="M 297.183594 250.664062 L 297.183594 228.914062 C 298.4375 228.53125 299.675781 228.121094 300.882812 227.710938 L 300.882812 249.433594 C 299.675781 249.855469 298.4375 250.265625 297.183594 250.664062" fill="#e98b1b"/></g><g id="change3_112"><path d="M 290.878906 252.511719 L 290.878906 230.742188 C 292.132812 230.402344 293.371094 230.0625 294.578125 229.710938 L 294.578125 251.460938 C 293.367188 251.824219 292.140625 252.167969 290.878906 252.511719" fill="#e98b1b"/></g><g id="change3_113"><path d="M 284.578125 254.128906 L 284.578125 232.304688 C 285.835938 232.015625 287.0625 231.710938 288.285156 231.402344 L 288.285156 253.207031 C 287.0625 253.519531 285.835938 253.835938 284.578125 254.128906" fill="#e98b1b"/></g><g id="change3_114"><path d="M 278.285156 255.496094 L 278.285156 233.660156 C 279.535156 233.402344 280.769531 233.152344 281.984375 232.890625 L 281.984375 254.714844 C 280.769531 254.988281 279.535156 255.246094 278.285156 255.496094" fill="#e98b1b"/></g><g id="change3_115"><path d="M 271.992188 256.6875 L 271.992188 234.832031 C 273.238281 234.609375 274.464844 234.386719 275.691406 234.15625 L 275.691406 256.023438 C 274.476562 256.25 273.230469 256.472656 271.992188 256.6875" fill="#e98b1b"/></g><g id="change3_116"><path d="M 265.691406 257.699219 L 265.691406 235.804688 C 266.9375 235.628906 268.167969 235.445312 269.394531 235.246094 L 269.394531 257.121094 C 268.167969 257.316406 266.9375 257.507812 265.691406 257.699219" fill="#e98b1b"/></g><g id="change3_117"><path d="M 181.078125 257.699219 C 179.832031 257.507812 178.601562 257.316406 177.371094 257.121094 L 177.371094 235.246094 C 178.601562 235.445312 179.832031 235.628906 181.078125 235.804688 L 181.078125 257.699219" fill="#e98b1b"/></g><g id="change3_118"><path d="M 174.777344 256.6875 C 173.535156 256.472656 172.296875 256.25 171.078125 256.023438 L 171.078125 234.15625 C 172.308594 234.386719 173.53125 234.609375 174.777344 234.832031 L 174.777344 256.6875" fill="#e98b1b"/></g><g id="change3_119"><path d="M 168.484375 255.496094 C 167.230469 255.246094 166.003906 254.988281 164.78125 254.714844 L 164.78125 232.890625 C 166.003906 233.152344 167.230469 233.402344 168.484375 233.660156 L 168.484375 255.496094" fill="#e98b1b"/></g><g id="change3_120"><path d="M 162.1875 254.128906 C 160.933594 253.835938 159.699219 253.519531 158.484375 253.207031 L 158.484375 231.402344 C 159.699219 231.710938 160.933594 232.015625 162.1875 232.304688 L 162.1875 254.128906" fill="#e98b1b"/></g><g id="change3_121"><path d="M 155.890625 252.511719 C 154.632812 252.167969 153.398438 251.824219 152.191406 251.460938 L 152.191406 229.710938 C 153.394531 230.0625 154.636719 230.402344 155.890625 230.742188 L 155.890625 252.511719" fill="#e98b1b"/></g><g id="change3_122"><path d="M 212.5625 260.480469 C 211.316406 260.433594 210.09375 260.378906 208.859375 260.324219 L 208.859375 238.402344 C 210.09375 238.453125 211.316406 238.507812 212.5625 238.554688 L 212.5625 260.480469" fill="#e98b1b"/></g><g id="change3_123"><path d="M 206.261719 260.195312 C 205.023438 260.132812 203.789062 260.050781 202.566406 259.964844 L 202.566406 238.050781 C 203.789062 238.125 205.023438 238.214844 206.261719 238.285156 L 206.261719 260.195312" fill="#e98b1b"/></g><g id="change3_124"><path d="M 218.859375 260.632812 C 217.617188 260.613281 216.386719 260.582031 215.160156 260.546875 L 215.160156 238.625 C 216.386719 238.652344 217.617188 238.675781 218.859375 238.699219 L 218.859375 260.632812" fill="#e98b1b"/></g><g id="change3_125"><path d="M 223.386719 260.671875 C 222.738281 260.671875 222.101562 260.65625 221.453125 260.648438 L 221.453125 238.71875 C 222.101562 238.726562 222.738281 238.738281 223.386719 238.738281 C 223.980469 238.738281 224.566406 238.730469 225.152344 238.726562 L 225.152344 260.648438 C 224.566406 260.65625 223.980469 260.671875 223.386719 260.671875" fill="#e98b1b"/></g><g id="change3_126"><path d="M 227.757812 260.632812 L 227.757812 238.699219 C 228.992188 238.683594 230.21875 238.660156 231.457031 238.632812 L 231.457031 260.554688 C 230.21875 260.585938 228.992188 260.613281 227.757812 260.632812" fill="#e98b1b"/></g><g id="change3_127"><path d="M 234.046875 260.480469 L 234.046875 238.558594 C 235.292969 238.515625 236.519531 238.460938 237.746094 238.402344 L 237.746094 260.328125 C 236.519531 260.378906 235.292969 260.441406 234.046875 260.480469" fill="#e98b1b"/></g><g id="change3_128"><path d="M 240.347656 260.203125 L 240.347656 238.285156 C 241.589844 238.222656 242.816406 238.136719 244.046875 238.054688 L 244.046875 259.972656 C 242.816406 260.058594 241.589844 260.144531 240.347656 260.203125" fill="#e98b1b"/></g><g id="change3_129"><path d="M 246.644531 259.789062 L 246.644531 237.878906 C 247.882812 237.785156 249.113281 237.683594 250.34375 237.578125 L 250.34375 259.492188 C 249.121094 259.597656 247.882812 259.695312 246.644531 259.789062" fill="#e98b1b"/></g><g id="change3_130"><path d="M 252.9375 259.246094 L 252.9375 237.335938 C 254.175781 237.21875 255.425781 237.097656 256.640625 236.964844 L 256.640625 258.859375 C 255.425781 258.996094 254.175781 259.121094 252.9375 259.246094" fill="#e98b1b"/></g><g id="change3_131"><path d="M 259.238281 258.554688 L 259.238281 236.660156 C 260.480469 236.503906 261.714844 236.355469 262.933594 236.191406 L 262.933594 258.082031 C 261.714844 258.246094 260.480469 258.398438 259.238281 258.554688" fill="#e98b1b"/></g><g id="change3_132"><path d="M 199.96875 259.78125 C 198.730469 259.679688 197.492188 259.589844 196.265625 259.480469 L 196.265625 237.566406 C 197.492188 237.671875 198.730469 237.769531 199.96875 237.863281 L 199.96875 259.78125" fill="#e98b1b"/></g><g id="change3_133"><path d="M 193.675781 259.226562 C 192.429688 259.105469 191.191406 258.984375 189.972656 258.847656 L 189.972656 236.945312 C 191.191406 237.082031 192.429688 237.199219 193.675781 237.320312 L 193.675781 259.226562" fill="#e98b1b"/></g><g id="change3_134"><path d="M 187.371094 258.53125 C 186.128906 258.386719 184.898438 258.222656 183.671875 258.054688 L 183.671875 236.171875 C 184.898438 236.335938 186.128906 236.488281 187.371094 236.640625 L 187.371094 258.53125" fill="#e98b1b"/></g><g id="change3_135"><path d="M 149.589844 250.664062 C 148.332031 250.265625 147.09375 249.855469 145.890625 249.433594 L 145.890625 227.710938 C 147.09375 228.121094 148.332031 228.53125 149.589844 228.914062 L 149.589844 250.664062" fill="#e98b1b"/></g><g id="change3_136"><path d="M 142.949219 248.355469 C 141.800781 247.925781 140.6875 247.480469 139.597656 247.03125 L 139.597656 225.394531 C 140.796875 225.878906 142.03125 226.347656 143.292969 226.804688 L 143.292969 247.992188 C 143.292969 248.132812 143.148438 248.253906 142.949219 248.355469" fill="#e98b1b"/></g><g id="change3_137"><path d="M 136.050781 245.492188 C 135.101562 245.058594 134.191406 244.617188 133.296875 244.171875 L 133.296875 222.640625 C 134.488281 223.210938 135.722656 223.773438 136.996094 224.335938 L 136.996094 244.933594 C 136.996094 245.175781 136.601562 245.378906 136.050781 245.492188" fill="#e98b1b"/></g><g id="change3_138"><path d="M 129.929688 242.386719 C 128.914062 241.8125 127.929688 241.222656 127 240.628906 L 127 219.261719 C 128.175781 219.964844 129.402344 220.671875 130.703125 221.347656 L 130.703125 241.871094 C 130.703125 242.082031 130.386719 242.261719 129.929688 242.386719" fill="#e98b1b"/></g><g id="change3_139"><path d="M 124.375 238.859375 C 123.027344 237.886719 121.816406 236.886719 120.695312 235.867188 L 120.695312 214.875 C 121.828125 215.804688 123.082031 216.710938 124.410156 217.609375 L 124.410156 238.808594 L 124.375 238.859375" fill="#e98b1b"/></g><g id="change3_140"><path d="M 118.109375 233.238281 C 116.441406 231.316406 115.207031 229.332031 114.402344 227.296875 L 114.402344 212.015625 C 115.601562 212.546875 116.835938 213.066406 118.109375 213.570312 L 118.109375 233.238281" fill="#e98b1b"/></g><g id="change1_9"><path d="M 313.4375 187.585938 L 313.4375 164.160156 L 90.199219 164.160156 L 90.199219 187.585938 C 90.199219 209.285156 140.171875 226.867188 201.816406 226.867188 C 263.464844 226.867188 313.4375 209.285156 313.4375 187.585938" fill="#f89e19"/></g><g id="change2_5"><path d="M 201.816406 201.714844 C 140.171875 201.714844 90.199219 184.132812 90.199219 162.4375 C 90.199219 140.730469 140.171875 123.148438 201.816406 123.148438 C 263.464844 123.148438 313.4375 140.730469 313.4375 162.4375 C 313.4375 184.132812 263.464844 201.714844 201.816406 201.714844" fill="#f5c116"/></g><g id="change1_10"><path d="M 208.539062 177.773438 C 213.007812 177.472656 216.652344 176.742188 219.464844 175.578125 C 222.261719 174.410156 223.671875 173.035156 223.671875 171.464844 C 223.671875 170.058594 222.492188 168.84375 220.132812 167.820312 C 217.769531 166.804688 213.921875 166.015625 208.539062 165.472656 L 208.539062 177.773438 M 195.546875 144.230469 C 192.023438 144.648438 189.21875 145.359375 187.132812 146.363281 C 185.039062 147.382812 183.996094 148.492188 183.996094 149.714844 C 183.996094 150.832031 184.949219 151.859375 186.859375 152.820312 C 188.769531 153.769531 191.660156 154.546875 195.546875 155.132812 L 195.546875 144.230469 M 195.546875 177.324219 L 195.546875 164.117188 C 183.84375 162.941406 175.265625 161.164062 169.796875 158.777344 C 164.339844 156.398438 161.601562 153.492188 161.601562 150.097656 C 161.601562 146.640625 164.691406 143.75 170.871094 141.40625 C 177.046875 139.058594 185.277344 137.714844 195.546875 137.355469 L 195.546875 134.238281 L 208.539062 134.238281 L 208.539062 137.355469 C 218.023438 137.753906 225.570312 138.898438 231.191406 140.777344 C 236.816406 142.660156 240.394531 145.167969 241.9375 148.332031 L 219.28125 149.363281 C 217.90625 146.890625 214.316406 145.207031 208.539062 144.324219 L 208.539062 156.648438 C 222.867188 158.007812 232.640625 159.789062 237.824219 161.960938 C 243.019531 164.136719 245.617188 166.929688 245.617188 170.324219 C 245.617188 174.132812 242.34375 177.339844 235.816406 179.945312 C 229.265625 182.550781 220.175781 184.144531 208.539062 184.738281 L 208.539062 190.632812 L 195.546875 190.632812 L 195.546875 184.894531 C 185.21875 184.449219 176.820312 183.097656 170.375 180.828125 C 163.929688 178.554688 159.816406 175.351562 158.019531 171.210938 L 181.394531 170.324219 C 182.355469 172.007812 184.140625 173.457031 186.769531 174.683594 C 189.394531 175.890625 192.320312 176.78125 195.546875 177.324219" fill="#f89e19"/></g><g id="change3_141"><path d="M 300.824219 203.316406 L 300.796875 203.269531 L 300.796875 182.070312 C 302.121094 181.171875 303.367188 180.265625 304.496094 179.335938 L 304.496094 200.324219 C 303.382812 201.347656 302.171875 202.347656 300.824219 203.316406" fill="#e98b1b"/></g><g id="change3_142"><path d="M 295.269531 206.84375 C 294.816406 206.722656 294.5 206.542969 294.5 206.332031 L 294.5 185.804688 C 295.800781 185.128906 297.023438 184.425781 298.195312 183.714844 L 298.195312 205.09375 C 297.269531 205.6875 296.28125 206.269531 295.269531 206.84375" fill="#e98b1b"/></g><g id="change3_143"><path d="M 307.097656 197.703125 L 307.097656 176.972656 C 307.828125 176.242188 308.5 175.5 309.109375 174.75 C 309.695312 174.3125 310.257812 173.871094 310.796875 173.425781 L 310.796875 191.757812 C 309.996094 193.789062 308.757812 195.78125 307.097656 197.703125" fill="#e98b1b"/></g><g id="change3_144"><path d="M 289.148438 209.949219 C 288.597656 209.832031 288.203125 209.636719 288.203125 209.394531 L 288.203125 188.792969 C 289.480469 188.238281 290.710938 187.675781 291.90625 187.101562 L 291.90625 208.628906 C 291.011719 209.078125 290.097656 209.519531 289.148438 209.949219" fill="#e98b1b"/></g><g id="change3_145"><path d="M 282.253906 212.820312 C 282.050781 212.710938 281.902344 212.589844 281.902344 212.457031 L 281.902344 191.261719 C 283.175781 190.808594 284.402344 190.332031 285.605469 189.859375 L 285.605469 211.492188 C 284.519531 211.945312 283.398438 212.386719 282.253906 212.820312" fill="#e98b1b"/></g><g id="change3_146"><path d="M 275.609375 215.125 L 275.609375 193.375 C 276.867188 192.988281 278.101562 192.59375 279.3125 192.175781 L 279.3125 213.894531 C 278.101562 214.316406 276.871094 214.726562 275.609375 215.125" fill="#e98b1b"/></g><g id="change3_147"><path d="M 269.3125 216.972656 L 269.3125 195.199219 C 270.566406 194.859375 271.804688 194.523438 273.015625 194.171875 L 273.015625 215.921875 C 271.800781 216.28125 270.570312 216.628906 269.3125 216.972656" fill="#e98b1b"/></g><g id="change3_148"><path d="M 263.011719 218.589844 L 263.011719 196.765625 C 264.269531 196.476562 265.496094 196.171875 266.722656 195.867188 L 266.722656 217.667969 C 265.496094 217.980469 264.269531 218.289062 263.011719 218.589844" fill="#e98b1b"/></g><g id="change3_149"><path d="M 256.722656 219.960938 L 256.722656 198.117188 C 257.964844 197.867188 259.195312 197.613281 260.421875 197.347656 L 260.421875 219.171875 C 259.195312 219.441406 257.964844 219.703125 256.722656 219.960938" fill="#e98b1b"/></g><g id="change3_150"><path d="M 250.425781 221.148438 L 250.425781 199.289062 C 251.671875 199.070312 252.894531 198.855469 254.121094 198.621094 L 254.121094 220.480469 C 252.902344 220.710938 251.660156 220.933594 250.425781 221.148438" fill="#e98b1b"/></g><g id="change3_151"><path d="M 244.125 222.160156 L 244.125 200.269531 C 245.367188 200.09375 246.605469 199.902344 247.820312 199.703125 L 247.820312 221.574219 C 246.605469 221.777344 245.367188 221.972656 244.125 222.160156" fill="#e98b1b"/></g><g id="change3_152"><path d="M 159.511719 222.160156 C 158.257812 221.972656 157.027344 221.777344 155.808594 221.574219 L 155.808594 199.703125 C 157.027344 199.902344 158.257812 200.09375 159.511719 200.269531 L 159.511719 222.160156" fill="#e98b1b"/></g><g id="change3_153"><path d="M 153.210938 221.148438 C 151.96875 220.933594 150.726562 220.710938 149.511719 220.480469 L 149.511719 198.621094 C 150.730469 198.855469 151.964844 199.070312 153.210938 199.289062 L 153.210938 221.148438" fill="#e98b1b"/></g><g id="change3_154"><path d="M 146.914062 219.960938 C 145.667969 219.703125 144.429688 219.441406 143.214844 219.171875 L 143.214844 197.347656 C 144.429688 197.613281 145.667969 197.867188 146.914062 198.117188 L 146.914062 219.960938" fill="#e98b1b"/></g><g id="change3_155"><path d="M 140.617188 218.589844 C 139.359375 218.289062 138.132812 217.980469 136.914062 217.667969 L 136.914062 195.867188 C 138.132812 196.171875 139.359375 196.476562 140.617188 196.765625 L 140.617188 218.589844" fill="#e98b1b"/></g><g id="change3_156"><path d="M 134.320312 216.972656 C 133.066406 216.628906 131.835938 216.28125 130.621094 215.921875 L 130.621094 194.171875 C 131.824219 194.523438 133.070312 194.859375 134.320312 195.199219 L 134.320312 216.972656" fill="#e98b1b"/></g><g id="change3_157"><path d="M 190.988281 224.941406 C 189.753906 224.894531 188.523438 224.839844 187.289062 224.785156 L 187.289062 202.859375 C 188.523438 202.910156 189.753906 202.964844 190.988281 203.011719 L 190.988281 224.941406" fill="#e98b1b"/></g><g id="change3_158"><path d="M 184.695312 224.652344 C 183.453125 224.59375 182.222656 224.511719 180.992188 224.425781 L 180.992188 202.507812 C 182.222656 202.585938 183.453125 202.675781 184.695312 202.742188 L 184.695312 224.652344" fill="#e98b1b"/></g><g id="change3_159"><path d="M 197.289062 225.09375 C 196.050781 225.066406 194.816406 225.039062 193.59375 225.011719 L 193.59375 203.082031 C 194.816406 203.113281 196.050781 203.132812 197.289062 203.15625 L 197.289062 225.09375" fill="#e98b1b"/></g><g id="change3_160"><path d="M 201.816406 225.132812 C 201.167969 225.132812 200.53125 225.117188 199.886719 225.109375 L 199.886719 203.179688 C 200.53125 203.179688 201.167969 203.195312 201.816406 203.195312 C 202.410156 203.195312 202.996094 203.191406 203.585938 203.179688 L 203.585938 225.109375 C 202.996094 225.117188 202.410156 225.132812 201.816406 225.132812" fill="#e98b1b"/></g><g id="change3_161"><path d="M 206.1875 225.09375 L 206.1875 203.15625 C 207.421875 203.140625 208.652344 203.121094 209.886719 203.089844 L 209.886719 225.015625 C 208.652344 225.042969 207.421875 225.066406 206.1875 225.09375" fill="#e98b1b"/></g><g id="change3_162"><path d="M 212.480469 224.941406 L 212.480469 203.023438 C 213.722656 202.972656 214.957031 202.914062 216.179688 202.863281 L 216.179688 224.789062 C 214.957031 224.84375 213.722656 224.90625 212.480469 224.941406" fill="#e98b1b"/></g><g id="change3_163"><path d="M 218.777344 224.671875 L 218.777344 202.746094 C 220.019531 202.683594 221.246094 202.597656 222.480469 202.515625 L 222.480469 224.4375 C 221.246094 224.519531 220.019531 224.601562 218.777344 224.671875" fill="#e98b1b"/></g><g id="change3_164"><path d="M 225.070312 224.246094 L 225.070312 202.335938 C 226.316406 202.246094 227.546875 202.144531 228.773438 202.039062 L 228.773438 223.953125 C 227.554688 224.054688 226.316406 224.15625 225.070312 224.246094" fill="#e98b1b"/></g><g id="change3_165"><path d="M 231.363281 223.703125 L 231.363281 201.796875 C 232.609375 201.675781 233.847656 201.5625 235.078125 201.421875 L 235.078125 223.320312 C 233.847656 223.460938 232.609375 223.582031 231.363281 223.703125" fill="#e98b1b"/></g><g id="change3_166"><path d="M 237.667969 223.011719 L 237.667969 201.117188 C 238.910156 200.96875 240.144531 200.816406 241.367188 200.648438 L 241.367188 222.539062 C 240.144531 222.703125 238.910156 222.859375 237.667969 223.011719" fill="#e98b1b"/></g><g id="change3_167"><path d="M 178.394531 224.242188 C 177.160156 224.144531 175.925781 224.050781 174.695312 223.941406 L 174.695312 202.027344 C 175.925781 202.132812 177.160156 202.234375 178.394531 202.324219 L 178.394531 224.242188" fill="#e98b1b"/></g><g id="change3_168"><path d="M 172.101562 223.6875 C 170.859375 223.566406 169.625 223.441406 168.402344 223.304688 L 168.402344 201.402344 C 169.625 201.539062 170.859375 201.660156 172.101562 201.78125 L 172.101562 223.6875" fill="#e98b1b"/></g><g id="change3_169"><path d="M 165.804688 222.992188 C 164.5625 222.84375 163.332031 222.683594 162.101562 222.515625 L 162.101562 200.628906 C 163.328125 200.792969 164.5625 200.949219 165.804688 201.101562 L 165.804688 222.992188" fill="#e98b1b"/></g><g id="change3_170"><path d="M 128.023438 215.125 C 126.757812 214.726562 125.53125 214.316406 124.320312 213.894531 L 124.320312 192.175781 C 125.53125 192.59375 126.765625 192.988281 128.023438 193.375 L 128.023438 215.125" fill="#e98b1b"/></g><g id="change3_171"><path d="M 121.382812 212.820312 C 120.234375 212.386719 119.113281 211.945312 118.027344 211.492188 L 118.027344 189.859375 C 119.226562 190.332031 120.460938 190.808594 121.726562 191.261719 L 121.726562 212.457031 C 121.726562 212.589844 121.582031 212.710938 121.382812 212.820312" fill="#e98b1b"/></g><g id="change3_172"><path d="M 114.480469 209.949219 C 113.535156 209.519531 112.617188 209.078125 111.726562 208.628906 L 111.726562 187.101562 C 112.925781 187.675781 114.148438 188.238281 115.433594 188.792969 L 115.433594 209.394531 C 115.433594 209.636719 115.035156 209.832031 114.480469 209.949219" fill="#e98b1b"/></g><g id="change3_173"><path d="M 108.367188 206.84375 C 107.347656 206.269531 106.355469 205.6875 105.433594 205.09375 L 105.433594 183.714844 C 106.609375 184.425781 107.828125 185.128906 109.132812 185.804688 L 109.132812 206.332031 C 109.132812 206.542969 108.8125 206.722656 108.367188 206.84375" fill="#e98b1b"/></g><g id="change3_174"><path d="M 102.808594 203.316406 C 101.460938 202.347656 100.246094 201.347656 99.132812 200.324219 L 99.132812 179.335938 C 100.265625 180.265625 101.511719 181.171875 102.839844 182.070312 L 102.839844 203.269531 L 102.808594 203.316406" fill="#e98b1b"/></g><g id="change3_175"><path d="M 96.539062 197.703125 C 94.871094 195.78125 93.640625 193.792969 92.839844 191.757812 L 92.839844 172.402344 C 93.8125 173.960938 95.050781 175.488281 96.539062 176.972656 L 96.539062 197.703125" fill="#e98b1b"/></g><g id="change1_11"><path d="M 319.652344 158.0625 L 319.652344 134.636719 L 96.417969 134.636719 L 96.417969 158.0625 C 96.417969 179.757812 146.390625 197.347656 208.035156 197.347656 C 269.679688 197.347656 319.652344 179.757812 319.652344 158.0625" fill="#f89e19"/></g><g id="change2_6"><path d="M 208.035156 172.191406 C 146.390625 172.191406 96.417969 154.609375 96.417969 132.914062 C 96.417969 111.214844 146.390625 93.625 208.035156 93.625 C 269.679688 93.625 319.652344 111.214844 319.652344 132.914062 C 319.652344 154.609375 269.679688 172.191406 208.035156 172.191406" fill="#f5c116"/></g><g id="change1_12"><path d="M 214.761719 148.246094 C 219.230469 147.949219 222.871094 147.226562 225.679688 146.058594 C 228.480469 144.894531 229.890625 143.519531 229.890625 141.945312 C 229.890625 140.53125 228.714844 139.320312 226.351562 138.304688 C 223.984375 137.285156 220.140625 136.496094 214.761719 135.949219 L 214.761719 148.246094 M 201.765625 114.707031 C 198.246094 115.132812 195.433594 115.839844 193.351562 116.84375 C 191.261719 117.863281 190.210938 118.972656 190.210938 120.195312 C 190.210938 121.308594 191.167969 122.339844 193.078125 123.296875 C 194.988281 124.25 197.878906 125.027344 201.765625 125.613281 L 201.765625 114.707031 M 201.765625 147.8125 L 201.765625 134.601562 C 190.0625 133.417969 181.484375 131.640625 176.015625 129.253906 C 170.558594 126.871094 167.820312 123.976562 167.820312 120.570312 C 167.820312 117.121094 170.914062 114.226562 177.09375 111.886719 C 183.265625 109.542969 191.492188 108.191406 201.765625 107.835938 L 201.765625 104.714844 L 214.761719 104.714844 L 214.761719 107.835938 C 224.246094 108.230469 231.789062 109.375 237.414062 111.253906 C 243.03125 113.136719 246.613281 115.648438 248.15625 118.804688 L 225.503906 119.851562 C 224.128906 117.363281 220.542969 115.6875 214.761719 114.804688 L 214.761719 127.125 C 229.085938 128.492188 238.855469 130.265625 244.039062 132.4375 C 249.234375 134.617188 251.832031 137.402344 251.832031 140.804688 C 251.832031 144.613281 248.5625 147.816406 242.039062 150.421875 C 235.488281 153.027344 226.394531 154.625 214.761719 155.214844 L 214.761719 161.109375 L 201.765625 161.109375 L 201.765625 155.371094 C 191.429688 154.929688 183.046875 153.574219 176.59375 151.304688 C 170.148438 149.03125 166.035156 145.828125 164.242188 141.691406 L 187.613281 140.804688 C 188.570312 142.484375 190.355469 143.933594 192.988281 145.160156 C 195.609375 146.375 198.539062 147.257812 201.765625 147.8125" fill="#f89e19"/></g><g id="change3_176"><path d="M 307.042969 173.796875 L 307.011719 173.75 L 307.011719 152.542969 C 308.339844 151.652344 309.589844 150.738281 310.722656 149.8125 L 310.722656 170.8125 C 309.601562 171.824219 308.390625 172.820312 307.042969 173.796875" fill="#e98b1b"/></g><g id="change3_177"><path d="M 301.484375 177.320312 C 301.039062 177.203125 300.722656 177.019531 300.722656 176.8125 L 300.722656 156.289062 C 302.019531 155.605469 303.246094 154.902344 304.421875 154.191406 L 304.421875 175.570312 C 303.492188 176.167969 302.507812 176.75 301.484375 177.320312" fill="#e98b1b"/></g><g id="change3_178"><path d="M 313.3125 168.179688 L 313.3125 147.453125 C 314.804688 145.964844 316.035156 144.433594 317.015625 142.878906 L 317.015625 162.234375 C 316.214844 164.265625 314.976562 166.253906 313.3125 168.179688" fill="#e98b1b"/></g><g id="change3_179"><path d="M 295.371094 180.433594 C 294.816406 180.308594 294.417969 180.113281 294.417969 179.875 L 294.417969 159.269531 C 295.699219 158.714844 296.929688 158.152344 298.125 157.574219 L 298.125 179.105469 C 297.230469 179.558594 296.316406 179.996094 295.371094 180.433594" fill="#e98b1b"/></g><g id="change3_180"><path d="M 288.472656 183.296875 C 288.273438 183.191406 288.128906 183.066406 288.128906 182.933594 L 288.128906 161.742188 C 289.390625 161.285156 290.621094 160.8125 291.824219 160.335938 L 291.824219 181.96875 C 290.734375 182.421875 289.617188 182.863281 288.472656 183.296875" fill="#e98b1b"/></g><g id="change3_181"><path d="M 281.835938 185.597656 L 281.835938 163.851562 C 283.085938 163.464844 284.324219 163.066406 285.53125 162.648438 L 285.53125 184.371094 C 284.324219 184.792969 283.097656 185.207031 281.835938 185.597656" fill="#e98b1b"/></g><g id="change3_182"><path d="M 275.527344 187.453125 L 275.527344 165.675781 C 276.78125 165.339844 278.023438 165.003906 279.230469 164.648438 L 279.230469 186.398438 C 278.019531 186.757812 276.785156 187.109375 275.527344 187.453125" fill="#e98b1b"/></g><g id="change3_183"><path d="M 269.230469 189.066406 L 269.230469 167.242188 C 270.488281 166.953125 271.71875 166.648438 272.9375 166.34375 L 272.9375 188.144531 C 271.71875 188.457031 270.488281 188.765625 269.230469 189.066406" fill="#e98b1b"/></g><g id="change3_184"><path d="M 262.933594 190.433594 L 262.933594 168.59375 C 264.183594 168.34375 265.421875 168.09375 266.636719 167.820312 L 266.636719 189.648438 C 265.421875 189.925781 264.183594 190.179688 262.933594 190.433594" fill="#e98b1b"/></g><g id="change3_185"><path d="M 256.640625 191.625 L 256.640625 169.765625 C 257.894531 169.550781 259.113281 169.328125 260.34375 169.097656 L 260.34375 190.957031 C 259.128906 191.1875 257.890625 191.410156 256.640625 191.625" fill="#e98b1b"/></g><g id="change3_186"><path d="M 250.34375 192.636719 L 250.34375 170.75 C 251.589844 170.570312 252.820312 170.382812 254.046875 170.183594 L 254.046875 192.0625 C 252.820312 192.253906 251.589844 192.453125 250.34375 192.636719" fill="#e98b1b"/></g><g id="change3_187"><path d="M 165.726562 192.636719 C 164.484375 192.453125 163.25 192.253906 162.027344 192.0625 L 162.027344 170.183594 C 163.25 170.382812 164.484375 170.570312 165.726562 170.75 L 165.726562 192.636719" fill="#e98b1b"/></g><g id="change3_188"><path d="M 159.429688 191.625 C 158.1875 191.410156 156.945312 191.1875 155.726562 190.957031 L 155.726562 169.097656 C 156.953125 169.328125 158.183594 169.550781 159.429688 169.765625 L 159.429688 191.625" fill="#e98b1b"/></g><g id="change3_189"><path d="M 153.136719 190.433594 C 151.886719 190.179688 150.652344 189.925781 149.4375 189.648438 L 149.4375 167.820312 C 150.652344 168.09375 151.886719 168.34375 153.136719 168.59375 L 153.136719 190.433594" fill="#e98b1b"/></g><g id="change3_190"><path d="M 146.84375 189.066406 C 145.578125 188.765625 144.351562 188.457031 143.136719 188.144531 L 143.136719 166.34375 C 144.351562 166.648438 145.578125 166.953125 146.84375 167.242188 L 146.84375 189.066406" fill="#e98b1b"/></g><g id="change3_191"><path d="M 140.542969 187.453125 C 139.28125 187.109375 138.050781 186.757812 136.84375 186.398438 L 136.84375 164.648438 C 138.046875 165.003906 139.289062 165.339844 140.542969 165.675781 L 140.542969 187.453125" fill="#e98b1b"/></g><g id="change3_192"><path d="M 197.210938 195.414062 C 195.972656 195.371094 194.742188 195.3125 193.511719 195.261719 L 193.511719 173.335938 C 194.742188 173.386719 195.972656 173.449219 197.210938 173.488281 L 197.210938 195.414062" fill="#e98b1b"/></g><g id="change3_193"><path d="M 190.917969 195.136719 C 189.675781 195.066406 188.441406 194.992188 187.214844 194.902344 L 187.214844 172.984375 C 188.441406 173.058594 189.675781 173.152344 190.917969 173.21875 L 190.917969 195.136719" fill="#e98b1b"/></g><g id="change3_194"><path d="M 203.511719 195.570312 C 202.269531 195.542969 201.035156 195.511719 199.8125 195.488281 L 199.8125 173.5625 C 201.035156 173.589844 202.269531 173.621094 203.511719 173.632812 L 203.511719 195.570312" fill="#e98b1b"/></g><g id="change3_195"><path d="M 208.035156 195.609375 C 207.390625 195.609375 206.753906 195.589844 206.101562 195.589844 L 206.101562 173.65625 C 206.753906 173.664062 207.390625 173.679688 208.035156 173.679688 C 208.628906 173.679688 209.21875 173.667969 209.808594 173.664062 L 209.808594 195.589844 C 209.21875 195.589844 208.628906 195.609375 208.035156 195.609375" fill="#e98b1b"/></g><g id="change3_196"><path d="M 212.402344 195.570312 L 212.402344 173.632812 C 213.644531 173.628906 214.875 173.597656 216.105469 173.5625 L 216.105469 195.492188 C 214.875 195.519531 213.644531 195.542969 212.402344 195.570312" fill="#e98b1b"/></g><g id="change3_197"><path d="M 218.699219 195.421875 L 218.699219 173.496094 C 219.9375 173.449219 221.171875 173.398438 222.398438 173.34375 L 222.398438 195.265625 C 221.171875 195.324219 219.9375 195.382812 218.699219 195.421875" fill="#e98b1b"/></g><g id="change3_198"><path d="M 224.996094 195.144531 L 224.996094 173.226562 C 226.242188 173.15625 227.472656 173.074219 228.699219 172.996094 L 228.699219 194.914062 C 227.472656 194.992188 226.242188 195.082031 224.996094 195.144531" fill="#e98b1b"/></g><g id="change3_199"><path d="M 231.296875 194.726562 L 231.296875 172.820312 C 232.535156 172.722656 233.769531 172.621094 234.992188 172.519531 L 234.992188 194.429688 C 233.773438 194.542969 232.535156 194.636719 231.296875 194.726562" fill="#e98b1b"/></g><g id="change3_200"><path d="M 237.585938 194.179688 L 237.585938 172.277344 C 238.828125 172.152344 240.070312 172.039062 241.296875 171.898438 L 241.296875 193.792969 C 240.070312 193.9375 238.828125 194.058594 237.585938 194.179688" fill="#e98b1b"/></g><g id="change3_201"><path d="M 243.890625 193.492188 L 243.890625 171.597656 C 245.128906 171.445312 246.367188 171.289062 247.585938 171.125 L 247.585938 193.023438 C 246.367188 193.1875 245.128906 193.339844 243.890625 193.492188" fill="#e98b1b"/></g><g id="change3_202"><path d="M 184.617188 194.714844 C 183.382812 194.625 182.140625 194.527344 180.917969 194.417969 L 180.917969 172.503906 C 182.140625 172.613281 183.382812 172.710938 184.617188 172.804688 L 184.617188 194.714844" fill="#e98b1b"/></g><g id="change3_203"><path d="M 178.316406 194.164062 C 177.078125 194.042969 175.839844 193.917969 174.625 193.785156 L 174.625 171.882812 C 175.839844 172.019531 177.078125 172.136719 178.316406 172.257812 L 178.316406 194.164062" fill="#e98b1b"/></g><g id="change3_204"><path d="M 172.023438 193.472656 C 170.78125 193.320312 169.550781 193.15625 168.320312 192.996094 L 168.320312 171.109375 C 169.542969 171.273438 170.78125 171.425781 172.023438 171.578125 L 172.023438 193.472656" fill="#e98b1b"/></g><g id="change3_205"><path d="M 134.238281 185.597656 C 132.976562 185.207031 131.742188 184.792969 130.539062 184.371094 L 130.539062 162.648438 C 131.742188 163.066406 132.980469 163.464844 134.238281 163.851562 L 134.238281 185.597656" fill="#e98b1b"/></g><g id="change3_206"><path d="M 127.597656 183.296875 C 126.449219 182.863281 125.328125 182.421875 124.246094 181.96875 L 124.246094 160.335938 C 125.445312 160.8125 126.679688 161.285156 127.941406 161.742188 L 127.941406 182.933594 C 127.941406 183.066406 127.800781 183.191406 127.597656 183.296875" fill="#e98b1b"/></g><g id="change3_207"><path d="M 120.695312 180.433594 C 119.75 179.996094 118.839844 179.558594 117.945312 179.105469 L 117.945312 157.574219 C 119.140625 158.152344 120.371094 158.714844 121.648438 159.269531 L 121.648438 179.875 C 121.648438 180.113281 121.253906 180.308594 120.695312 180.433594" fill="#e98b1b"/></g><g id="change3_208"><path d="M 114.582031 177.320312 C 113.5625 176.75 112.582031 176.167969 111.652344 175.570312 L 111.652344 154.191406 C 112.828125 154.902344 114.046875 155.605469 115.351562 156.289062 L 115.351562 176.8125 C 115.351562 177.019531 115.035156 177.203125 114.582031 177.320312" fill="#e98b1b"/></g><g id="change3_209"><path d="M 109.027344 173.796875 C 107.683594 172.820312 106.46875 171.824219 105.347656 170.8125 L 105.347656 149.8125 C 106.480469 150.738281 107.730469 151.652344 109.058594 152.542969 L 109.058594 173.75 L 109.027344 173.796875" fill="#e98b1b"/></g><g id="change3_210"><path d="M 102.761719 168.179688 C 101.09375 166.253906 99.855469 164.269531 99.058594 162.234375 L 99.058594 142.878906 C 100.03125 144.433594 101.269531 145.964844 102.761719 147.453125 L 102.761719 168.179688" fill="#e98b1b"/></g><g id="change1_13"><path d="M 335.003906 121.046875 L 335.003906 97.621094 L 111.769531 97.621094 L 111.769531 121.046875 C 111.769531 142.746094 161.742188 160.335938 223.386719 160.335938 C 285.027344 160.335938 335.003906 142.746094 335.003906 121.046875" fill="#f89e19"/></g><g id="change2_7"><path d="M 223.386719 135.183594 C 161.742188 135.183594 111.769531 117.59375 111.769531 95.898438 C 111.769531 74.199219 161.742188 56.617188 223.386719 56.617188 C 285.027344 56.617188 335.003906 74.199219 335.003906 95.898438 C 335.003906 117.59375 285.027344 135.183594 223.386719 135.183594" fill="#f5c116"/></g><g id="change1_14"><path d="M 230.105469 111.234375 C 234.574219 110.941406 238.222656 110.210938 241.035156 109.046875 C 243.835938 107.878906 245.238281 106.503906 245.238281 104.929688 C 245.238281 103.523438 244.066406 102.304688 241.699219 101.292969 C 239.339844 100.269531 235.488281 99.480469 230.105469 98.9375 Z M 217.113281 77.699219 C 213.597656 78.113281 210.785156 78.828125 208.699219 79.835938 C 206.609375 80.847656 205.5625 81.957031 205.5625 83.179688 C 205.5625 84.300781 206.515625 85.328125 208.425781 86.28125 C 210.339844 87.242188 213.230469 88.011719 217.113281 88.597656 Z M 217.113281 110.796875 L 217.113281 97.585938 C 205.410156 96.402344 196.835938 94.628906 191.359375 92.234375 C 185.90625 89.855469 183.171875 86.960938 183.171875 83.554688 C 183.171875 80.109375 186.265625 77.210938 192.441406 74.867188 C 198.617188 72.527344 206.84375 71.175781 217.113281 70.820312 L 217.113281 67.699219 L 230.105469 67.699219 L 230.105469 70.820312 C 239.597656 71.21875 247.140625 72.359375 252.761719 74.242188 C 258.382812 76.117188 261.964844 78.636719 263.507812 81.789062 L 240.855469 82.835938 C 239.480469 80.347656 235.890625 78.671875 230.105469 77.792969 L 230.105469 90.109375 C 244.4375 91.476562 254.203125 93.246094 259.394531 95.421875 C 264.585938 97.601562 267.183594 100.386719 267.183594 103.792969 C 267.183594 107.601562 263.910156 110.800781 257.386719 113.402344 C 250.839844 116.015625 241.746094 117.609375 230.105469 118.203125 L 230.105469 124.09375 L 217.113281 124.09375 L 217.113281 118.359375 C 206.785156 117.917969 198.394531 116.566406 191.941406 114.289062 C 185.5 112.019531 181.382812 108.816406 179.589844 104.679688 L 202.960938 103.792969 C 203.921875 105.476562 205.707031 106.921875 208.339844 108.148438 C 210.960938 109.359375 213.890625 110.242188 217.113281 110.796875" fill="#f89e19"/></g><g id="change3_211"><path d="M 322.394531 136.789062 L 322.359375 136.734375 L 322.359375 115.539062 C 323.6875 114.636719 324.9375 113.730469 326.066406 112.796875 L 326.066406 133.792969 C 324.949219 134.808594 323.738281 135.804688 322.394531 136.789062" fill="#e98b1b"/></g><g id="change3_212"><path d="M 316.835938 140.308594 C 316.386719 140.1875 316.066406 140.007812 316.066406 139.792969 L 316.066406 119.277344 C 317.371094 118.597656 318.59375 117.890625 319.773438 117.183594 L 319.773438 138.554688 C 318.839844 139.152344 317.855469 139.734375 316.835938 140.308594" fill="#e98b1b"/></g><g id="change3_213"><path d="M 328.664062 131.164062 L 328.664062 110.441406 C 330.152344 108.953125 331.386719 107.425781 332.359375 105.867188 L 332.359375 125.222656 C 331.5625 127.25 330.328125 129.242188 328.664062 131.164062" fill="#e98b1b"/></g><g id="change3_214"><path d="M 310.722656 143.421875 C 310.167969 143.304688 309.769531 143.097656 309.769531 142.855469 L 309.769531 122.257812 C 311.050781 121.699219 312.277344 121.140625 313.476562 120.5625 L 313.476562 142.089844 C 312.578125 142.542969 311.664062 142.980469 310.722656 143.421875" fill="#e98b1b"/></g><g id="change3_215"><path d="M 303.820312 146.28125 C 303.617188 146.179688 303.476562 146.058594 303.476562 145.921875 L 303.476562 124.730469 C 304.742188 124.269531 305.972656 123.796875 307.175781 123.320312 L 307.175781 144.953125 C 306.082031 145.40625 304.96875 145.851562 303.820312 146.28125" fill="#e98b1b"/></g><g id="change3_216"><path d="M 297.183594 148.59375 L 297.183594 126.835938 C 298.4375 126.453125 299.675781 126.050781 300.882812 125.636719 L 300.882812 147.355469 C 299.675781 147.777344 298.4375 148.191406 297.183594 148.59375" fill="#e98b1b"/></g><g id="change3_217"><path d="M 290.878906 150.441406 L 290.878906 128.660156 C 292.132812 128.332031 293.371094 127.984375 294.578125 127.632812 L 294.578125 149.382812 C 293.367188 149.746094 292.140625 150.101562 290.878906 150.441406" fill="#e98b1b"/></g><g id="change3_218"><path d="M 284.578125 152.054688 L 284.578125 130.234375 C 285.835938 129.933594 287.0625 129.632812 288.285156 129.328125 L 288.285156 151.128906 C 287.0625 151.449219 285.835938 151.757812 284.578125 152.054688" fill="#e98b1b"/></g><g id="change3_219"><path d="M 278.285156 153.417969 L 278.285156 131.578125 C 279.535156 131.332031 280.769531 131.078125 281.984375 130.808594 L 281.984375 152.636719 C 280.769531 152.910156 279.535156 153.171875 278.285156 153.417969" fill="#e98b1b"/></g><g id="change3_220"><path d="M 271.992188 154.613281 L 271.992188 132.75 C 273.238281 132.535156 274.464844 132.3125 275.691406 132.085938 L 275.691406 153.941406 C 274.476562 154.175781 273.230469 154.398438 271.992188 154.613281" fill="#e98b1b"/></g><g id="change3_221"><path d="M 265.691406 155.621094 L 265.691406 133.734375 C 266.9375 133.554688 268.167969 133.363281 269.394531 133.175781 L 269.394531 155.046875 C 268.167969 155.234375 266.9375 155.4375 265.691406 155.621094" fill="#e98b1b"/></g><g id="change3_222"><path d="M 181.078125 155.621094 C 179.832031 155.4375 178.601562 155.234375 177.371094 155.046875 L 177.371094 133.175781 C 178.601562 133.363281 179.832031 133.554688 181.078125 133.734375 L 181.078125 155.621094" fill="#e98b1b"/></g><g id="change3_223"><path d="M 174.777344 154.613281 C 173.535156 154.398438 172.296875 154.175781 171.078125 153.941406 L 171.078125 132.085938 C 172.308594 132.3125 173.53125 132.535156 174.777344 132.75 L 174.777344 154.613281" fill="#e98b1b"/></g><g id="change3_224"><path d="M 168.484375 153.417969 C 167.230469 153.171875 166.003906 152.910156 164.78125 152.636719 L 164.78125 130.808594 C 166.003906 131.078125 167.230469 131.332031 168.484375 131.578125 L 168.484375 153.417969" fill="#e98b1b"/></g><g id="change3_225"><path d="M 162.1875 152.054688 C 160.933594 151.757812 159.699219 151.449219 158.484375 151.128906 L 158.484375 129.328125 C 159.699219 129.632812 160.933594 129.933594 162.1875 130.234375 L 162.1875 152.054688" fill="#e98b1b"/></g><g id="change3_226"><path d="M 155.890625 150.441406 C 154.632812 150.101562 153.398438 149.746094 152.191406 149.382812 L 152.191406 127.632812 C 153.394531 127.984375 154.636719 128.332031 155.890625 128.660156 L 155.890625 150.441406" fill="#e98b1b"/></g><g id="change3_227"><path d="M 212.5625 158.398438 C 211.316406 158.355469 210.09375 158.296875 208.859375 158.246094 L 208.859375 136.320312 C 210.09375 136.382812 211.316406 136.4375 212.5625 136.476562 L 212.5625 158.398438" fill="#e98b1b"/></g><g id="change3_228"><path d="M 206.261719 158.125 C 205.023438 158.054688 203.789062 157.976562 202.566406 157.894531 L 202.566406 135.96875 C 203.789062 136.050781 205.023438 136.136719 206.261719 136.210938 L 206.261719 158.125" fill="#e98b1b"/></g><g id="change3_229"><path d="M 218.859375 158.554688 C 217.617188 158.535156 216.386719 158.507812 215.160156 158.472656 L 215.160156 136.550781 C 216.386719 136.578125 217.617188 136.601562 218.859375 136.628906 L 218.859375 158.554688" fill="#e98b1b"/></g><g id="change3_230"><path d="M 223.386719 158.59375 C 222.738281 158.59375 222.101562 158.578125 221.453125 158.578125 L 221.453125 136.644531 C 222.101562 136.648438 222.738281 136.664062 223.386719 136.664062 C 223.980469 136.664062 224.566406 136.652344 225.152344 136.648438 L 225.152344 158.578125 C 224.566406 158.578125 223.980469 158.59375 223.386719 158.59375" fill="#e98b1b"/></g><g id="change3_231"><path d="M 227.757812 158.554688 L 227.757812 136.628906 C 228.992188 136.609375 230.21875 136.582031 231.457031 136.554688 L 231.457031 158.476562 C 230.21875 158.507812 228.992188 158.535156 227.757812 158.554688" fill="#e98b1b"/></g><g id="change3_232"><path d="M 234.046875 158.40625 L 234.046875 136.484375 C 235.292969 136.441406 236.519531 136.382812 237.746094 136.324219 L 237.746094 158.253906 C 236.519531 158.308594 235.292969 158.371094 234.046875 158.40625" fill="#e98b1b"/></g><g id="change3_233"><path d="M 240.347656 158.128906 L 240.347656 136.214844 C 241.589844 136.144531 242.816406 136.058594 244.046875 135.980469 L 244.046875 157.902344 C 242.816406 157.980469 241.589844 158.070312 240.347656 158.128906" fill="#e98b1b"/></g><g id="change3_234"><path d="M 246.644531 157.71875 L 246.644531 135.804688 C 247.882812 135.707031 249.113281 135.609375 250.34375 135.503906 L 250.34375 157.417969 C 249.121094 157.527344 247.882812 157.628906 246.644531 157.71875" fill="#e98b1b"/></g><g id="change3_235"><path d="M 252.9375 157.164062 L 252.9375 135.257812 C 254.175781 135.136719 255.425781 135.023438 256.640625 134.890625 L 256.640625 156.789062 C 255.425781 156.929688 254.175781 157.042969 252.9375 157.164062" fill="#e98b1b"/></g><g id="change3_236"><path d="M 259.238281 156.476562 L 259.238281 134.585938 C 260.480469 134.433594 261.714844 134.28125 262.933594 134.117188 L 262.933594 156.007812 C 261.714844 156.171875 260.480469 156.324219 259.238281 156.476562" fill="#e98b1b"/></g><g id="change3_237"><path d="M 199.96875 157.703125 C 198.730469 157.609375 197.492188 157.511719 196.265625 157.402344 L 196.265625 135.492188 C 197.492188 135.597656 198.730469 135.699219 199.96875 135.789062 L 199.96875 157.703125" fill="#e98b1b"/></g><g id="change3_238"><path d="M 193.675781 157.144531 C 192.429688 157.035156 191.191406 156.898438 189.972656 156.769531 L 189.972656 134.867188 C 191.191406 135.007812 192.429688 135.125 193.675781 135.246094 L 193.675781 157.144531" fill="#e98b1b"/></g><g id="change3_239"><path d="M 187.371094 156.460938 C 186.128906 156.304688 184.898438 156.148438 183.671875 155.984375 L 183.671875 134.097656 C 184.898438 134.265625 186.128906 134.414062 187.371094 134.5625 L 187.371094 156.460938" fill="#e98b1b"/></g><g id="change3_240"><path d="M 149.589844 148.59375 C 148.332031 148.191406 147.09375 147.777344 145.890625 147.355469 L 145.890625 125.636719 C 147.09375 126.050781 148.332031 126.453125 149.589844 126.835938 L 149.589844 148.59375" fill="#e98b1b"/></g><g id="change3_241"><path d="M 142.949219 146.28125 C 141.800781 145.851562 140.6875 145.40625 139.597656 144.953125 L 139.597656 123.320312 C 140.796875 123.796875 142.03125 124.269531 143.292969 124.730469 L 143.292969 145.921875 C 143.292969 146.058594 143.148438 146.179688 142.949219 146.28125" fill="#e98b1b"/></g><g id="change3_242"><path d="M 136.050781 143.421875 C 135.101562 142.980469 134.191406 142.542969 133.296875 142.089844 L 133.296875 120.5625 C 134.488281 121.140625 135.722656 121.699219 136.996094 122.257812 L 136.996094 142.855469 C 136.996094 143.097656 136.601562 143.304688 136.050781 143.421875" fill="#e98b1b"/></g><g id="change3_243"><path d="M 129.929688 140.308594 C 128.914062 139.734375 127.929688 139.152344 127 138.554688 L 127 117.183594 C 128.175781 117.890625 129.402344 118.597656 130.703125 119.277344 L 130.703125 139.792969 C 130.703125 140.007812 130.386719 140.1875 129.929688 140.308594" fill="#e98b1b"/></g><g id="change3_244"><path d="M 124.375 136.789062 C 123.027344 135.804688 121.816406 134.808594 120.695312 133.792969 L 120.695312 112.796875 C 121.828125 113.730469 123.082031 114.636719 124.410156 115.539062 L 124.410156 136.734375 L 124.375 136.789062" fill="#e98b1b"/></g><g id="change3_245"><path d="M 118.109375 131.164062 C 116.441406 129.242188 115.207031 127.253906 114.402344 125.222656 L 114.402344 105.867188 C 115.386719 107.425781 116.617188 108.953125 118.109375 110.441406 L 118.109375 131.164062" fill="#e98b1b"/></g></g></svg>