<?xml version="1.0" encoding="UTF-8"?><svg xmlns="http://www.w3.org/2000/svg" xmlns:xlink="http://www.w3.org/1999/xlink" height="468.8" preserveAspectRatio="xMidYMid meet" version="1.0" viewBox="15.6 15.6 468.8 468.8" width="468.8" zoomAndPan="magnify"><g data-name="08-Monetization"><g id="change1_1"><path d="M39.06,23.44A15.59,15.59,0,0,0,23.44,39.06v78.13H476.56V39.06a15.59,15.59,0,0,0-15.62-15.62Z" fill="#68b1fc"/></g><g id="change2_1"><path d="M476.56,460.94a15.59,15.59,0,0,1-15.62,15.62H39.06a15.59,15.59,0,0,1-15.62-15.62V117.19H476.56ZM85.94,70.31A15.62,15.62,0,0,0,70.31,54.69h0A15.62,15.62,0,0,0,54.69,70.31h0A15.62,15.62,0,0,0,70.31,85.94h0A15.63,15.63,0,0,0,85.94,70.31Zm62.5,0a15.62,15.62,0,0,0-15.63-15.62h0a15.62,15.62,0,0,0-15.62,15.62h0a15.62,15.62,0,0,0,15.62,15.63h0a15.63,15.63,0,0,0,15.63-15.63Zm62.5,0a15.62,15.62,0,0,0-15.63-15.62h0a15.62,15.62,0,0,0-15.62,15.62h0a15.62,15.62,0,0,0,15.62,15.63h0a15.63,15.63,0,0,0,15.63-15.63Zm78.12,15.63H445.31V54.69H289.06Z" fill="#e7eaef"/></g><g id="change3_1"><path d="M382.81,296.87A132.81,132.81,0,0,1,250,429.69h0A132.81,132.81,0,0,1,117.19,296.87h0A132.81,132.81,0,0,1,250,164.06h0A132.81,132.81,0,0,1,382.81,296.87Z" fill="#f7f065"/></g><g id="change4_1"><path d="M351.56,296.87A101.56,101.56,0,0,1,250,398.44h0A101.56,101.56,0,0,1,148.44,296.87h0A101.56,101.56,0,0,1,250,195.31h0A101.56,101.56,0,0,1,351.56,296.87Z" fill="#fcb860"/></g><g id="change5_1"><path d="M460.94,15.62H39.06A23.47,23.47,0,0,0,15.62,39.06v125a7.82,7.82,0,0,0,15.63,0V125h437.5V460.94a7.83,7.83,0,0,1-7.81,7.81H39.06a7.83,7.83,0,0,1-7.81-7.81V195.31a7.82,7.82,0,0,0-15.63,0V460.94a23.46,23.46,0,0,0,23.44,23.43H460.94a23.46,23.46,0,0,0,23.44-23.43V39.06A23.47,23.47,0,0,0,460.94,15.62ZM31.25,109.37V39.06a7.83,7.83,0,0,1,7.81-7.81H460.94a7.83,7.83,0,0,1,7.81,7.81v70.31Zm39.06-62.5A23.44,23.44,0,1,0,93.75,70.31,23.46,23.46,0,0,0,70.31,46.87Zm0,31.25a7.81,7.81,0,1,1,7.81-7.81A7.82,7.82,0,0,1,70.31,78.12Zm62.5-31.25a23.44,23.44,0,1,0,23.44,23.44A23.46,23.46,0,0,0,132.81,46.87Zm0,31.25a7.81,7.81,0,1,1,7.81-7.81A7.82,7.82,0,0,1,132.81,78.12Zm62.5-31.25a23.44,23.44,0,1,0,23.44,23.44A23.46,23.46,0,0,0,195.31,46.87Zm0,31.25a7.81,7.81,0,1,1,7.81-7.81A7.82,7.82,0,0,1,195.31,78.12Zm250-31.25H289.06a7.82,7.82,0,0,0-7.81,7.82V85.94a7.81,7.81,0,0,0,7.81,7.81H445.31a7.81,7.81,0,0,0,7.81-7.81V54.69A7.81,7.81,0,0,0,445.31,46.87ZM437.5,78.12H296.88V62.5H437.5ZM234.38,273.44A15.63,15.63,0,0,0,250,289.06a31.18,31.18,0,0,1,7.81,61.39v16.74a7.81,7.81,0,1,1-15.62,0V350.45a31.22,31.22,0,0,1-23.44-30.14,7.82,7.82,0,0,1,15.63,0A15.62,15.62,0,1,0,250,304.69a31.18,31.18,0,0,1-7.81-61.39V226.56a7.81,7.81,0,0,1,15.62,0V243.3a31.22,31.22,0,0,1,23.44,30.14,7.82,7.82,0,0,1-15.63,0,15.62,15.62,0,1,0-31.24,0ZM250,187.5A109.38,109.38,0,1,0,359.38,296.87,109.5,109.5,0,0,0,250,187.5Zm0,203.12a93.75,93.75,0,1,1,93.75-93.75A93.85,93.85,0,0,1,250,390.62Zm98.27-4.13a7.81,7.81,0,0,1-1.15-11A123.56,123.56,0,0,0,375,296.87a125,125,0,1,0-125,125A123.82,123.82,0,0,0,326,396a7.81,7.81,0,1,1,9.51,12.39A139.25,139.25,0,0,1,250,437.5c-77.54,0-140.62-63.08-140.62-140.63S172.46,156.25,250,156.25s140.62,63.08,140.62,140.62a140.92,140.92,0,0,1-31.36,88.47A7.81,7.81,0,0,1,348.27,386.49Z" fill="inherit"/></g></g></svg>