<?xml version="1.0" encoding="UTF-8"?><svg xmlns="http://www.w3.org/2000/svg" xmlns:xlink="http://www.w3.org/1999/xlink" height="581.2" preserveAspectRatio="xMidYMid meet" version="1.0" viewBox="-0.7 -1.1 316.3 581.2" width="316.3" zoomAndPan="magnify"><defs><clipPath id="a"><path d="M 70 565 L 234 565 L 234 580.070312 L 70 580.070312 Z M 70 565"/></clipPath><clipPath id="b"><path d="M 261 186 L 315.628906 186 L 315.628906 240 L 261 240 Z M 261 186"/></clipPath></defs><g><g><path d="M 190.152344 544.164062 C 192.144531 544.171875 194.15625 544.019531 196.128906 544.234375 C 198.511719 544.492188 199.097656 543.6875 199.09375 541.296875 C 199.027344 486.570312 199.050781 431.847656 199.058594 377.121094 C 199.730469 376.433594 200.410156 375.746094 201.074219 375.050781 C 212.882812 362.652344 213.667969 346.738281 203.117188 333.863281 C 198.425781 328.136719 192.558594 323.902344 185.96875 320.671875 C 170.414062 313.039062 153.933594 311.070312 136.914062 313.171875 C 123.339844 314.851562 110.757812 319.234375 100.0625 328.105469 C 83.09375 342.179688 82.550781 362.402344 98.738281 377.308594 C 100.433594 378.871094 102.304688 380.246094 104.09375 381.710938 C 104.085938 383.574219 104.074219 385.441406 104.074219 387.308594 C 104.070312 438.835938 104.066406 490.363281 104.058594 541.894531 C 104.058594 543.132812 103.824219 544.230469 105.816406 544.226562 C 133.925781 544.160156 162.039062 544.171875 190.152344 544.164062 Z M 220.339844 309.101562 C 220.351562 316.300781 220.367188 323.503906 220.367188 330.703125 C 220.382812 407.992188 220.394531 485.28125 220.417969 562.570312 C 220.417969 563.394531 220.554688 564.21875 220.632812 565.042969 C 214.648438 565.042969 208.667969 565.039062 202.683594 565.039062 C 159.269531 565.027344 115.851562 565.015625 72.433594 565.007812 C 72.429688 520.8125 72.421875 476.617188 72.421875 432.421875 C 72.425781 391.316406 72.4375 350.207031 72.445312 309.101562 C 121.742188 309.101562 171.042969 309.101562 220.339844 309.101562" fill="#b15e06"/></g><g><path d="M 72.445312 309.101562 C 72.4375 350.207031 72.425781 391.316406 72.421875 432.421875 C 72.421875 476.617188 72.429688 520.8125 72.433594 565.007812 L 72.414062 565.046875 C 70.578125 564.539062 68.710938 564.125 66.914062 563.507812 C 54.390625 559.191406 41.863281 554.863281 29.386719 550.410156 C 28.597656 550.128906 27.851562 548.789062 27.695312 547.839844 C 27.328125 545.609375 27.328125 543.320312 27.183594 541.054688 C 27.285156 540.304688 27.476562 539.554688 27.476562 538.804688 C 27.492188 469.625 27.484375 400.445312 27.527344 331.265625 C 27.527344 329.636719 27.214844 329.039062 25.441406 329.085938 C 22.605469 329.164062 19.757812 328.890625 16.917969 328.769531 C 19.875 328.765625 22.84375 328.871094 25.789062 328.679688 C 26.4375 328.636719 27.542969 327.527344 27.535156 326.921875 C 27.503906 325.097656 28.078125 324.273438 29.890625 323.648438 C 41.535156 319.632812 53.117188 315.429688 64.742188 311.351562 C 67.265625 310.464844 69.875 309.84375 72.445312 309.101562" fill="#934e04"/></g><g><path d="M 111.492188 123.796875 C 107.324219 123.796875 103.152344 123.789062 98.984375 123.808594 C 98.570312 123.8125 98.152344 123.96875 97.738281 124.050781 C 97.90625 124.441406 97.96875 124.992188 98.265625 125.195312 C 99.195312 125.820312 100.195312 126.75 101.199219 126.789062 C 105.554688 126.964844 109.921875 126.867188 114.28125 126.867188 C 116.914062 126.871094 119.574219 127.113281 122.15625 126.757812 C 123.175781 126.617188 124.011719 125.148438 124.929688 124.285156 C 124.171875 124.121094 123.414062 123.828125 122.652344 123.820312 C 118.933594 123.769531 115.210938 123.796875 111.492188 123.796875 Z M 129.371094 72.804688 C 129.21875 76.597656 132.261719 79.871094 136.101562 80.046875 C 139.851562 80.21875 143.199219 77.148438 143.410156 73.347656 C 143.617188 69.546875 140.453125 66.148438 136.550781 65.984375 C 132.820312 65.832031 129.527344 68.957031 129.371094 72.804688 Z M 86.96875 78.976562 C 90.796875 78.984375 93.96875 75.84375 93.996094 72.019531 C 94.023438 68.21875 90.871094 65.011719 87.058594 64.960938 C 83.179688 64.910156 79.890625 68.164062 79.917969 72.023438 C 79.941406 75.816406 83.140625 78.972656 86.96875 78.976562 Z M 134.765625 58 C 133.171875 58.519531 130.136719 59.441406 127.152344 60.503906 C 124.914062 61.296875 123.253906 62.859375 124.421875 65.320312 C 125.640625 67.882812 127.808594 67.15625 129.878906 66.09375 C 134.023438 63.964844 138.195312 63.53125 142.304688 66.238281 C 143.214844 66.839844 144.066406 67.8125 145.042969 67.957031 C 146.464844 68.164062 147.976562 67.777344 149.449219 67.644531 C 149.257812 66.207031 149.59375 64.246094 148.78125 63.425781 C 145.425781 60.050781 141.226562 58.21875 134.765625 58 Z M 88.785156 56.882812 C 82.195312 57.09375 77.980469 59.074219 74.449219 62.292969 C 73.671875 63 73.414062 65.476562 74.023438 66.1875 C 74.746094 67.023438 77.207031 67.550781 77.984375 66.964844 C 83.382812 62.914062 88.769531 62.085938 94.835938 65.496094 C 95.722656 65.996094 97.574219 64.777344 98.980469 64.355469 C 98.550781 62.960938 98.519531 60.773438 97.617188 60.320312 C 94.351562 58.679688 90.789062 57.625 88.785156 56.882812 Z M 110.449219 99.445312 C 116.738281 99.445312 123.714844 94.441406 125.203125 89.671875 C 125.511719 88.6875 125.175781 86.808594 124.492188 86.386719 C 123.679688 85.882812 121.96875 86.160156 121.015625 86.722656 C 119.796875 87.441406 118.835938 88.699219 117.953125 89.871094 C 114.46875 94.5 110.835938 94.878906 106.597656 90.96875 C 105.148438 89.628906 103.84375 88.066406 102.199219 87.042969 C 101.332031 86.503906 99.34375 86.421875 98.824219 86.996094 C 98.148438 87.746094 97.855469 89.742188 98.390625 90.539062 C 101.625 95.359375 105.789062 98.988281 110.449219 99.445312 Z M 125.761719 113.734375 C 125.09375 113.230469 124.425781 112.296875 123.746094 112.285156 C 116.773438 112.179688 109.796875 112.21875 102.816406 112.21875 C 97.847656 112.21875 97.847656 112.21875 97.46875 117.109375 C 97.433594 114.125 97.417969 111.117188 92.949219 112.324219 C 92.320312 112.496094 91.238281 112.578125 91.160156 112.894531 C 91 113.539062 91.207031 114.433594 91.578125 115.023438 C 93.078125 117.410156 94.617188 119.789062 96.332031 122.023438 C 96.882812 122.738281 98.023438 123.378906 98.910156 123.398438 C 104.558594 123.523438 110.273438 122.925781 115.839844 123.597656 C 123.023438 124.460938 128.035156 122.300781 130.953125 115.636719 C 131.347656 114.742188 131.558594 113.769531 131.855469 112.828125 C 130.191406 112.660156 128.53125 112.402344 126.871094 112.394531 C 126.503906 112.390625 126.132812 113.265625 125.761719 113.734375 Z M 167.40625 70.054688 C 173.226562 75.144531 173.148438 82.257812 166.816406 86.683594 C 163.867188 88.746094 163.527344 91.628906 162.734375 94.519531 C 158.554688 109.746094 151.660156 123.496094 140.3125 134.675781 C 137.332031 137.613281 133.84375 140.152344 130.257812 142.324219 C 128.097656 143.632812 127.207031 144.960938 127.558594 147.308594 C 127.449219 147.3125 127.34375 147.328125 127.238281 147.355469 C 127.097656 147.359375 126.953125 147.359375 126.808594 147.359375 C 122.703125 147.585938 118.597656 147.8125 114.492188 148.035156 C 111.832031 147.871094 108.976562 148.269531 106.546875 147.429688 C 100.613281 145.386719 94.882812 142.773438 89.070312 140.386719 C 86.347656 137.867188 83.484375 135.484375 80.925781 132.804688 C 69.542969 120.890625 62.820312 106.511719 58.886719 90.675781 C 58.667969 89.800781 57.980469 88.859375 57.242188 88.328125 C 50.320312 83.375 47.789062 76.609375 55.058594 69.726562 C 57.550781 70.734375 59.078125 69.398438 59.578125 67.28125 C 60.371094 63.9375 60.710938 60.484375 61.214844 57.070312 C 62.007812 51.699219 62.699219 46.308594 63.597656 40.953125 C 63.960938 38.78125 66.558594 37.332031 67.964844 38.023438 C 70.207031 39.132812 72.472656 40.457031 74.875 40.921875 C 84.097656 42.707031 93.320312 44.800781 102.648438 45.640625 C 117.242188 46.960938 131.691406 45.035156 145.882812 41.40625 C 148.53125 40.730469 151.300781 40.1875 153.699219 38.964844 C 156.492188 37.539062 158.636719 38.222656 159.246094 41.425781 C 159.558594 43.058594 159.824219 44.703125 160.050781 46.347656 C 160.976562 53.058594 161.789062 59.785156 162.839844 66.476562 C 163.207031 68.835938 164.640625 70.453125 167.40625 70.054688" fill="#fcceb2"/></g><g><path d="M 72.445312 309.101562 C 69.875 309.84375 67.265625 310.464844 64.742188 311.351562 C 53.117188 315.429688 41.535156 319.632812 29.890625 323.648438 C 28.078125 324.273438 27.503906 325.097656 27.535156 326.921875 C 27.542969 327.527344 26.4375 328.636719 25.789062 328.679688 C 22.84375 328.871094 19.875 328.765625 16.917969 328.769531 C 16.902344 318.605469 16.886719 308.445312 16.875 298.285156 C 31.429688 291.769531 45.96875 285.21875 60.546875 278.753906 C 64.445312 277.023438 68.457031 275.542969 72.417969 273.945312 C 126.050781 273.945312 179.683594 273.945312 233.316406 273.945312 C 233.34375 285.191406 233.382812 296.4375 233.324219 307.683594 C 233.324219 308.121094 232.414062 308.921875 231.902344 308.9375 C 228.050781 309.078125 224.195312 309.066406 220.339844 309.101562 C 171.042969 309.101562 121.742188 309.101562 72.445312 309.101562" fill="#8e4100"/></g><g><path d="M 140.796875 150.320312 C 148.304688 152.0625 155.785156 153.933594 163.332031 155.5 C 168.875 156.652344 172.878906 159.820312 175.886719 164.335938 C 179.839844 170.273438 184.148438 176.066406 187.28125 182.425781 C 191.71875 191.445312 199.003906 197.140625 207.414062 201.625 C 218.933594 207.769531 231.535156 208.402344 244.238281 207.699219 C 249.042969 207.433594 253.808594 206.574219 258.609375 206.183594 C 259.699219 206.09375 260.859375 206.824219 261.984375 207.175781 C 267.433594 217.175781 270.574219 227.878906 271.691406 239.191406 C 272.070312 241.117188 271.136719 242.40625 269.410156 242.816406 C 264.136719 244.078125 258.867188 245.65625 253.503906 246.234375 C 235.300781 248.210938 217.222656 247.449219 199.882812 240.988281 C 193.550781 238.628906 187.6875 235 181.609375 231.953125 C 180.890625 231.59375 180.171875 231.238281 179.449219 230.882812 C 179.390625 231.699219 179.277344 232.515625 179.28125 233.328125 C 179.304688 244.386719 179.34375 255.445312 179.378906 266.507812 C 167.914062 266.40625 156.453125 266.308594 144.988281 266.210938 C 145.503906 261.265625 145.679688 256.253906 146.605469 251.390625 C 148.949219 239.085938 148.8125 226.644531 149.285156 214.222656 C 149.53125 207.757812 150.148438 201.304688 150.289062 194.835938 C 150.367188 191.066406 151.074219 186.523438 149.316406 183.667969 C 145.679688 177.75 145.828125 173.203125 150.167969 167.886719 C 153.398438 163.929688 152.394531 157.34375 146.933594 154.652344 C 144.917969 153.660156 142.941406 152.585938 140.992188 151.46875 C 140.453125 151.15625 140.085938 150.550781 139.636719 150.078125 C 139.742188 150.066406 139.84375 150.066406 139.949219 150.089844 C 140.230469 150.167969 140.515625 150.246094 140.796875 150.320312" fill="#76858e"/></g><g><path d="M 21.925781 289.386719 C 17.160156 277.863281 12.335938 266.363281 7.660156 254.800781 C 5.417969 249.261719 3.390625 243.632812 1.382812 238 C -0.4375 232.890625 -0.671875 227.636719 1.96875 222.816406 C 14.296875 200.34375 28.351562 179.140625 46.691406 160.945312 C 52.914062 154.773438 60.445312 152.128906 68.480469 150.207031 C 73.597656 148.980469 78.828125 148.234375 84.007812 147.273438 C 79.253906 151.851562 74.46875 156.398438 69.757812 161.019531 C 67.644531 163.097656 67.941406 164.683594 70.117188 166.671875 C 73.515625 169.773438 76.707031 173.097656 80.050781 176.257812 C 81.191406 177.339844 81.050781 178.0625 80.136719 179.285156 C 77.359375 183.011719 73.988281 186.585938 74.800781 191.824219 C 77.40625 208.585938 80.082031 225.332031 82.695312 242.089844 C 83.945312 250.121094 85.117188 258.164062 86.328125 266.199219 C 85.496094 266.230469 84.660156 266.265625 83.828125 266.285156 C 79.488281 266.386719 75.148438 266.484375 70.808594 266.582031 C 68 267.847656 65.191406 269.109375 62.382812 270.371094 C 62.191406 267.75 62.082031 265.117188 61.792969 262.503906 C 59.816406 244.441406 57.804688 226.378906 55.792969 208.316406 C 55.75 207.910156 55.574219 207.515625 55.460938 207.117188 C 55.140625 207.414062 54.777344 207.679688 54.503906 208.019531 C 49.617188 214.148438 44.8125 220.34375 39.828125 226.394531 C 38.097656 228.496094 37.585938 230.589844 38.335938 233.148438 C 42.398438 247.015625 46.425781 260.890625 50.488281 274.757812 C 50.582031 275.085938 50.933594 275.335938 51.167969 275.621094 C 41.417969 280.210938 31.671875 284.800781 21.925781 289.386719" fill="#76858e"/></g><g><path d="M 167.40625 70.054688 C 164.640625 70.453125 163.207031 68.835938 162.839844 66.476562 C 161.789062 59.785156 160.976562 53.058594 160.050781 46.347656 C 159.824219 44.703125 159.558594 43.058594 159.246094 41.425781 C 158.636719 38.222656 156.492188 37.539062 153.699219 38.964844 C 151.300781 40.1875 148.53125 40.730469 145.882812 41.40625 C 131.691406 45.035156 117.242188 46.960938 102.648438 45.640625 C 93.320312 44.800781 84.097656 42.707031 74.875 40.921875 C 72.472656 40.457031 70.207031 39.132812 67.964844 38.023438 C 66.558594 37.332031 63.960938 38.78125 63.597656 40.953125 C 62.699219 46.308594 62.007812 51.699219 61.214844 57.070312 C 60.710938 60.484375 60.371094 63.9375 59.578125 67.28125 C 59.078125 69.398438 57.550781 70.734375 55.058594 69.726562 C 54.285156 66.96875 52.828125 64.203125 52.875 61.460938 C 53 53.984375 53.304688 46.445312 54.460938 39.078125 C 55.0625 35.242188 57.351562 31.566406 59.339844 28.078125 C 64.574219 18.886719 71.625 11.636719 81.59375 7.347656 C 92.832031 2.511719 104.335938 -1.148438 116.664062 0.328125 C 130.371094 1.972656 143.484375 6.148438 153.777344 15.679688 C 161.007812 22.378906 166.324219 30.757812 168.253906 40.894531 C 169.867188 49.371094 170.007812 57.859375 169.242188 66.386719 C 169.128906 67.652344 168.042969 68.832031 167.40625 70.054688" fill="#d9e1e4"/></g><g clip-path="url(#a)"><path d="M 72.433594 565.007812 C 115.851562 565.015625 159.269531 565.027344 202.683594 565.039062 C 208.667969 565.039062 214.648438 565.042969 220.632812 565.042969 C 224.359375 565.070312 228.089844 565.035156 231.8125 565.199219 C 232.363281 565.226562 233.300781 566.1875 233.324219 566.742188 C 233.460938 570.398438 233.296875 574.070312 233.441406 577.726562 C 233.511719 579.546875 233.066406 580.074219 231.15625 580.070312 C 190.585938 580.011719 150.019531 580.027344 109.449219 580.027344 C 97.105469 580.03125 84.761719 580.035156 72.417969 580.019531 C 71.863281 580.019531 71.308594 579.859375 70.75 579.773438 C 71.308594 579.152344 72.324219 578.546875 72.34375 577.90625 C 72.484375 573.625 72.414062 569.332031 72.414062 565.046875 L 72.433594 565.007812" fill="#904200"/></g><g><path d="M 139.636719 150.078125 C 140.085938 150.550781 140.453125 151.15625 140.992188 151.46875 C 142.941406 152.585938 144.917969 153.660156 146.933594 154.652344 C 152.394531 157.34375 153.398438 163.929688 150.167969 167.886719 C 145.828125 173.203125 145.679688 177.75 149.316406 183.667969 C 151.074219 186.523438 150.367188 191.066406 150.289062 194.835938 C 150.148438 201.304688 149.53125 207.757812 149.285156 214.222656 C 148.8125 226.644531 148.949219 239.085938 146.605469 251.390625 C 145.679688 256.253906 145.503906 261.265625 144.988281 266.210938 C 139.972656 266.199219 134.960938 266.1875 129.949219 266.175781 C 129.816406 258.984375 129.6875 251.796875 129.53125 244.609375 C 129.523438 244.203125 129.261719 243.800781 129.117188 243.398438 C 138.4375 232.097656 138.105469 212.761719 128.417969 202.507812 C 128.546875 201.78125 128.8125 201.050781 128.78125 200.332031 C 128.289062 189.347656 127.761719 178.363281 127.242188 167.378906 C 126.84375 161.917969 126.386719 156.460938 126.09375 150.992188 C 126.03125 149.796875 126.554688 148.570312 126.808594 147.363281 C 126.953125 147.359375 127.097656 147.359375 127.238281 147.355469 C 128.015625 147.460938 128.796875 147.566406 129.574219 147.667969 C 132.925781 148.472656 136.28125 149.277344 139.636719 150.078125" fill="#acbdc5"/></g><g clip-path="url(#b)"><path d="M 271.691406 239.191406 C 270.574219 227.878906 267.433594 217.175781 261.984375 207.175781 C 263.390625 201.792969 264.820312 196.417969 266.1875 191.03125 C 266.835938 188.492188 267.6875 186.3125 270.96875 186.664062 C 274.492188 187.046875 276.367188 188.867188 276.246094 192.296875 C 276.136719 195.550781 275.710938 198.796875 275.433594 202.046875 C 275.390625 202.53125 275.398438 203.019531 275.382812 203.507812 C 275.890625 203.328125 276.476562 203.253906 276.902344 202.953125 C 282.191406 199.203125 287.425781 195.371094 292.757812 191.6875 C 294.375 190.566406 296.195312 189.671875 298.035156 188.957031 C 300.367188 188.046875 302.871094 188.445312 303.875 190.757812 C 304.566406 192.355469 304.636719 195.074219 303.699219 196.351562 C 301.613281 199.191406 298.722656 201.4375 296.160156 203.929688 C 295.941406 204.140625 295.730469 204.359375 295.515625 204.578125 C 295.851562 204.578125 296.199219 204.644531 296.515625 204.570312 C 300.070312 203.710938 303.609375 202.800781 307.167969 201.960938 C 309.832031 201.332031 312.175781 201.757812 313.050781 204.722656 C 313.925781 207.703125 312.015625 209.039062 309.523438 209.902344 C 305.339844 211.351562 301.171875 212.847656 296.996094 214.339844 C 296.777344 214.417969 296.597656 214.601562 296.398438 214.734375 C 296.632812 214.773438 296.875 214.863281 297.101562 214.839844 C 300.914062 214.386719 304.726562 213.929688 308.535156 213.460938 C 310.84375 213.175781 313.097656 213.269531 313.945312 215.898438 C 314.800781 218.546875 313.441406 220.300781 310.945312 221.035156 C 307.878906 221.9375 304.742188 222.605469 301.640625 223.398438 C 301.046875 223.550781 300.480469 223.816406 299.902344 224.03125 C 300.46875 224.074219 301.035156 224.136719 301.601562 224.160156 C 304.804688 224.296875 308.015625 224.320312 311.210938 224.585938 C 313.460938 224.773438 315.414062 225.683594 315.617188 228.320312 C 315.808594 230.847656 314.445312 232.34375 312.015625 232.738281 C 298.578125 234.914062 285.136719 237.046875 271.691406 239.191406" fill="#fcceb2"/></g><g><path d="M 86.328125 266.199219 C 85.117188 258.164062 83.945312 250.121094 82.695312 242.089844 C 80.082031 225.332031 77.40625 208.585938 74.800781 191.824219 C 73.988281 186.585938 77.359375 183.011719 80.136719 179.285156 C 81.050781 178.0625 81.191406 177.339844 80.050781 176.257812 C 76.707031 173.097656 73.515625 169.773438 70.117188 166.671875 C 67.941406 164.683594 67.644531 163.097656 69.757812 161.019531 C 74.46875 156.398438 79.253906 151.851562 84.007812 147.273438 C 85.925781 146.902344 87.84375 146.527344 89.761719 146.152344 C 91.058594 146.28125 92.355469 146.410156 93.65625 146.539062 C 93.527344 149.535156 93.304688 152.53125 93.289062 155.53125 C 93.242188 165.179688 93.261719 174.832031 93.28125 184.484375 C 93.28125 185.226562 93.5 185.96875 93.613281 186.714844 C 93.773438 198.410156 93.71875 210.113281 94.144531 221.800781 C 94.683594 236.605469 95.613281 251.394531 96.371094 266.191406 C 93.023438 266.195312 89.675781 266.199219 86.328125 266.199219" fill="#acbdc5"/></g><g><path d="M 86.328125 266.199219 C 89.675781 266.199219 93.023438 266.195312 96.371094 266.191406 C 100.46875 266.1875 104.5625 266.183594 108.660156 266.179688 C 111.253906 266.179688 113.847656 266.175781 116.441406 266.175781 C 117.066406 266.167969 117.695312 266.15625 118.320312 266.148438 C 118.453125 266.144531 118.585938 266.144531 118.71875 266.140625 C 121.300781 266.144531 123.878906 266.144531 126.457031 266.148438 C 126.589844 266.144531 126.722656 266.140625 126.859375 266.136719 C 127.886719 266.148438 128.917969 266.160156 129.949219 266.175781 C 134.960938 266.1875 139.972656 266.199219 144.988281 266.210938 C 156.453125 266.308594 167.914062 266.40625 179.378906 266.507812 C 196.636719 266.5625 213.894531 266.652344 231.152344 266.628906 C 233.039062 266.625 233.621094 267.109375 233.425781 268.953125 C 233.246094 270.601562 233.34375 272.28125 233.316406 273.945312 C 179.683594 273.945312 126.050781 273.945312 72.417969 273.945312 C 72.417969 272.042969 72.542969 270.128906 72.34375 268.246094 C 72.277344 267.644531 71.34375 267.132812 70.808594 266.582031 C 75.148438 266.484375 79.488281 266.386719 83.828125 266.285156 C 84.660156 266.265625 85.496094 266.230469 86.328125 266.199219" fill="#6d3100"/></g><g><path d="M 72.414062 565.046875 C 72.414062 569.332031 72.484375 573.625 72.34375 577.90625 C 72.324219 578.546875 71.308594 579.152344 70.75 579.773438 C 57.929688 574.832031 45.109375 569.898438 32.292969 564.953125 C 26.898438 562.871094 21.492188 560.816406 16.15625 558.601562 C 15.417969 558.296875 14.582031 557.152344 14.558594 556.375 C 14.410156 551.753906 14.445312 547.125 14.542969 542.5 C 14.550781 542.011719 15.355469 541.132812 15.808594 541.117188 C 19.597656 541.007812 23.390625 541.054688 27.183594 541.054688 C 27.328125 543.320312 27.328125 545.609375 27.695312 547.839844 C 27.851562 548.789062 28.597656 550.128906 29.386719 550.410156 C 41.863281 554.863281 54.390625 559.191406 66.914062 563.507812 C 68.710938 564.125 70.578125 564.539062 72.414062 565.046875" fill="#783700"/></g><g><path d="M 70.808594 266.582031 C 71.34375 267.132812 72.277344 267.644531 72.34375 268.246094 C 72.542969 270.128906 72.417969 272.042969 72.417969 273.945312 C 68.457031 275.542969 64.445312 277.023438 60.546875 278.753906 C 45.96875 285.21875 31.429688 291.769531 16.875 298.285156 C 15.984375 293.859375 16.976562 290.5 21.925781 289.386719 C 31.671875 284.800781 41.417969 280.210938 51.167969 275.621094 C 54.90625 273.871094 58.644531 272.121094 62.382812 270.371094 C 65.191406 269.109375 68 267.847656 70.808594 266.582031" fill="#5a2900"/></g><g><path d="M 93.65625 146.539062 C 92.355469 146.410156 91.058594 146.28125 89.761719 146.152344 C 89.632812 144.875 89.503906 143.597656 89.375 142.316406 C 89.277344 141.796875 89.175781 141.277344 89.078125 140.753906 C 89.054688 140.632812 89.050781 140.511719 89.070312 140.386719 C 94.882812 142.773438 100.613281 145.386719 106.546875 147.429688 C 108.976562 148.269531 111.832031 147.871094 114.492188 148.035156 C 111.703125 148.089844 108.894531 148.367188 106.128906 148.140625 C 101.953125 147.792969 97.8125 147.089844 93.65625 146.539062" fill="#e7b89c"/></g><g><path d="M 129.574219 147.667969 C 128.796875 147.566406 128.015625 147.460938 127.238281 147.355469 C 127.34375 147.328125 127.449219 147.3125 127.558594 147.308594 C 128.230469 147.429688 128.902344 147.550781 129.574219 147.667969" fill="#d1d1d1"/></g><g><path d="M 89.078125 140.753906 C 89.175781 141.277344 89.277344 141.796875 89.375 142.316406 C 89.277344 141.796875 89.175781 141.277344 89.078125 140.753906" fill="#fcceb2"/></g><g><path d="M 140.796875 150.320312 C 140.515625 150.246094 140.230469 150.167969 139.949219 150.089844 C 140.230469 150.167969 140.515625 150.246094 140.796875 150.320312" fill="#acbdc5"/></g><g><path d="M 104.09375 381.710938 C 102.304688 380.246094 100.433594 378.871094 98.738281 377.308594 C 82.550781 362.402344 83.09375 342.179688 100.0625 328.105469 C 110.757812 319.234375 123.339844 314.851562 136.914062 313.171875 C 153.933594 311.070312 170.414062 313.039062 185.96875 320.671875 C 192.558594 323.902344 198.425781 328.136719 203.117188 333.863281 C 213.667969 346.738281 212.882812 362.652344 201.074219 375.050781 C 200.410156 375.746094 199.730469 376.433594 199.058594 377.121094 C 195.96875 379.398438 192.882812 381.671875 189.792969 383.949219 C 176.632812 391.308594 162.4375 394.320312 147.453125 394.175781 C 136.609375 394.074219 126.179688 391.972656 116.0625 388.160156 C 112.074219 386.011719 108.085938 383.859375 104.09375 381.710938" fill="#4a9ccc"/></g><g><path d="M 104.09375 381.710938 C 108.085938 383.859375 112.074219 386.011719 116.0625 388.160156 C 116.054688 434.839844 116.042969 481.515625 116.113281 528.191406 C 116.113281 528.816406 117.1875 529.972656 117.773438 529.980469 C 126.144531 530.121094 134.515625 530.136719 142.886719 530.117188 C 148.144531 530.105469 153.40625 529.957031 158.667969 529.925781 C 164.0625 529.890625 169.457031 529.871094 174.851562 529.933594 C 179.953125 529.992188 185.050781 530.164062 190.148438 530.289062 C 190.148438 534.914062 190.148438 539.539062 190.152344 544.164062 C 162.039062 544.171875 133.925781 544.160156 105.816406 544.226562 C 103.824219 544.230469 104.058594 543.132812 104.058594 541.894531 C 104.066406 490.363281 104.070312 438.835938 104.074219 387.308594 C 104.074219 385.441406 104.085938 383.574219 104.09375 381.710938" fill="#622000"/></g><g><path d="M 190.152344 544.164062 C 190.148438 539.539062 190.148438 534.914062 190.148438 530.289062 C 190.15625 482.117188 190.164062 433.945312 190.15625 385.773438 C 190.15625 385.164062 189.921875 384.558594 189.792969 383.949219 C 192.882812 381.671875 195.96875 379.398438 199.058594 377.121094 C 199.050781 431.847656 199.027344 486.570312 199.09375 541.296875 C 199.097656 543.6875 198.511719 544.492188 196.128906 544.234375 C 194.15625 544.019531 192.144531 544.171875 190.152344 544.164062" fill="#92502f"/></g><g><path d="M 93.65625 146.539062 C 97.8125 147.089844 101.953125 147.792969 106.128906 148.140625 C 108.894531 148.367188 111.703125 148.089844 114.492188 148.035156 C 118.597656 147.8125 122.703125 147.585938 126.808594 147.359375 C 126.554688 148.570312 126.03125 149.796875 126.09375 150.992188 C 126.386719 156.460938 126.84375 161.917969 127.242188 167.378906 C 126.882812 167.5 126.507812 167.589844 126.160156 167.746094 C 121.609375 169.820312 120.601562 169.558594 117.5625 165.671875 C 116.746094 164.628906 115.769531 163.710938 114.867188 162.730469 C 112.859375 160.398438 110.859375 158.058594 108.816406 155.757812 C 108.660156 155.582031 107.945312 155.566406 107.875 155.691406 C 106.445312 158.277344 105.066406 160.894531 103.683594 163.507812 C 103.382812 163.71875 103.015625 163.878906 102.796875 164.15625 C 99.558594 168.222656 99.570312 168.214844 94.628906 166.324219 C 94.472656 166.265625 93.6875 167.085938 93.683594 167.496094 C 93.613281 173.902344 93.625 180.308594 93.613281 186.714844 C 93.5 185.96875 93.28125 185.226562 93.28125 184.484375 C 93.261719 174.832031 93.242188 165.179688 93.289062 155.53125 C 93.304688 152.53125 93.527344 149.535156 93.65625 146.539062" fill="#d1d1d1"/></g><g><path d="M 125.761719 113.734375 C 126.132812 113.265625 126.503906 112.390625 126.871094 112.394531 C 128.53125 112.402344 130.191406 112.660156 131.855469 112.828125 C 131.558594 113.769531 131.347656 114.742188 130.953125 115.636719 C 128.035156 122.300781 123.023438 124.460938 115.839844 123.597656 C 110.273438 122.925781 104.558594 123.523438 98.910156 123.398438 C 98.023438 123.378906 96.882812 122.738281 96.332031 122.023438 C 94.617188 119.789062 93.078125 117.410156 91.578125 115.023438 C 91.207031 114.433594 91 113.539062 91.160156 112.894531 C 91.238281 112.578125 92.320312 112.496094 92.949219 112.324219 C 97.417969 111.117188 97.433594 114.125 97.46875 117.109375 C 98.15625 117.183594 98.84375 117.320312 99.53125 117.320312 C 107.160156 117.339844 114.796875 117.148438 122.414062 117.421875 C 125.542969 117.535156 126.339844 116.507812 125.761719 113.734375" fill="#010101"/></g><g><path d="M 110.449219 99.445312 C 105.789062 98.988281 101.625 95.359375 98.390625 90.539062 C 97.855469 89.742188 98.148438 87.746094 98.824219 86.996094 C 99.34375 86.421875 101.332031 86.503906 102.199219 87.042969 C 103.84375 88.066406 105.148438 89.628906 106.597656 90.96875 C 110.835938 94.878906 114.46875 94.5 117.953125 89.871094 C 118.835938 88.699219 119.796875 87.441406 121.015625 86.722656 C 121.96875 86.160156 123.679688 85.882812 124.492188 86.386719 C 125.175781 86.808594 125.511719 88.6875 125.203125 89.671875 C 123.714844 94.441406 116.738281 99.445312 110.449219 99.445312" fill="#e7bba1"/></g><g><path d="M 88.785156 56.882812 C 90.789062 57.625 94.351562 58.679688 97.617188 60.320312 C 98.519531 60.773438 98.550781 62.960938 98.980469 64.355469 C 97.574219 64.777344 95.722656 65.996094 94.835938 65.496094 C 88.769531 62.085938 83.382812 62.914062 77.984375 66.964844 C 77.207031 67.550781 74.746094 67.023438 74.023438 66.1875 C 73.414062 65.476562 73.671875 63 74.449219 62.292969 C 77.980469 59.074219 82.195312 57.09375 88.785156 56.882812" fill="#d9e1e4"/></g><g><path d="M 134.765625 58 C 141.226562 58.21875 145.425781 60.050781 148.78125 63.425781 C 149.59375 64.246094 149.257812 66.207031 149.449219 67.644531 C 147.976562 67.777344 146.464844 68.164062 145.042969 67.957031 C 144.066406 67.8125 143.214844 66.839844 142.304688 66.238281 C 138.195312 63.53125 134.023438 63.964844 129.878906 66.09375 C 127.808594 67.15625 125.640625 67.882812 124.421875 65.320312 C 123.253906 62.859375 124.914062 61.296875 127.152344 60.503906 C 130.136719 59.441406 133.171875 58.519531 134.765625 58" fill="#d9e1e4"/></g><g><path d="M 86.96875 78.976562 C 83.140625 78.972656 79.941406 75.816406 79.917969 72.023438 C 79.890625 68.164062 83.179688 64.910156 87.058594 64.960938 C 90.871094 65.011719 94.023438 68.21875 93.996094 72.019531 C 93.96875 75.84375 90.796875 78.984375 86.96875 78.976562" fill="inherit"/></g><g><path d="M 129.371094 72.804688 C 129.527344 68.957031 132.820312 65.832031 136.550781 65.984375 C 140.453125 66.148438 143.617188 69.546875 143.410156 73.347656 C 143.199219 77.148438 139.851562 80.21875 136.101562 80.046875 C 132.261719 79.871094 129.21875 76.597656 129.371094 72.804688" fill="inherit"/></g><g><path d="M 125.761719 113.734375 C 126.339844 116.507812 125.542969 117.535156 122.414062 117.421875 C 114.796875 117.148438 107.160156 117.339844 99.53125 117.320312 C 98.84375 117.320312 98.15625 117.183594 97.46875 117.109375 C 97.847656 112.21875 97.847656 112.21875 102.816406 112.21875 C 109.796875 112.21875 116.773438 112.179688 123.746094 112.285156 C 124.425781 112.296875 125.09375 113.230469 125.761719 113.734375" fill="#fffffe"/></g><g><path d="M 111.492188 123.796875 C 115.210938 123.796875 118.933594 123.769531 122.652344 123.820312 C 123.414062 123.828125 124.171875 124.121094 124.929688 124.285156 C 124.011719 125.148438 123.175781 126.617188 122.15625 126.757812 C 119.574219 127.113281 116.914062 126.871094 114.28125 126.867188 C 109.921875 126.867188 105.554688 126.964844 101.199219 126.789062 C 100.195312 126.75 99.195312 125.820312 98.265625 125.195312 C 97.96875 124.992188 97.90625 124.441406 97.738281 124.050781 C 98.152344 123.96875 98.570312 123.8125 98.984375 123.808594 C 103.152344 123.789062 107.324219 123.796875 111.492188 123.796875" fill="#fcfcfb"/></g><g><path d="M 118.71875 266.140625 C 118.585938 266.144531 118.453125 266.144531 118.320312 266.148438 C 118.308594 263.738281 118.296875 261.328125 118.285156 258.917969 C 118.246094 252.421875 119.34375 246.171875 113.679688 240.429688 C 110.503906 237.214844 109.515625 231.089844 109.03125 226.128906 C 108.132812 216.875 109.722656 208.007812 117.511719 201.519531 C 121.371094 199.351562 125.003906 199.722656 128.414062 202.507812 C 138.105469 212.761719 138.4375 232.097656 129.117188 243.398438 C 128.230469 244.183594 127.339844 244.96875 126.449219 245.757812 C 124.503906 245.9375 122.484375 246.53125 120.636719 246.1875 C 118.757812 245.835938 118.679688 246.359375 118.695312 247.871094 C 118.753906 253.960938 118.71875 260.050781 118.71875 266.140625" fill="#24404a"/></g><g><path d="M 128.417969 202.507812 C 125.003906 199.722656 121.371094 199.351562 117.511719 201.519531 C 116.378906 189.363281 115.230469 177.207031 114.15625 165.046875 C 114.09375 164.300781 114.617188 163.503906 114.867188 162.730469 C 115.769531 163.710938 116.746094 164.628906 117.5625 165.671875 C 120.601562 169.558594 121.609375 169.820312 126.160156 167.746094 C 126.507812 167.589844 126.882812 167.5 127.242188 167.378906 C 127.761719 178.363281 128.289062 189.347656 128.78125 200.332031 C 128.8125 201.050781 128.546875 201.78125 128.417969 202.507812" fill="#f3efec"/></g><g><path d="M 126.449219 245.757812 C 127.339844 244.96875 128.230469 244.183594 129.117188 243.398438 C 129.261719 243.800781 129.523438 244.203125 129.53125 244.609375 C 129.6875 251.796875 129.816406 258.984375 129.949219 266.175781 C 128.917969 266.160156 127.886719 266.148438 126.859375 266.136719 C 126.742188 264.75 126.628906 263.367188 126.511719 261.980469 C 126.492188 256.574219 126.46875 251.164062 126.449219 245.757812" fill="#f3efec"/></g><g><path d="M 93.613281 186.714844 C 93.625 180.308594 93.613281 173.902344 93.683594 167.496094 C 93.6875 167.085938 94.472656 166.265625 94.628906 166.324219 C 99.570312 168.214844 99.558594 168.222656 102.796875 164.15625 C 103.015625 163.878906 103.382812 163.71875 103.683594 163.507812 C 103.824219 164.09375 104.105469 164.683594 104.09375 165.269531 C 103.636719 191.992188 103.125 218.714844 102.722656 245.433594 C 102.6875 247.761719 103.054688 250.1875 103.746094 252.40625 C 105.203125 257.054688 107.003906 261.59375 108.660156 266.179688 C 104.5625 266.183594 100.46875 266.1875 96.371094 266.191406 C 95.613281 251.394531 94.683594 236.605469 94.144531 221.800781 C 93.71875 210.113281 93.773438 198.410156 93.613281 186.714844" fill="#f3efec"/></g><g><path d="M 108.660156 266.179688 C 107.003906 261.59375 105.203125 257.054688 103.746094 252.40625 C 103.054688 250.1875 102.6875 247.761719 102.722656 245.433594 C 103.125 218.714844 103.636719 191.992188 104.09375 165.269531 C 104.105469 164.683594 103.824219 164.09375 103.683594 163.507812 C 105.066406 160.894531 106.445312 158.277344 107.875 155.691406 C 107.945312 155.566406 108.660156 155.582031 108.816406 155.757812 C 110.859375 158.058594 112.859375 160.398438 114.867188 162.730469 C 114.617188 163.503906 114.09375 164.300781 114.15625 165.046875 C 115.230469 177.207031 116.378906 189.363281 117.511719 201.519531 C 109.722656 208.007812 108.132812 216.875 109.03125 226.128906 C 109.515625 231.089844 110.503906 237.214844 113.679688 240.429688 C 119.34375 246.171875 118.246094 252.421875 118.285156 258.917969 C 117.671875 261.339844 117.054688 263.757812 116.441406 266.175781 C 113.847656 266.175781 111.253906 266.179688 108.660156 266.179688" fill="#de3601"/></g><g><path d="M 126.449219 245.757812 C 126.46875 251.164062 126.492188 256.574219 126.511719 261.980469 C 126.492188 263.371094 126.476562 264.757812 126.457031 266.148438 C 123.878906 266.144531 121.300781 266.144531 118.71875 266.140625 C 118.71875 260.050781 118.753906 253.960938 118.695312 247.871094 C 118.679688 246.359375 118.757812 245.835938 120.636719 246.1875 C 122.484375 246.53125 124.503906 245.9375 126.449219 245.757812" fill="#000a11"/></g><g><path d="M 116.441406 266.175781 C 117.054688 263.757812 117.671875 261.339844 118.285156 258.917969 C 118.296875 261.328125 118.308594 263.738281 118.320312 266.148438 C 117.695312 266.15625 117.066406 266.167969 116.441406 266.175781" fill="#e8e0dd"/></g><g><path d="M 126.457031 266.148438 C 126.476562 264.757812 126.492188 263.371094 126.511719 261.980469 C 126.628906 263.367188 126.742188 264.75 126.859375 266.136719 C 126.722656 266.140625 126.589844 266.144531 126.457031 266.148438" fill="#acbdc5"/></g><g><path d="M 189.792969 383.949219 C 189.921875 384.558594 190.15625 385.164062 190.15625 385.773438 C 190.164062 433.945312 190.15625 482.117188 190.148438 530.289062 C 185.050781 530.164062 179.953125 529.992188 174.851562 529.933594 C 169.457031 529.871094 164.0625 529.890625 158.667969 529.925781 C 153.40625 529.957031 148.144531 530.105469 142.886719 530.117188 C 134.515625 530.136719 126.144531 530.121094 117.773438 529.980469 C 117.1875 529.972656 116.113281 528.816406 116.113281 528.191406 C 116.042969 481.515625 116.054688 434.839844 116.0625 388.160156 C 126.179688 391.972656 136.609375 394.074219 147.453125 394.175781 C 162.4375 394.320312 176.632812 391.308594 189.792969 383.949219" fill="#792700"/></g></g></svg>