<?xml version="1.0" encoding="UTF-8"?><svg xmlns="http://www.w3.org/2000/svg" xmlns:xlink="http://www.w3.org/1999/xlink" height="500.8" preserveAspectRatio="xMidYMid meet" version="1.0" viewBox="-0.3 -0.5 456.5 500.8" width="456.5" zoomAndPan="magnify"><g id="change1_1"><path d="M86,77c5.7,3.2,11.3,6.4,16.9,9.5c6.9,3.8,14.1,7.4,20.9,11.5c12,7.2,24.1,14.4,36,21.8 c11.9,7.3,24.4,13.4,36.3,20.6c10.2,6.1,21,11.2,31.1,17.4c14.4,8.8,28.5,18,42.6,27.1c15.3,9.9,30.8,19.7,47,28.2 c2.9,1.5,2.9,2.5,0.6,4.5c-10.2,9-19.6,18.8-30,27.6c-6.4,5.4-12.1,11.6-17.8,17.8c-1.3,1.4-2.7,2.8-4,4.2c-1.2,1.2-2,2.6-1.8,4.5 c0.7,7.3,0.2,14.6,0.8,21.9c1,12.5,0.9,25,1.6,37.5c0.5,8.1,0.4,16.3,0.5,24.4c0.1,5,0.5,9.9,0.9,14.9c0.1,1.4,0.2,2.7-1.1,3.5 c-1.3,0.8-2.6,0.1-3.7-0.5c-4.3-2.3-8.5-4.6-12.7-7c-12.5-7.1-24.8-14.3-37.3-21.3c-10.5-5.9-21.2-11.6-31.4-18 c-10.5-6.6-20.9-13.5-31.1-20.5c-8.8-6-18.7-10.4-27.8-16c-8.9-5.4-18.2-10.3-26.8-16.3c-2.8-1.9-5.4-4.1-8.2-6.1 c-1.5-1-2.1-2.3-2.1-4.1c0-9.8,0-19.5,0.1-29.3c0-8.6,0.1-17.1-0.4-25.7c-0.5-7.9-1.2-15.9-1.6-23.8c-0.4-8.2-0.6-16.4-0.4-24.6 c0.3-13.1-1.3-26.1-1.2-39.1c0-3.8,0.1-7.7,0.2-11.5c0-1.3-0.4-2-1.6-2.6c-14.9-7.1-29.1-15.5-42.8-24.7c-2.1-1.4-4.2-2.8-6.5-3.8 c-1.3-0.5-1.8-1.5-2.2-2.6c-0.3-0.8-0.1-1.4,0.6-1.8c8.3-5.1,16.5-10.3,25-15.2c18.8-10.8,37.2-22.3,56.2-32.8 c7.2-4,14.4-8.1,21.8-11.7c1.1-0.5,1.9-0.5,2.9,0.2c7.1,5.3,14.8,9.7,22.2,14.5c1.9,1.3,2,1.9,0.2,3.2c-4.5,3.3-9.4,5.9-14.3,8.6 c-12.5,7.1-24.6,14.8-36.7,22.5C99.9,68.5,92.9,72.7,86,77z M312.1,391.2c-0.4-0.1-0.8-0.2-1.2-0.2c-1.1,0-1.7,1.2-0.9,1.7 c1.4,0.9,1.7,2.6,3.2,3.4c2.8,1.5,5.5,3,8.5,4.2c1.5,0.6,3,0.6,4.5-0.1c10.8-5.3,21.6-10.5,32.4-15.7c21.6-10.6,43.2-21.2,64.8-31.9 c8.9-4.4,17.9-8.8,26.8-13.3c1.3-0.6,2.9-1.3,3.2-2.6c0.5-2.4,0.4-5,0.5-7.5c0-0.6-0.2-1.1-0.8-1.3c-0.6-0.2-1.1-0.1-1.4,0.4 c-0.2,0.4-0.5,0.5-1,0.5c-1.7-0.1-3.2,0.5-4.6,1.3c-2.4,1.3-4.7,2.5-7.2,3.6c-4.9,2.1-9.8,4.2-14.4,6.8c-1.6,0.9-2.9,1-4.6,0.4 c-10.5-3.9-21.5-6-32.7-6.6c-1.8-0.1-3.3,0.3-4.9,1.3c-4.9,2.9-9.8,5.6-14.8,8.3c-8.7,4.7-17.7,9-26.6,13.2 c-3.4,1.6-6.6,3.5-9.8,5.6c-0.5-4.2-0.5-4.2-3.7-5c-4.2-1.1-4.3-1-4.6,3.3c-0.4,6.3,0,12.6-0.5,18.9c-0.2,2.5-1.4,4.5-2.8,6.2 c-1.7,2.1-4,3.8-6.1,5.8C312.8,391.6,312.5,391.3,312.1,391.2z M301.2,433c-2.5,1.7-3.1,4.2-2.8,6.9c0.3,2.2,0.5,4.7,3.5,5.1 c0.3,0,0.5,0.3,0.7,0.5c7.8,6.2,17.2,9.6,25.8,14.4c2,1.1,4,0.8,6.2,0c3.5-1.4,6.8-3.1,9.9-5.4c2-1.5,4.1-2.7,6.3-3.7 c4.3-2,8-4.7,11.5-7.9c1-0.9,1.8-1.9,1.6-3.4c-0.6-4.3-1.5-8.5-4.4-11.9c-3.8-4.5-8.6-7.2-14.1-4c-0.3-0.4-0.6-0.9-0.9-1.3 c-5.4-8.8-15.2-10.6-23.4-4.5c-1.5,3.3-5.1,3.4-7.7,4.9c-3.1,1.8-5.7,4-5.4,8.3C305.3,430.5,303.2,431.6,301.2,433z" fill="#1A815C"/></g><g id="change2_1"><path d="M87.6,232.5c0.2,7-0.9,13.8-3.7,20.2c-1.1,2.4-3.2,3.7-5.6,4.3c-0.1,0-0.3,0.1-0.4,0.1l-3.4,3.8l-16.5,3.4 l-20-22.3l1.4-20l4.7-4.7c-1-0.9-2-1.8-3.1-2.7c-1.2-0.9-2.4-1.7-3.8-2.4c-1-0.5-1.9-1.1-3.1-0.3c-0.6,0.3-1.5,0.3-2-0.3 c-4.2-3.8-9.8-5.2-14.3-8.5c-1.1-0.8-2.9-1.2-2.2-3.3c0.1-0.3-0.3-0.6-0.6-0.8c-3.9-3-7.8-6.1-11.7-9.1c-0.6-0.4-0.6-1-0.6-1.6 c-0.2-4.9,0.5-9.8,1-14.6c0.2-2.3,0.3-4.5,0.4-6.8c0.2-5.5,0.7-11,0.5-16.5c-0.1-2.1,0.3-2.5,2.5-2.5c0.7,0,1.4,0,2.2,0 c0.4,0,0.7,0,1.1,0c5.9,0.1,11.6-0.9,17.5-1.5c2-0.2,2.3-0.8,2.2-4c-0.8-18.7-0.5-37.5-0.6-56.2c0-2.9-0.5-5.8-0.3-8.8 c0-0.7,0-1.5,0.7-1.9c0.7-0.4,1.2,0.3,1.7,0.6c12.9,7.6,25.1,16.4,38.4,23.5c3.7,2,7.4,4.2,11.4,5.7c1.4,0.5,2.2,1.5,2.1,3.3 c-0.2,6.3,0,12.6,0.4,18.8c0.4,6.6,0.3,13.3,0.7,19.9c0.5,8.8,0.6,17.7,0.7,26.5c0.1,7.1,0.2,14.2,0.7,21.3 c0.6,8.3,0.9,16.6,1.1,24.9C86.7,224.3,87.4,228.4,87.6,232.5z M306.1,226.1c-9.2-5.7-18.4-11.4-27.4-17.4 c-12.1-8.2-23.9-16.9-36.7-24.2c-5-2.8-9.8-6-14.7-8.9c-7.7-4.5-15.7-8.4-23.2-13.3c-8.9-5.7-18.1-11-27-16.7 c-7.8-5-16-9.3-24.2-13.6c-7.1-3.7-14.3-7.2-21.1-11.5c-12.1-7.6-24.8-14.3-36.3-22.8c-1.1-0.8-1.9-0.4-2.5,0.7 c-0.4,0.7-0.3,1.4-0.3,2.1c-0.1,6.4,0.2,12.8,0.1,19.1c0,7-0.2,13.9,0.2,20.9c0.2,3.8-0.1,7.7-0.2,11.5c-0.2,11.4,0.3,22.7,0.6,34.1 c0.3,13.5-0.1,26.9,0.7,40.4c0.4,7.8,1.1,15.5,0.9,23.3c-0.1,3.5,0,7-0.1,10.4c0,1.3,0.4,2,1.6,2.6c2.3,1.1,4.4,2.4,6.6,3.7 c7.3,4.5,14.5,9.1,21.8,13.5c7.8,4.6,15.9,8.9,23.7,13.5c6.5,3.9,12.9,8,19.4,12c9.1,5.6,18.4,10.7,27.6,16 c13,7.5,26,14.9,39.2,22.1c1.1,0.6,2.1,1.2,3.2,1.7c0.6,2.1,2.2,3.8,2.2,3.8s5.8,1.8,9.3,2.9c4.3,2.6,8.5,5.2,12.7,8 c1.8,1.2,3.5,2.4,5.3,3.5c0.5-0.7,0.3-1.3,0.3-1.9c0-5.3-0.1-10.6,0-15.8c0.1-2.3-0.1-4.1-2.8-4.5c-0.3,0-0.5-0.2-0.8-0.4 c-12.2-7-25-13.1-37.1-20.5c-9.7-5.9-19.6-11.5-29.3-17.3c-6.4-3.8-12.6-8.1-19.1-11.7c-9.2-5.1-18.6-9.7-27.8-14.5 c-5.6-2.9-11.1-5.9-16.6-8.9c-8.4-4.6-15.9-10.7-24-15.7c-0.6-0.3-0.9-0.8-0.9-1.4c-0.3-2.6-0.7-5.2-0.7-7.8 c0.1-15.1-0.6-30.2-1-45.4c-0.4-12.7,0-25.4,0.9-38c0.5-6.9,0-13.9,0.4-20.8c0.3-4.3,0.1-8.6,0.1-12.9c0-0.6-0.3-1.2,0.4-1.8 c3.6,2.2,7.2,4.6,10.9,6.9c10.4,6.3,20.7,12.6,31.6,18.1c6.2,3.1,12.4,6.5,18.5,9.8c7.9,4.3,15.5,9,23.1,13.8 c13.1,8.3,27,15.1,40,23.6c7,4.6,14.4,8.5,21.2,13.5c7.4,5.5,15.3,10.3,22.9,15.5c5.8,3.9,11.8,7.5,17.6,11.4 c1.3,0.9,2.1,0.8,3.1-0.1c3.3-2.9,6.5-5.9,9.6-9.3C307.2,226.9,306.6,226.5,306.1,226.1z M242.8,361v0.5l4.7,18.6 c0,0,6.4,5.2,7.2,4.9c0.8-0.2,3.2-0.9,3.9-3.6c0.7-2.6,1.8-12.7,1.8-12.7l-2.5-3.9L242.8,361z" fill="#E59CCB"/></g><g id="change3_1"><path d="M320.6,215.5c-2.2,1.5-4.3,1-6.5-0.3c-5.6-3.1-10.7-7-16.3-10.1c-7.6-4.3-15.4-8.3-22.7-13 c-8.1-5.2-16.1-10.6-24-16.1c-17-11.8-34.6-22.5-52.3-33.1c-11.6-6.9-23.3-13.4-34.9-20.3c-10.1-6-20.6-11.1-30.9-16.8 c-12.9-7.1-25.9-13.9-38.5-21.6c-2.7-1.6-5.5-3-8.4-4c-0.9-0.3-1.9-0.8-1.9-1.9c-0.1-1.2,0.4-2.2,1.5-2.9c8.8-4.9,17-10.9,25.8-16 c9.3-5.4,18.7-10.5,28-15.8c15.5-8.9,30.9-18,46-27.7c8.9-5.7,18.3-10.6,27.8-15.4c1.9-1,3.8-0.8,5.7,0c7.1,3.3,13.9,7,20.4,11.3 c15.9,10.5,32.7,19.5,49.3,28.8c11.5,6.5,22.7,13.5,34.1,20.3c12.9,7.8,25.6,15.9,39,22.8c6.1,3.1,11.7,7,17.7,10.2 c10.8,5.7,21.2,12.1,31.6,18.6c5.8,3.7,11.2,8.1,17.2,11.5c7.4,4.2,14.8,8.3,22.2,12.5c0.9,0.5,1.5,1,1.5,2c0,0.3,0,0.6,0.2,0.8 c1.3,1.8,1.3,1.9-0.5,3.2c-4,2.9-8.5,4.9-12.7,7.4c-11.5,6.6-23.5,12.3-35.3,18.4c-11.6,6-23.3,11.6-34.7,18.1 c-3.4,2-6.7,4.1-10.4,6.4c2.9,0.7,5.5,1.4,8,2.3c4.3,1.5,6.1,4.5,6.3,8.8c0.6,13.2,0.6,26.3,0.1,39.5c0,0.1,0,0.1,0,0.2 c0,4.5-0.9,3.4,3.4,5.3c1.7,0.8,2.8,1.8,3.4,3.6c1.1,2.9,1.1,6,1.3,9c0.3,4.6,0.4,9.2,0.4,13.8c0,7.3,0.7,14.6,0.6,21.9 c0,7.7-0.6,15.3-0.9,23c-0.2,4-0.1,8,0.4,12c0.2,2-0.6,3.2-2.2,4.3c-9.1,6-18.6,11.1-28.2,16.1c-5.5,2.8-11.3,5-16.5,8.2 c-1,0.6-2.1,0.9-3.4,0.5c-5.9-1.8-7-2.3-7.6-10.2c-0.9-12.4-0.2-24.8,0-37.2c0.1-9.6-0.1-19.3-0.8-28.9c-0.8-11.6-1-23.2-0.9-34.8 c0.1-6.8,0.6-13.6,0.8-20.4c0.1-3.4-0.2-6.8-1.3-10.1c-0.5-1.4-0.7-2.6-0.1-4c0.2-0.2,0.4-0.4,0.5-0.6c0,0,0-0.1,0-0.1 c0,0,0,0.1,0,0.1C321.1,215.1,320.8,215.2,320.6,215.5z M349.4,198.7c2.1-1,4.2-2,6.4-2.9c-0.1-0.2-0.2-0.3-0.2-0.5 C353.2,195.7,351.2,197,349.4,198.7c-0.3-0.1-0.7-0.1-0.8,0.4C349,199.2,349.3,199,349.4,198.7z M368.4,437.2 c-0.2,0.3-0.2,0-0.3-0.1c-3.3-0.2-3.4-0.2-4.8,2.9c-0.9,2.1-2.4,3.7-4.2,5c-5.7,4.1-11.7,7.6-17.9,11c-2.1,1.1-4,2.4-5.9,3.7 c-0.5,0.4-1.2,0.6-1.2,1.4c0,1-0.7,1.2-1.4,1.2c-0.9,0-1.6-0.2-1.8-1.1c-0.1-0.9-0.8-1.2-1.4-1.5c-1.2-0.5-2.3-1-3.3-1.8 c-2.4-2-5.2-3.2-7.8-4.8c-5.6-3.4-11.8-5.8-17-9.9c-0.6-0.5-1.4-0.9-1.4-1.5c-0.1-2.4-2-3.1-3.7-4.2c-2.2-1.4-4.5-0.5-5,2.2 c-0.5,2.8-0.7,5.6-0.7,8.4c0.2,7.7,0.5,15.4,0.6,23.2c0,2.4,0.9,4.1,2.8,5.2c6.6,3.9,12.8,8.4,19.6,11.9c6,3.1,12.3,5.6,18.1,9.1 c2.1,1.3,3.9,1.2,6-0.2c4.8-3.1,9.5-6.2,14.8-8.4c2.8-1.1,5.7-1.8,8.2-3.5c3-2.1,6.1-4,9.3-5.8c1.1-0.6,1.5-1.4,1.4-2.6 c-0.3-2.9-0.4-5.8-0.8-8.7c-1.1-8.7-1.6-17.4-1.3-26.1c0-0.6-0.2-1.3,0.5-1.7c0.7,2.7,0.6,5.5,0.5,8.2c-0.1,1.5,0.4,2.8,1.7,3.5 c2.3,1.3,4.3,3.1,6.4,4.6c0.6,0.5,1.4,1.1,2.1,0.8c1.8-0.8,3.8-0.6,5.6-1.5c3-1.5,6.2-2.9,9.2-4.5c8.5-4.5,16.9-9.2,25.1-14.3 c5.8-3.6,11.9-6.7,17.5-10.6c1.5-1,2.6-2.2,2.9-4.1c0.5-2.9,0.3-5.7-0.1-8.6c-1.2-8.8-1.6-17.6-1-26.5c0.4-5.7,0.5-5.7-4.8-8.3 c-0.1,0-0.1,0-0.2-0.1c-6.5-3.6-13.6-6.2-19.4-11.2c-1.7-1.5-3.5-2.9-5.7-3.8c-2.3-1-4.4-2.4-6.4-3.9c-1.1-0.9-2.4-1.6-3.6-2.4 c-1.3-0.8-2.7-0.9-4.1-0.3c-2.2,0.9-4.4,1.8-6.3,3.4c-3.2,2.7-6.8,4.9-10.6,6.7c-10.9,5.3-22.5,9-33.4,14.4c-4,2-8.1,3.9-11.7,6.5 c-1,0.7-1.5,1.7-1.2,3c0.1,0.6,0.2,1.2,0.2,1.8c0,6.2,0,12.5,0,18.7c0,1.7,0.6,2.2,2.2,1.9c0.3-0.1,0.6-0.3,1-0.1 c2.4,1.7,5,3,6.5,5.7c1.1,2.1,2.8,2.7,5.1,2.7c2.2,0,4.4-0.1,6.6,0.4c4.7,1.2,8.3,3.6,9.4,8.7c0.2,0.9,0.7,1.6,1.5,2.2 c1.3,1,2.8,1.8,3.5,3.5C368.2,437.1,368.3,437.1,368.4,437.2z M170.7,320.9c0-6.9-1.2-13.7-1.1-20.6c0-2.6-1.1-4.3-3.1-5.7 c-1.8-1.3-3.7-2.5-5.5-3.7c-4.3-2.9-8.3-6.5-13.4-8.3c-3.9-1.3-7.6-2.8-11.2-4.7c-1.5-0.8-3-1.8-4.7-0.4c-0.3,0.2-0.8,0.2-1.2,0.2 c-2.4,0.1-4.6,0.9-6.7,1.8c-3.5,1.5-6.8,3.5-10.4,4.9c-4.7,1.9-9.7,3.2-13.9,6.3c-0.3,0.2-0.6,0.3-1,0.2c-1.4-0.4-2,0.5-1.9,1.6 c0.3,3.5,0.1,7.1,0.3,10.6c0.4,6.1,0.9,12.3,1.4,18.4c0.4,5,0.3,10.1,0.3,15.1c0,1.5,0.4,2.9,1.7,3.7c3.4,2.2,6.7,4.3,10.1,6.5 c5.4,3.4,11.3,5.7,16.4,9.6c2.1,1.6,4.3,3.2,6.7,4.5c0.6,0.3,1.3,0.8,2,0.4c2.3-1.5,5-2,7.3-3.5c7.4-4.9,15.3-9,23.1-13 c2.4-1.2,3.5-3.3,3.8-5.5c0.7-5.3,0.9-10.6,0.8-15.9C170.7,322.5,170.7,321.7,170.7,320.9z" fill="#FEC741"/></g><g id="change4_1"><path d="M388.1,358.6c-2.8,1.4-5.7-0.3-5.9-3.3c-0.5-5.1-0.3-10.3-0.1-15.4c0.3-7.5,0.5-15.1,0.6-22.6 c0.1-6.2,0.2-12.4,0.3-18.6c0.1-4.9-0.7-9.7-1.1-14.5c-0.6-7-0.6-14-0.7-21c0-6.8,0.1-13.5,0.1-20.3c0-3.6,1-7.1,0.6-10.7 c-1.1-11.7-1.1-23.4-1-35.2c0-3.8,0.2-7.5,0.4-11.3c0-1,0.1-1.8-0.5-2.7c-0.5-0.9-0.5-1.9,0.4-2.8c2.5-2.3,4.8-4.6,7.8-6.4 c14.9-8.6,30.3-16.4,45.4-24.7c5.6-3.1,11.2-6.4,17.1-9.1c1.3-0.6,1.8,0.1,2.1,1.1c0.2,1,0.3,2.1,0.3,3.2c0,10.9,0.2,21.8,0.5,32.7 c0.5,16,1.3,32.1,0.9,48.1c-0.4,12.9,0,25.9-0.4,38.8c-0.4,12.6,0.5,25.3,0.1,37.9c-0.2,7.1-0.9,14.1-1.6,21.1 c0,0.2-0.1,0.5-0.1,0.7c0.7,3.6-1.5,5.1-4.2,6.8c-11.5,6.8-23.7,12.1-35.8,17.9c-7.3,3.5-14.5,7.3-21.8,10.9 C389.5,360.1,389.3,360,388.1,358.6z M171.3,298.3c0.9-0.2,1.4,0.6,1.8,1.3c0.4,0.8,0.6,1.6,0.9,2.3c1,2.4,2.6,4,5.4,4 c2.1,0,4.2,0.2,6.3,0.2c2.1,0,3.5,1,4.4,2.8c0.3,0.6,0.7,1.3,1,1.9c2,3.3,3.6,4,7.3,2.9c2.8-0.8,3.5-0.4,4.3,2.3 c1.4,4.5,2.4,5.3,7.2,5.3c3.1,0,3.1,0,4.2,2.9c1,2.8,2.7,3.7,5.7,3.3c0.5-0.1,1.1,0,1.6-0.2c2.1-0.5,3.4,0.2,4.3,2.2 c1.8,4,4.7,6,9.3,5.2c0.8-0.2,1.4-0.1,2.1,0.2c0.7,0.4,1.1,1,1.8,2.6c1.4,3,1.3,2.7,1.4,3c0.3,0.5,1.9,3,4.6,3.6 c0.7,0.2,1.5,0.2,3.2,0.2c2.3,0,2.2-0.2,2.8,0c1.9,0.7,1.4,3.5,3.5,4.3c0.8,0.3,1.8,0.5,2.8,0.3c2.6-0.4,4.5-0.1,5.4,2.6 c0.1,0.3,0.4,0.6,0.7,0.8c0.9,0.5,1,1.3,1.1,2.3c0.1,5.4,0.1,10.9,0.6,16.3c1,12.1,1.6,24.2,2.2,36.4c0.4,7.1,0.2,14.1,1.1,21.2 c0.1,0.8,0,1.6,0.9,2c1.2,0.6,4.5,0,5.5-1c3.7-3.4,7.2-7,10.7-10.6c12.2-12.3,24.5-24.4,36.8-36.6c0.7-0.7,1-1.4,1-2.5 c-0.2-8.9-1-17.7-0.9-26.6c0.2-17,1-34,1-51c0-15.9-0.4-31.9-1.4-47.8c-0.5-9-0.8-17.9-1.2-26.9c-0.2-3.5-0.5-7-0.9-10.5 c-0.2-1.9-1.3-2.3-2.8-1.1c-0.2,0.2-0.5,0.4-0.7,0.6c-3.7,3.5-7.5,6.9-10.9,10.7c-2.1,2.3-4.1,3-7.2,2.2c-2.6-0.7-4.7-1.7-5.6-4.4 c-1.6-4.8-5.2-6.7-10-6.2c-2.8,0.3-4.4-0.8-5.4-3.3c-0.1-0.4-0.4-0.7-0.5-1.1c-1.2-3-3.7-4.4-6.7-4.5c-2.9-0.1-4.9-1.2-5.9-3.9 c-1.7-4.6-5.2-6.3-9.7-6.1c-2.9,0.1-4.6-1.1-5.7-3.6c-0.3-0.7-0.7-1.4-1.1-2.1c-1.2-2.3-3.2-3.6-5.7-4.2c-2.1-0.5-4.3-0.4-6.4-0.3 c-2.1,0-3.5-0.9-4.4-2.7c-0.3-0.7-0.6-1.4-0.9-2.2c-0.6-2-2-3.1-4-3.7c-1.5-0.5-3-0.4-4.4-0.3c-2.7,0.2-2.9,0.2-3.8-2.4 c-1.2-4-3.9-5.9-7.9-6c-3.8-0.1-6.2-1.8-7.4-5.5c-0.9-2.7-3.1-3.9-5.9-4.3c-1.2-0.1-2.4-0.1-3.6,0.1c-1.8,0.3-2.8-0.3-3.3-2.1 c-0.9-3.4-3.2-5.2-6.6-5.7c-1.4-0.2-2.9-0.1-4.3-0.1c-3,0-3.6-0.5-4.2-3.3c-0.5-2.1-1.6-3.5-3.8-4c-1.5-0.4-3-0.2-4.4,0.2 c-2.7,0.7-2.7,0.7-3.6-1.8c-0.9-2.4-2.1-4.4-4.9-5c-1.6-0.3-3.2-0.5-4.8-0.4c-3.3,0.2-3.8,0-4.9-3c-1.2-3.1-3.3-4.7-6.7-4.6 c-1,0-2.1-0.1-3,0.1c-2.1,0.4-3.6-0.5-4.6-2.2c-0.4-0.6-0.7-1.2-1.1-1.8c-2.1-3.6-5.1-4.8-9.1-3.7c-2.8,0.8-2.8,0.8-3.9-1.9 c-0.2-0.5-0.4-1-0.6-1.5c-0.9-2.1-2.4-3.3-4.7-3.7c-1.7-0.3-3.5-0.2-5.2-0.2c-1.6,0.1-2.5-0.6-3-2c-0.3-1.1-0.6-2.3-0.9-3.4 c-0.7-2.3-3.2-3.9-5.5-3.5c-1.5,0.3-2.4,1.2-2.5,2.8c-0.1,1.7,0.3,3.2,0.8,4.7c0.9,2.5,0.9,5-0.1,7.5c-1.2,2.8-1,5.3,1.1,7.7 c1.3,1.5,1.7,3.2,0.9,5c-1.8,3.9-1.6,7.7,0.4,11.5c1,1.8,1.4,3.8,0.1,5.8c-1.5,2.5-1.5,5.1,0,7.7c1.2,2.1,1.4,4-0.2,6.1 c-2.1,2.7-2.1,5.5,0.1,8.2c0.3,0.3,0.5,0.7,0.7,1.1c1.5,2.5,1.4,4.7-0.4,7c-0.3,0.4-0.5,0.8-0.9,1.2c-2.1,2.5-2.3,5.2-0.8,8.1 c1.8,3.4,2.4,6.5-0.7,9.8c-2.3,2.4-2.5,5.6-0.8,8.7c0.5,0.8,0.9,1.7,1.4,2.5c1.1,1.8,1.2,3.5-0.2,5.3c-1.5,2-1.5,4.1-0.3,6.2 c0.7,1.3,1.6,2.5,2.4,3.8c1.2,1.7,1.2,3.4-0.1,5.1c-2.4,3-3.3,6.1-1,9.7c1.2,1.8,1,3.9-0.2,5.8c-0.4,0.7-0.9,1.4-1.1,2.2 c-0.5,2.1-1.4,4.5,0.2,6.4c1.8,2.2,4.1,3.8,7.1,4.1c2.4,0.2,4,1.3,5,3.7c1,2.6,3.1,4,6,3.8c2-0.1,3.9,0.2,5.8,0.8 c1.3,0.4,2.2,1.1,2.7,2.6c1.2,3.5,2.8,4.4,6.4,3.3c1.2-0.3,2.1-0.3,3.1,0.6c0.9,0.8,2.2,1.3,3.5,1.7c-2.4-5.1-2.9-5.3-8.3-4.4 c-1.6,0.3-2.1-0.8-2.4-1.9c-0.7-2.4-2.3-3.7-4.5-4.4c-1.9-0.6-3.8-1.1-5.8-0.9c-2.4,0.2-3.9-0.8-4.7-3c-0.7-1.8-1.8-3.2-3.7-3.8 c-1.1-0.3-2.2-0.4-3.3-0.8c-3.5-1.1-6.4-2.8-5-6.8c0.2-0.6,0.4-1.1,0.8-1.6c2.2-3,2.1-6.1,0.3-9.1c-1.2-2-1.1-3.7,0.3-5.4 c0.3-0.4,0.5-0.9,0.9-1.4c1.8-2.3,1.8-4.7,0.4-7.2c-0.7-1.1-1.4-2.2-2.2-3.3c-1.1-1.6-1.5-3.2-0.1-4.9c1.7-2.1,1.6-4.5,0.3-6.9 c-0.4-0.7-0.8-1.5-1.2-2.2c-1.8-3.1-1.7-5.2,0.8-7.8c2.2-2.3,2.7-4.8,1.7-7.8c-0.3-1.1-0.6-2.2-1.2-3.2c-1.6-2.6-1.1-4.7,0.8-6.8 c1-1.1,1.7-2.3,2.1-3.7c0.7-2.9-0.3-5.3-2-7.5c-1.5-1.9-1.6-3.8-0.1-5.7c2.2-2.6,2.1-5.4,0.5-8.2c-1.2-2.1-1.2-4.2,0.1-6.2 c1-1.5,1-3.2,0.6-4.9c-0.3-1.3-0.9-2.6-1.5-3.8c-1.2-2.4-1.3-4.8-0.2-7.3c1.5-3.3,1.1-6.3-1.3-9c-1-1.2-1.3-2.5-0.7-3.8 c1.8-3.8,1.4-7.5,0.1-11.3c-0.4-1-0.7-2-0.1-3.1c1.7,0,3,0.4,3.1,2.4c0,0.5,0.2,1.1,0.3,1.6c0.9,3.7,2.8,5.1,6.6,4.9 c1.1,0,2.3-0.1,3.4,0c1.5,0.1,2.7,0.8,3.3,2.3c0.4,1.1,0.9,2.1,1.4,3.1c1.2,2.3,2.5,2.8,5,2.1c1-0.3,2-0.7,3.1-0.7 c2.2,0.1,3.5,1.4,4.5,3.3c1.7,3.4,4.1,5.6,8.4,4.9c4.5-0.7,5.2-0.2,7,3.8c1.3,2.9,2.9,3.9,6,3.8c0.8,0,1.7-0.1,2.5,0 c3.7,0,4.5,0.6,5.8,4.1c1.4,3.7,2.5,4.2,6.2,3.1c3.6-1.1,4.7-0.5,5.7,3.1c0.6,2.1,1.8,3.4,4,3.8c1.7,0.4,3.3,0.2,5,0.2 c2.8,0,5,1.3,5.9,4.2c1,3.4,2.3,4.1,5.9,3.8c4.9-0.4,5.6-0.1,7.7,4.4c1.4,3.1,3.7,4.9,7.2,5c3.7,0.1,6.7,1.2,7.5,5.3 c0,0.1,0.1,0.2,0.1,0.3c1.3,2.7,2.5,3.4,5.6,3c3.9-0.5,5.3,0.2,6.8,3.9c1.6,3.8,3.6,5.3,8,4.9c5-0.4,8.7,1,10.6,6.1 c1.1,2.9,3.5,4.4,6.8,4.2c1.1-0.1,2.3,0.1,3.4,0.3c2.3,0.4,3.6,1.9,4.5,4c1.3,3.1,3.1,5.8,7,5.7c3.2-0.1,5.2,1.3,6.4,4.4 c1.3,3.3,3.6,5.2,7.5,4.7c3.9-0.5,6.7,1,8,5c1,3.1,3.5,4.8,6.6,5.4c0.9,0.2,1.8,0.4,2.8,0.5c-0.5,1-1.3,1.4-2,2 c-9.2,8.6-18.3,17.3-27.5,25.8c-2.4,2.2-4.8,4.5-7.1,6.9c-1.2,1.2-1.5,2.4-1.4,4c0.3,9,0.6,18,0.7,26.9c0.1,15.5,0.8,31,1.5,46.5 c0.1,1.4,0,2.9,0,4.6c-2-3-2-3-5.1-2.5c-1.8,0.3-3,0.2-3.9-0.3c-1.3-0.8-0.6-2.2-2.1-3.4c-0.8-0.7-1.8-0.9-2.4-1.1 c-1-0.2-1.4-0.1-4.1,0c-2,0.1-2.3,0-2.7-0.2c-0.7-0.4-0.7-1-1.5-2.6c-0.2-0.3-0.6-1.1-1.6-2.8c-1.7-2.9-2-3.2-2.3-3.4 c-0.9-0.5-2-0.6-3.3-0.4c-3.9,0.7-6-0.9-7.4-4.3c-1-2.5-3.1-3.4-5.6-3.3c-0.8,0-1.7,0.1-2.5,0.3c-1.8,0.6-2.7-0.4-3.3-1.9 c-1.4-3.9-2.1-4.3-6.3-4.3c-3.8,0-3.8,0-4.9-3.7c-1-3.4-3.4-5.1-6.4-4.1c-3.7,1.2-4.2,1.1-6.2-2.8c-0.2-0.3-0.4-0.6-0.5-0.9 c-1.3-2.3-3.3-3.5-6-3.6c-2-0.1-4.1-0.2-6.1-0.2c-1.8,0-2.9-0.8-3.5-2.5c-0.3-0.8-0.6-1.7-1-2.5c-0.8-1.7-2.2-2.6-4.1-2.7 c-1,0-1.9,0-3.2,0C169,297.2,169.4,298.6,171.3,298.3z M144.5,59c-3.9-1-6.6,0.8-7,4.6c-0.1,0.6-0.3,1.2-0.2,1.8 c0.1,1.1-0.6,1.5-1.5,1.5c-1.3-0.1-2.6,0.2-3.9-0.1c-3.3-0.7-7.6,1.5-7.5,5.7c0.1,3.8-0.6,3.6-4.1,3c-0.6-0.1-1.2-0.2-1.8-0.3 c-3.1-0.7-5.4,0.7-7.3,2.8c-0.9,1.1-1.3,2.4-0.4,3.6c1.4,1.9,3,3.4,5.5,3.7c1.7,0.2,3.3,0.4,5,0.1c1.8-0.3,3,0.5,3.7,2.1 c0.3,0.7,0.8,1.3,1.4,1.8c2,1.7,4.2,2.2,6.7,1.8c3.6-0.6,6.1,0.8,7.7,4.1c0.5,1,1.3,1.8,2.2,2.6c2.5,2,5.3,1.7,8.1,1.3 c1.6-0.2,2.4,0.3,2.7,1.9c0.3,1.6,1,3,2.3,4.3c2.2,2.2,5,2.1,7.6,2.7c2.1,0.5,4.4,0.6,4.6,3.5c0,0.3,0.3,0.5,0.5,0.7 c2.2,3.2,5.5,3.6,8.9,3.1c1.5-0.2,1.8,0.3,2.3,1.4c0.9,1.9,2.2,3.4,4.2,4.4c1.9,1,3.9,1.3,6,1.6c2.7,0.3,5.1,0.8,5.9,4.1 c0.6,2.2,2.3,3.8,4.2,5.2c0.9,0.7,1.9,1,3.1,0.9c1.2-0.1,2.5-0.3,3.7-0.5c4.5-0.4,4.9-0.2,6.9,3.8c1.8,3.8,4.1,4.9,8.2,4.2 c2.5-0.4,4.8-0.3,6.2,2.5c0.5,1,1.2,2.1,2.4,2.8c2.1,1.4,4.5,1.8,6.9,2.4c2,0.5,3.4,1.3,3.7,3.7c0.3,2.3,3.1,4.4,5.1,3.9 c1.1-0.3,2.3-0.3,3.4-0.3c3.4-0.1,4,0.5,5.1,3.7c0.8,2.2,2.2,4,4.8,4.6c2,0.4,3.9,0.5,5.9,0.5c2.4,0,3.8,1.1,4.4,3.5 c0.2,0.6,0.3,1.3,0.4,1.9c0.9,4.2,3.9,6.2,8,5.4c0.3-0.1,0.7-0.1,1,0c2.1,0.4,3.6,1.3,4,3.7c0.5,2.8,2.1,5.2,4.9,6.1 c1.9,0.6,4,0.7,6,0.9c2.9,0.3,2.9,0.3,3.8,3.2c0.7,2.5,2.1,4.2,4.8,4.7c1.7,0.3,3.3,0.4,5,0.2c1.2-0.1,2.5-0.2,2.9,1.7 c0.5,2.6,2.4,4.4,4,4.5c3.1,0.1,5.7-1.6,6.7-4.5c0.7-2.2,3.1-3.5,5.5-3.1c3.6,0.7,4.4,0.3,6.3-2.8c0.5-0.8,1-1.6,1.6-2.4 c2.2-3.5,3-3.8,7.1-3.1c2.4,0.4,4.6-0.5,5.2-2.4c0.4-1.3,1.1-2.4,1.7-3.5c1.7-3.2,2.8-3.7,6.3-2.9c5,1.1,5.8,0.7,7.6-4.2 c1.2-3.2,3.4-5.3,6.6-4.9c4.5,0.5,7-1.8,9-5.3c2.6-4.6,4.6-5.5,9.9-4.5c2.1,0.4,4,0.3,5.2-1.8c1.1-2,2.7-3.7,4.1-5.4 c0.4-0.4,0.8-0.7,1.3-0.9c2-0.7,3.9-1.4,6-1.1c3.3,0.6,5.2-1.1,6.5-3.8c1-2.1,2.4-3.3,4.9-2.7c0.8,0.2,1.7,0,2.5-0.1 c0.7-0.1,1.2-0.6,1.4-1.3c0.5-1.6-1.5-5.9-3-6.4c-2-0.7-3.9-1.4-6-1.5c-1.5-0.1-2.6-1.5-2.2-2.8c0.5-2.1-0.7-4.9-2.8-5.7 c-2-0.7-4.1-1.4-6.2-1.6c-2.6-0.3-4-2.1-5-4.1c-1.1-2.1-3.3-4.1-5.6-4.2c-2.7-0.1-5.2-1-7.7-2.1c-1.1-0.5-1.9-1.3-2-2.7 c-0.1-1.5-0.9-2.9-2.3-3.7c-2.3-1.3-4.9-2-7.5-1.8c-2,0.1-3.2-0.9-4.3-2.3c-0.9-1.1-1.7-2.3-2-3.8c-0.1-0.7-0.6-1.1-1.2-1.5 c-2.4-1.6-5.1-1.6-7.8-1.5c-4.1,0.2-5.4-0.2-6.5-5c-0.2-0.9-0.7-1.4-1.4-1.8c-1.3-0.9-2.7-1.3-4.2-1.2c-4.2,0.3-7.5-1.4-10-4.8 c-2-2.7-4.8-4.1-7.9-3.6c-3.2,0.5-5.3-0.5-6.9-3.9c-0.8-1.7-1.9-3.2-3.7-3.7c-2.2-0.7-4.4-1.1-6.7-1.2c-3-0.1-4.9-2.1-6.3-4.5 c-1.1-1.8-2.3-3.3-4.2-4.2c-1.7-0.8-3.5-0.5-5.2-0.6c-3-0.2-4.7-1.6-5.5-4.5c-0.2-0.7-0.4-1.5-0.8-2.2c-1.8-3.2-4.8-3.7-8-3.8 c-1.9,0-3.7-0.2-5.1-1.6c-0.9-1-1.8-1.9-2.4-3.1c-1.3-2.6-3.5-4-6.4-4.4c-1.4-0.2-2.7-0.4-4.1-0.3c-2.1,0.2-3.4-0.8-4.2-2.6 c-0.3-0.7-0.8-1.3-1.3-1.9c-2.2-2.4-5.1-2.8-8-3.1c-3.2-0.2-5.7-1.4-7.1-4.6c-1.2-2.6-3.4-4-6.2-4.8c-0.9-0.2-1.7-0.4-2.6-0.6 c-2.2-0.4-3.9-1.4-5-3.4c-0.5-0.9-1.2-1.8-1.8-2.6c-1.3-1.7-3.8-2.5-5.8-1.9c-2,0.6-3.4,1.5-2.8,3.9c0.1,0.2-0.1,0.6-0.2,0.9 c-1.4,0-2.8-0.4-4.1-0.7c-2.1-0.5-3.6,0.1-4.7,2c-0.5,0.9-1,1.9-1.4,2.9c-2.2,5.5-1.7,5.1-7.3,3.7c-2.7-0.7-4.1-0.2-5.7,2.1 c-1,1.5-1.6,3.2-2.1,4.9c-0.2,0.8-0.5,1.7-1.5,1.7c-1.4,0-2.9,0.3-4.3-0.2c-2.6-0.8-5.1,0.5-6,3.1c-0.4,1.2-0.8,2.4-1.1,3.6 c-0.3,1-0.8,1.5-1.9,1.5c-1.7,0-3.2-0.5-4.7-1c-3.4-1.2-7.1,1.7-7.6,5.4c-0.1,1.1-0.4,2.2-0.6,3.3c-0.1,0.9-0.7,1.2-1.6,1 c-0.6-0.1-1.3-0.3-1.9-0.5c-3.6-1.3-6.3,0-7.7,3.6c-0.5,1.5-0.6,3-0.9,4.6C147.6,59.8,146.1,59.4,144.5,59z M360.9,170.1 c-0.1,0.3-0.2,0.7-0.3,1c-0.8,2.3-1.1,2.3-3.5,2.1c-1.2-0.1-2.4-0.3-3.5-0.4c-2.4-0.2-4.4,0.4-5.6,2.7c-0.7,1.3-1.7,2.4-2.2,3.9 c-0.9,2.2-1.9,2.7-4.3,2.4c-4.1-0.6-7,0.9-8.9,4.7c-2,3.9-2,4-6.4,3.5c-2.4-0.3-4.2,0.5-5.4,2.5c-0.8,1.2-1.5,2.4-2.4,3.6 c-0.6,0.9-1.4,1.6-2.7,1.5c-1.3-0.1-1.6-1.1-1.9-2.1c-1.4-3.6-4.1-5-7.9-4.2c-2.4,0.5-4.8-1-5.4-3.4c-0.9-3.6-3.1-5-6.9-4.9 c-3.9,0.1-6.9-1.2-7.8-5.7c-0.6-3.1-2.7-4.5-6.6-4.8c-0.5,0-1,0-1.4,0c-3.1,0-3.7-0.5-4.5-3.5c-0.2-0.9-0.4-1.9-0.7-2.8 c-1.4-4.2-5.9-5.1-9.1-4.6c-3,0.4-5.1-0.8-6-3.7c-1-3.5-2.6-4.8-6.1-4.7c-1.7,0-3.4,0-5,0c-1.4,0-2.3-0.6-2.7-2.1 c-0.9-3.7-3.3-5.4-7.3-5.5c-2.5-0.1-4.4-1.7-5.5-3.6c-2.2-3.7-5.6-4.1-9.1-3.8c-3.1,0.2-5-0.7-6-3.6c-1.4-4.1-4.3-5.5-8.4-4.3 c-4.1,1.3-7.2,0.1-8.6-4c-1.4-4.1-4.2-5.5-8.1-6c-2.7-0.3-5.6-0.3-7.3-3c-0.3-0.5-0.8-0.9-0.9-1.5c-0.6-2.3-2.4-2.8-4.4-2.9 c-1.2-0.1-2.4,0.1-3.6,0c-2-0.1-3.4-1.1-3.9-3.1c-0.6-2.4-2.1-3.6-4.6-3.8c-1.6-0.2-3.1-0.7-4.8-0.7c-1.8,0-4-2.1-4.5-3.8 c-0.1-0.3-0.2-0.7-0.3-1c-0.6-2.7-1.7-3.6-4.5-3.7c-1,0-2-0.1-3.1,0.1c-2.9,0.4-4.8-0.8-6.1-3.3c-1.8-3.6-4.8-5.2-8.8-4.7 c-3.3,0.4-5.8-0.2-7.3-3.6c-0.7-1.6-2.5-2.1-4.3-2.1c-1.7,0-3.5,0-5.2,0c-1.9-0.1-3.7-1.3-3.7-2.5c0-1.2,2.1-2.6,3.9-2.5 c1.4,0.1,2.7,0.4,4.1,0.6c3.6,0.5,4.9-0.5,5.4-4c0.1-0.9,0.3-1.9,0.6-2.8c0.7-1.7,2-2.4,3.8-2.2c1.5,0.1,3,0.2,4.5,0.1 c2.9-0.1,4.1-1.3,4.3-4.2c0-0.5,0-1.1,0.1-1.6c0.2-1.8,1.6-2.7,3.3-2.3c1.9,0.5,3.7,1,5.6,0.9c1.9-0.1,2.7-0.8,2.9-2.7 c0.2-1.5,0.2-3.1,1-4.5c0.8-1.3,1.8-2,3.6-1.4c5.3,1.9,6.5,1.2,7.8-4.2c0.2-0.9,0.4-1.8,0.7-2.6c0.9-2,2.2-2.6,4.3-1.9 c1,0.3,2,0.6,3,0.7c4.5,0.4,5.3-0.2,6.5-4.4c0.2-0.6,0.4-1.3,0.7-1.8c0.7-1.4,1.3-2.4,3.3-1.8c1.4,0.4,3.1,0.3,4.6,0.2 c2.6-0.1,3.6-1,4.4-3.4c0.4-1.4,0.8-2.9,1.6-4.2c0.7-1.2,1.5-1.7,3-1.1c1.4,0.6,2.9,0.7,4.4,0.8c2.1,0.2,3.5-0.7,4.3-2.5 c0.8-1.8,1.6-3.6,2.3-5.4c0.5-1.4,1.5-1.7,2.9-1.3c1.3,0.3,2.5,0.6,3.9,0.7c1.8,0.1,2.7-0.8,3-2.4c0.2-1.1,0.4-2.3,1.5-2.5 c1.3-0.3,2.3,0.6,2.9,1.7c2.1,4,5.3,6.3,9.8,6.8c2.2,0.3,4.1,1.5,5,3.7c1.8,4.3,5.4,5.6,9.6,6c1.1,0.1,2.1,0.4,3.2,0.6 c1.7,0.3,2.8,1.2,3.4,2.8c1.3,3.2,3.8,4.5,7.2,4.2c0.7,0,1.3,0,2,0c2.5,0.2,4.5,1,5.9,3.3c1.6,2.8,3.7,5.3,7.3,5.8 c1.2,0.2,2.4,0.1,3.6,0.2c3.1,0.2,4.4,1.3,5.3,4.2c0.5,1.5,1,3,2.2,4.2c1.6,1.6,3.6,1.5,5.5,1.6c3.2,0.1,5.6,1.2,7.4,3.9 c1.8,2.8,3.9,5.4,7.7,5.8c1.2,0.1,2.4-0.3,3.7,0c2.2,0.5,3.8,1.5,4.9,3.5c0.6,1.1,1.2,2.2,2.1,3.1c1.8,1.9,3.9,2.8,6.6,2 c1.9-0.6,3.6-0.1,5.1,1.3c1.2,1.2,2.4,2.3,3.5,3.6c1.8,2,4.1,3,6.8,3.1c0.4,0,0.8,0.1,1.3,0.1c3,0,5.3,0.8,6.1,4.2 c0.7,3.3,3.6,3.9,6.5,4.3c1.7,0.2,3.5,0.1,5.2,0c1.6-0.1,2.7,0.5,3.2,2c1.8,5.7,6.1,7.2,11.6,7.1c1.8,0,3.3,0.9,3.8,2.7 c1.2,3.9,3.9,5.7,7.7,6.4c1.5,0.3,2.9,0.8,4.4,0.9c2.6,0.3,3.6,2.2,4.6,4.1c1.7,3.2,4.6,4.2,7.8,4.5c2.1,0.2,3.6,1.3,5.1,2.3 c0.5,0.3,0.4,0.8,0.2,1.3c-1.1,4,0.2,4.1,3.2,5.8c1,0.6,2.2,0.8,3.5,0.7c1.7,0,2.9,0.9,3.8,2.3c0.3,0.4,0.6,0.9,0.3,1.3 c-0.3,0.4-0.7,0.6-1.2,0.5c-3.6-0.6-5.5,1.3-6.9,4.3c-1.1,2.3-1.8,2.7-4.2,2.3c-5-0.9-8.6,1.4-11.3,5.3c-3.4,5-1.7,4.4-7.7,3.6 c-4-0.6-7.9,1.9-9.6,5.9c-1.5,3.5-2.8,4.4-6.5,4.3C365.2,163.9,362.5,165.7,360.9,170.1z M177.8,235.2c0,0.1-0.1,0.2-0.1,0.3 c-0.3,1-0.6,2.1-0.8,3.1c-0.9,4.8,1.5,8.6,6.2,9.7c1.3,0.3,2.6,0.3,3.9,0.4c3.2,0.1,6.3-0.4,9.4-1.2c0,0.6,0.1,1,0.1,1.4 c0.1,5.7,2.3,7.8,8,7.7c0.8,0,1.6,0,2.3-0.1c2.6-0.1,5-1,7.7-1.4c-0.1,0.7-0.2,1.3-0.3,1.9c-0.5,4.7,2.8,7.9,7.4,7.2 c1.4-0.2,2.7-0.6,4-1.1c6.4-2.5,12.7-5.5,19.4-7.3c0.2,0,0.3-0.1,0.5-0.2c0.5-0.3,1-0.7,0.8-1.4c-0.2-0.8-0.8-1.1-1.5-0.9 c-0.8,0.1-1.5,0.3-2.3,0.6c-5.9,1.7-11.5,4.3-17.2,6.5c-1.6,0.6-3.2,1.3-5,1.2c-1.8-0.1-3.1-1.1-3.3-2.7c-0.4-2.3,0.6-4.8,2-5.4 c4.8-1.9,9.6-4,13.9-7.1c3.3-2.4,6.5-5,8.5-8.6c1.3-2.3,1.3-4.6,0-5.7c-1.7-1.5-3.6-1-5.4-0.1c-7.6,4.1-14.1,9.6-18.7,16.9 c-1.4,2.2-2.8,3.4-5.3,3.9c-3.1,0.6-6.2,1.5-9.4,1c-2.3-0.3-3-1.1-3.3-3.3c-0.1-0.6,0-1.2-0.1-1.8c-0.2-1.5,0.4-2.3,2-2.8 c8.6-2.9,16.4-7.3,22.9-13.7c1.6-1.6,3-3.3,3.7-5.5c0.8-2.4-0.5-4.3-3.1-4.4c-0.8,0-1.5,0-2.3,0.3c-10.8,3.7-19.2,10.3-24.6,20.5 c-0.4,0.7-0.6,1.4-1.5,1.6c-4,1-7.9,1.8-12,1.1c-1.5-0.3-3-0.6-3.9-1.9c-2.3-3-0.5-9.7,3-11c5.7-2.2,11.4-4.5,16.4-8.1 c3-2.2,6-4.5,7.5-8c1.2-2.8-0.6-5.1-3.6-4.9c-2.1,0.1-3.9,0.9-5.7,1.9c-7.5,3.9-13.1,9.7-17.7,16.7c-0.4,0.5-0.6,1.1-1.4,1.4 c-3.2,1.2-6.5,1.9-10,1.9c-4.8,0-7.7-4.3-6.9-8.3c0.3-1.8,0.3-3.9,2.4-4.9c4.7-2.1,9.2-4.6,13.3-7.8c3.3-2.5,6.6-5,8.8-8.6 c0.5-0.9,1-1.8,0.3-2.9c-0.7-1.1-1.8-0.8-2.8-0.8c-0.3,0-0.7,0.2-1,0.3c-8.2,2.5-14.6,7.6-19.2,14.6c-2.2,3.4-5,5-8.5,6.1 c-1.3,0.4-2.5,0.9-3.7,1.2c-1.8,0.5-3.6,1-5.5,0.9c-2-0.2-3.1-1.1-3.5-3c-0.4-2,0.6-4.1,2.1-4.8c7.3-3.4,14.1-7.5,20.1-13 c1.6-1.5,3.4-2.9,4.5-4.9c1.4-2.4,0.3-4.6-2.5-4.8c-0.8-0.1-1.5,0-2.3,0.2c-2.1,0.5-4.1,1.4-5.9,2.5c-6.9,4.5-12.5,10.4-16.7,17.5 c-0.3,0.5-0.4,1-0.9,1.3c-3.1,1.4-6.2,3.1-9.7,3.4c-0.9,0.1-1.6,0.2-1.6,1.2c0,1.1,1,1.4,1.8,1.3c1.2,0,2.5-0.3,3.7-0.7 c1.6-0.6,3.2-1.2,4.9-1.8c0,0.9,0,1.5,0,2.2c0.1,3.4,2.4,5.7,5.7,5.9c2.2,0.2,4.3-0.2,6.3-0.9c2.5-0.8,5-1.6,7.7-2.5 c-0.2,0.6-0.3,1-0.3,1.3c-1.4,7,2.8,12.4,9.8,12.5c2.7,0,5.3-0.6,7.9-1.2C177.5,235.1,177.7,235,177.8,235.2z M166.2,216.8 c0-0.1,0-0.1,0-0.2c0.1,0,0.2,0,0.3,0c0-0.2-0.1-0.4,0-0.5c4.3-5.8,9.7-10.1,16.4-12.8c0.2-0.1,0.5-0.1,0.7-0.1 c0.1,0,0.2,0.1,0.6,0.2c-5,5.7-10.9,10-17.7,13.1C166.3,216.7,166.2,216.8,166.2,216.8z M220.2,250c-0.2-0.2,0.1-0.3,0.2-0.5 c2.8-4.5,6.8-7.8,10.8-11.1c2-1.6,4-3,6.3-4c0.6-0.2,1.2-0.6,2-0.3c0.4,1.7-0.6,2.9-1.5,4.1c-2,2.5-4.4,4.6-7,6.3 c-3.2,2.1-6.6,4-10.3,5.3C220.6,250,220.4,250.1,220.2,250z M146,212.1c0-0.1,0-0.1,0-0.2c0.1,0,0.2,0,0.3,0 c0.2-1.7,1.5-2.7,2.5-3.9c3.5-4.2,7.4-8,12.2-10.8c1.9-1.1,4-2.1,6.4-1.8c0.3,0.9-0.2,1.4-0.6,1.9c-5.9,6.2-12.7,11.1-20.4,14.6 C146.2,212,146.1,212.1,146,212.1z M210.3,232.4c4-3.1,8.2-5.9,13.3-7.2c0.6-0.2,1.3-0.6,1.8,0.1c0.4,0.6-0.1,1.3-0.4,1.8 c-1.1,2-2.7,3.4-4.4,4.9c-5.4,4.9-11.6,8.3-18.4,10.7c-0.2,0.1-0.4,0.1-0.9,0.1C203.7,238.7,206.6,235.2,210.3,232.4z M195.3,218.4 c2.3-1.5,4.6-3,7.3-3.8c0.8-0.2,1.8-0.6,2.3,0.1c0.6,0.8-0.1,1.6-0.6,2.2c-3,4.1-7.1,6.7-11.5,8.9c-2.7,1.4-5.4,2.6-8.7,3.7 C187.3,225,190.9,221.4,195.3,218.4z M96.1,86.2c10.2,5.9,20.5,11.5,31.1,16.8c11.3,5.6,22.3,11.8,33.3,18 c9.1,5.1,18.5,9.7,27.1,15.8c2.1,1.5,4.3,2.9,6.6,4.1c9.1,4.9,18.1,10.1,26.7,15.7c13,8.5,25.3,18.1,38.3,26.6 c8.7,5.7,17.3,11.6,26.4,16.5c5.2,2.9,10.9,4.9,16.1,7.9c4.1,2.4,8.2,4.7,12.3,7.1c0.8,0.4,1.6,0.8,2.2-0.1c0.6-0.9,0-1.6-0.7-2.1 c-0.9-0.7-1.9-1.3-2.9-1.8c-7.9-4.7-16.2-8.6-24.5-12.8c-13-6.5-24.9-15-36.7-23.4c-17.7-12.5-35.2-25.2-54.4-35.3 c-8.5-4.5-16.2-10.4-24.7-15c-15.3-8.3-30.4-17.1-46.1-24.9c-11-5.5-21.8-11.4-32.4-17.6c-2.8-1.6-5.5-3.5-8.5-4.8 c-0.5,0.8-0.6,1.5-0.7,2.3C88.4,81.5,92.2,83.9,96.1,86.2z M25.8,228c-0.7-2.6-0.1-5,1.1-7.4c1.6-3.1,4-5.6,6.1-8.4 c1.8-2.4,1.6-3.4-0.9-5c-8.6-5.3-17.2-10.7-25.9-16.1c-1-0.6-2.1-1.1-3.2-1.5c-0.8-0.3-1.4,0-1.6,0.9c-0.1,0.6-0.2,1.3-0.2,2 c0.3,6.7,0.7,13.4,0.8,20.1c0,2.6,1.1,4.3,3.2,5.6c6,3.7,12,7.3,18,11c0.3,0.2,0.8,0.3,1,0.4C25.4,229.6,26.1,229.2,25.8,228z M31.9,115.1c0-1.6,0-3.2,0-4.8c0-3.1-1.2-4.1-4.1-3.1c-4.4,1.4-8.6,3.1-12.8,5c-1.3,0.6-1.8,1.4-1.7,2.7c0.2,3.9,0.4,7.9,0.6,11.8 c0.2,2.6,0.9,3.1,3.4,2.2c3.8-1.3,7.5-2.7,11.3-4c1.9-0.7,3.1-2,3.1-4.1c0-1.9,0-3.8,0-5.7C31.8,115.1,31.8,115.1,31.9,115.1z M27.4,133c-2.3,2.1-4.8,3.8-7.4,5.3c-4.3,2.5-8.4,5.2-12.6,7.9c-0.9,0.6-1.9,1.3-1.6,2.6C5.9,149,6,149,6,149 c7.9,0.2,15.8-1,23.7-1.1c0.8,0,1-0.5,0.9-1.2c-0.2-4.9-0.6-9.8-0.6-14.8C28.7,131.5,28,132.4,27.4,133z M150.9,285.9 c-1-3.9-3.7-5.4-8.4-4.4C145.5,283.1,147.8,285,150.9,285.9z M258.6,249.8c-0.1-0.8-0.6-1.2-1.4-1.1c-1,0.1-1.8,0.7-1.8,1.9 c0,0.7,0.5,1.2,1.2,1.2C257.5,251.7,258.7,250.5,258.6,249.8z M147.2,81.7c1.7-1.5,3.4-1.4,5,0.1c0.1,0.1,0.3,0.2,0.5,0.3 c1.5,1.2,2.9,1.1,4.2-0.4c-0.2-0.4-0.9-0.4-0.9-1.1c0.2,0,0.4-0.1,0.7,0c1,0.1,1.7-0.3,1.7-1.3c0-1-0.8-1.2-1.6-1.4 c-0.7-0.1-1.4-0.1-2.1-0.2c0.4-0.9,1.4-0.9,1.9-1.6c-1.2-0.7-2-2.2-3.7-0.9c-2.1,1.6-4.2,2.5-6.5,0.4c-0.5-0.4-1.4-0.5-1.6,0.1 c-0.2,1.1-1.9,1.2-1.7,2.6c0.1,0.9,1.2,0.9,1.6,1.5c-0.7,0.5-1.2,0.8-2,1.3C144.3,82.5,145.7,83.1,147.2,81.7z M155.5,80.5 L155.5,80.5l-0.1,0L155.5,80.5z M364.3,151.6c1.3-0.8,2.5-1.4,4-0.1c1.6,1.4,2.9,0.6,4.3-0.6c-1.2-0.7-2.2-1.3-3.4-2 c1.8-1.1,3.5-2.1,5.2-3.1c-2.5-1.7-2.6-1.9-4.3-0.6c-2.6,2-4.8,2.1-7.5,0.1c-2.1-1.5-2.7-1.2-4.7,0.8c1.6,1,3.2,1.9,5.1,3 c-1.2,0.8-2.2,1.4-3.2,2C362,152.9,362.1,153,364.3,151.6z M237.5,68.6c-2.5,2.2-5,2.3-7.7,0.1c-1.8-1.4-2.4-1.1-4,0.7 c1.6,1,3.2,2,5,3c-1.2,0.7-2.1,1.3-3.1,1.9c2.4,1.9,2.5,2,4.9,0.5c1.1-0.7,1.9-0.6,2.7,0.1c1.6,1.4,3,0.9,4.4-0.5 c-1-0.6-1.9-1.2-3-1.9c2-1.2,3.8-2.3,5.7-3.4C240.7,67.5,239.1,67.2,237.5,68.6z M208.8,63.6c1.5,1.5,3.1,1.9,4.8,0.4 c0.9-0.8,1.9-0.7,2.9,0c0.5,0.4,1.2,0.6,1.7,1c1.6,1.3,3,0.9,4.3-0.5c-1.6-0.9-3.1-1.9-4.8-2.9c2.1-1.2,3.9-2.3,5.8-3.4 c-2.3-2-2.3-2.1-4.7-0.7c-0.8,0.5-1.7,0.9-2.5,1.5c-1.2,0.9-2.3,0.8-3.5,0c-2.1-1.3-2.2-1.2-4.1,0.5c1,0.6,2,1.2,3,1.9 C210.9,62.4,209.5,62.6,208.8,63.6z M292.8,101.6c-2.1,1.7-4.1,1.7-6.2,0c-1.6-1.4-3.2-1.3-4.8,0.4c1.7,1,3.3,1.9,5,3 c-1.1,0.7-2.1,1.3-3.2,1.9c1.5,1.4,3,2.1,4.7,0.5c1-0.9,1.9-0.7,2.9,0c2,1.3,2.6,1.2,4.2-0.7c-0.9-0.5-1.8-1.1-2.8-1.7 c1.9-1.2,3.7-2.2,5.5-3.3C296.3,99.3,294.5,100.3,292.8,101.6z M313.4,112.8c-2.5,1.7-4.7,2.3-7.1,0.1c-1.5-1.4-3-0.9-4.4,0.6 c1.6,1,3.3,1.9,5,2.9c-1.1,0.7-2,1.3-3,2c1.6,1.3,3,2,4.6,0.5c0.8-0.7,1.7-0.9,2.6-0.1c1.7,1.4,3,0.6,4.4-0.6 c-0.9-0.6-1.7-1.1-2.7-1.7c1.9-1.1,3.6-2.1,5.5-3.2C315.7,111.4,315.6,111.2,313.4,112.8z M194.4,54.4c2-1.7,3.9-1.3,5.7,0.2 c1.6,1.4,3,1,4.4-0.4c-1.6-0.9-3.1-1.8-4.7-2.8c2.2-1.3,4.1-2.4,6.1-3.6c-1.5-1.6-3-1.8-4.7-0.5c-2.6,2.1-5.3,2.9-8.2,0.4 c-0.6-0.5-1.5-0.7-2,0.3c-0.5,0.9,0.2,1.4,0.9,1.9c0.7,0.5,1.6,0.8,2.2,1.6c-1.1,0.7-2.1,1.3-3.6,2.2 C192.1,53.9,193,55.6,194.4,54.4z M245.5,45.4c0.7-0.5,1.2-1.1,0.7-2c-0.5-0.9-1.3-0.7-2.1-0.3c-1.2,0.6-2.4,1.2-3.4,1.9 c-1.3,0.9-2.4,0.9-3.7,0c-2.1-1.4-2.5-1.2-4.3,0.7c1.1,0.6,2.1,1.3,3.3,2c-1,0.6-1.8,1.1-2.7,1.6c1.6,1.2,2.9,2.2,4.7,0.6 c0.6-0.6,1.3-0.5,1.9,0c0.7,0.5,1.4,0.8,2.2,1.3c2.4,1.5,2.4,1.5,4.8-0.5c-1.6-0.9-3.2-1.9-4.9-2.9C243,46.7,244.4,46.3,245.5,45.4z M327.5,130.1c1.4-1,2.4-0.4,3.5,0.3c2.2,1.3,2.6,1.2,4.5-0.6c-1.1-0.7-2.3-1.4-3.6-2.1c1.9-1.2,3.6-2.2,5.4-3.3 c-2.4-1.8-2.4-1.8-4.6-0.6c-0.6,0.4-1.3,0.7-1.8,1.1c-1.3,1-2.4,1-3.9,0c-2.3-1.5-2.5-1.4-4.6,0.5c1.2,0.7,2.4,1.5,3.6,2.3 c-1.1,0.7-2.1,1.3-3.1,1.8C325.2,131.4,325.4,131.5,327.5,130.1z M219.9,39.7c0.8-0.7,1.6-0.6,2.4,0c0.6,0.4,1.2,0.7,1.8,1.1 c2.2,1.3,2.4,1.3,4.5-0.6c-1.6-0.9-3.1-1.8-4.7-2.8c1.7-1,3.2-2,4.8-2.9c-1.3-1.4-2.6-1.9-4.1-0.6c-2.3,1.9-4.6,2-7,0.1 c-0.4-0.4-1-0.6-1.6-0.8c-0.7-0.4-1.5-0.6-2.1,0.3c-0.5,0.9,0.1,1.5,0.7,1.9c1.1,0.7,2.2,1.4,3.4,2.1c-0.5,0.4-0.9,0.6-1.3,0.9 c-0.4,0.3-0.8,0.5-1.3,0.8C217,40.5,218.3,41.1,219.9,39.7z M298.6,168.6c1.5-1,2.8-1,4.2,0.1c0.3,0.2,0.6,0.4,0.9,0.6 c2.1,1.3,2.4,1.2,4.2-0.6c-1.5-0.9-2.9-1.7-4.5-2.6c1.3-1.1,2.9-1.5,3.9-2.6c-1.5-1.6-3-1.8-4.6-0.4c-1.5,1.3-3.1,1.2-4.6,0 c-0.4-0.3-0.9-0.4-1.2-0.7c-1.5-1.2-2.5-0.3-3.7,0.8c1.6,0.9,3,1.8,4.6,2.7c-1.4,0.8-2.6,1.6-3.9,2.4 C296.2,170,296.3,170.1,298.6,168.6z M345.1,138.6c-1.2,0.8-2.1,1.4-3.2,2.1c1.5,1.4,2.9,2,4.6,0.5c0.6-0.6,1.4-1.3,2.4-0.5 c1.7,1.5,2.9,0.3,4.3-0.7c-0.8-0.5-1.5-1-2.3-1.5c1.9-1.1,3.6-2.1,5.4-3.1c-1.5-1.6-3-2-4.7-0.5c-2.2,1.9-4.5,2.4-6.9,0.2 c-1.6-1.5-3.1-1-4.6,0.6C341.7,136.6,343.3,137.5,345.1,138.6z M256.9,60.7c0.8-0.7,1.5-0.2,2.1,0.3c1.8,1.5,3.4,1.3,5.1-0.3 c-1.1-0.7-2.2-1.4-3.4-2.1c0.9-0.5,1.7-1,2.5-1.5c0.8-0.5,1.8-1.1,1.2-2.2c-0.6-1.3-1.6-0.5-2.5-0.1c-0.2,0.1-0.3,0.1-0.5,0.2 c-2.6,2.3-5,1.8-7.5-0.1c-2.1-1.6-2.3-1.4-4.5,0.6c1.8,1.1,3.6,2.1,5.4,3.2c-0.9,0.6-1.7,1.1-2.5,1.6 C253.9,61.9,255.3,62.1,256.9,60.7z M255.3,79.2c-2.2,1.9-4.5,2.3-6.9,0.2c-1.5-1.3-2.5,0-3.6,0.9c1.3,1.1,2.8,1.5,3.9,2.7 c-1.1,0.6-2,1.2-3,1.8c1.5,1.4,3,2.1,4.7,0.5c1.1-1,2.1-0.6,3,0.1c1.6,1.4,3,0.9,4.4-0.5c-0.9-1-2.1-1.2-3.2-2.1 c1.9-1.1,3.8-2.2,5.6-3.3C258.6,77.9,257,77.8,255.3,79.2z M193.5,97.4c-1.6-0.7-2.7-2.4-4.3-0.8c-2.2,2-4.2,1.5-6.3-0.1 c-0.1-0.1-0.3-0.2-0.4-0.3c-1.5-1.3-2.9-0.9-4.3,0.5c1.8,1.1,3.5,2.1,5.2,3.1c-1.2,1.1-2.7,1.4-3.7,2.5c1.6,1.8,3.3,1.7,4.9,0.3 c1.2-1,2.4-1.1,3.6,0c1.5,1.3,2.6,0.5,3.9-0.6c-0.6-0.4-1-0.7-1.4-1c-0.5-0.3-1.1-0.4-1.4-1C190.6,99.1,191.9,98.3,193.5,97.4z M341.2,164.9c1.6-1,2.9-1.4,4.5-0.1c1.5,1.3,2.6,0.3,3.8-0.8c-1.1-0.7-2-1.2-3-1.8c0.8-1.1,2.2-1.2,2.9-2.1c-1.5-1.5-3-1.8-4.7-0.3 c-0.8,0.7-1.7,0.7-2.6,0c-0.7-0.5-1.6-0.9-2.3-1.3c-2.2-1.2-2.8-1.1-4.6,0.9c1.7,1,3.8,1.4,5.2,2.9c-1.4,0.8-2.6,1.6-4.1,2.4 C338.7,166.4,338.8,166.5,341.2,164.9z M165.3,91.8c1.4-1.2,2.9-1.2,4.3,0c0.3,0.3,0.8,0.4,1.1,0.6c1.6,1.3,2.9,0.9,4.3-0.5 c-1.6-0.9-3.1-1.8-4.7-2.8c1.2-1.3,3-1.5,4-2.7c-1.6-1.8-3.2-1.7-4.9-0.3c-1.4,1.2-2.9,1.3-4.5,0c-1.5-1.3-2.5-0.3-3.6,0.8 c1.1,0.7,2.1,1.2,3.1,1.8c-1,1.2-2.6,1.4-3.6,2.6C162.2,92.9,163.7,93.2,165.3,91.8z M321.5,176.4c1.4-0.9,2.7-1.7,3.9-2.4 c-1.5-1.6-3-1.9-4.6-0.5c-1.5,1.3-3,1.3-4.4,0c-0.3-0.2-0.7-0.3-0.9-0.5c-1.7-1.5-3.2-1.1-4.7,0.4c1.7,1,3.3,2,5.1,3 c-1.4,0.8-2.6,1.5-3.8,2.3c1.5,1.4,2.8,2.1,4.6,0.6c1.2-1,2.6-1.5,4-0.3c1.6,1.4,2.9,0.7,4.2-0.6 C323.7,177.7,322.7,177.1,321.5,176.4z M212.6,83c-1.4,1.3-2.8,1.3-4.3,0c-0.4-0.4-1.1-0.5-1.5-0.9c-1.5-1.2-2.8-0.9-4.1,0.6 c1.6,1,3.2,1.9,5.1,3c-1.4,0.9-2.6,1.6-3.8,2.3c1.7,1.7,3.3,2,5.1,0.4c1.2-1,2.3-1,3.5,0c1.5,1.3,2.7,0.5,3.9-0.7 c-1-0.6-1.9-1.2-2.9-1.8c1.2-1,2.7-1.4,3.7-2.4C215.8,81.9,214.3,81.5,212.6,83z M193.8,72c-1.2,0.7-2.3,1.8-3.8,0.5 c-1.5-1.4-3-1.2-4.4,0.3c1,0.6,2.1,1.3,3.2,2c-0.7,0.5-1.4,0.8-2,1.2c-0.6,0.4-1.3,0.6-1.7,1.2c2.4,1.9,2.4,2,4.8,0.5 c1.4-1,2.7-1.1,4,0c0.4,0.3,0.9,0.4,1.2,0.7c1.5,1.4,2.9,0.8,4.3-0.5c-1.6-0.9-3.1-1.8-4.8-2.9c0.8-0.5,1.4-0.8,2-1.2 c0.6-0.4,1.2-0.7,2-1.2C196.3,70.6,196.1,70.6,193.8,72z M244.5,129.5c-1.8,1.2-3.2,1.2-4.8-0.1c-0.3-0.3-0.7-0.4-1-0.7 c-1.5-1.2-2.9-1-4.3,0.5c1.7,1,3.3,2,5.1,3.1c-1.3,0.8-2.5,1.5-3.8,2.3c1.5,1.3,2.8,2,4.5,0.6c1.2-0.9,2.5-1.7,3.9-0.3 c1.5,1.4,2.7,0.4,3.9-0.6c-0.9-0.8-2.1-1-2.8-2c1.4-0.8,2.7-1.6,4.1-2.4C246.9,128.1,246.8,127.9,244.5,129.5z M269.1,96.2 c0.8-0.7,1.6-0.9,2.5-0.1c1.5,1.3,2.9,0.8,4.3-0.5c-0.6-0.9-1.8-1-2.5-1.9c1.9-1.1,3.7-2.2,5.5-3.2c-1.8-2.3-3.6-1.4-5.2-0.1 c-2.1,1.6-4,2-6.2,0.1c-1.5-1.3-2.8-0.6-4.1,0.7c1.2,1.1,2.9,1.5,4,2.6c-0.9,0.8-2.1,1-2.8,1.9C265.9,97.1,267.4,97.6,269.1,96.2z M359.8,111.4c0.6-0.4,0.9-1,0.5-1.7c-0.4-0.7-1.1-0.7-1.7-0.4c-0.9,0.4-1.8,0.8-2.5,1.4c-1.8,1.4-3.4,1.3-5.3,0 c-2-1.4-2.5-1.2-4.4,0.7c1.1,0.9,2.6,1.3,3.7,2.5c-0.5,0.3-0.8,0.5-1.2,0.7c-0.4,0.2-0.8,0.5-1.2,0.8c2.4,1.7,2.5,1.8,3.6,1 c1.3-1,2.5-0.9,3.7,0.1c1.8,1.6,3.3,1.1,4.9-0.5c-1.2-0.7-2.4-1.5-3.8-2.3C357.5,112.9,358.7,112.2,359.8,111.4z M339.6,100.7 c0.5-0.4,0.7-1,0.4-1.6c-0.4-0.6-1-0.9-1.7-0.5c-0.4,0.2-0.8,0.3-1.1,0.6c-2.2,1.9-4.3,1.7-6.5-0.1c-0.1-0.1-0.2-0.1-0.3-0.2 c-2.3-1.3-2.4-1.3-4.6,0.7c1.7,1,3.3,2,5.2,3.1c-1,0.6-1.8,1.1-2.6,1.6c1.5,1.3,2.9,2.1,4.6,0.5c0.7-0.7,1.4-0.3,2.1,0.2 c2.3,1.4,2.6,1.3,4.6-0.6c-0.9-0.6-1.8-1.1-2.9-1.7C337.9,101.8,338.8,101.3,339.6,100.7z M177.4,61.1c-2.3,1.8-4.5,2.3-6.8,0.2 c0,0-0.1-0.1-0.2-0.1c-0.7-0.3-1.4-0.4-1.9,0.3c-0.5,0.8,0.1,1.3,0.7,1.8c0.6,0.5,1.5,0.5,1.8,1.4c-1.3,0.8-2.5,1.5-3.9,2.3 c1.6,1.5,3,1.8,4.7,0.5c1.4-1.2,2.9-1.4,4.4-0.1c0.3,0.2,0.6,0.3,0.9,0.6c1.5,1.3,2.9,0.9,4.2-0.5c-1.5-0.9-3-1.8-4.7-2.8 c1.5-0.9,2.8-1.7,4.3-2.5C178.6,60.4,178.5,60.2,177.4,61.1z M260.2,120.4c2.3,2,2.3,2,4.7,0.6c1.1-0.7,2.2-1.5,3.5-0.3 c1.5,1.4,2.8,0.6,4.1-0.6c-1-0.6-1.9-1.2-2.8-1.8c1.3-0.8,2.4-1.5,3.7-2.2c-1.5-1.2-2.8-2.2-4.4-0.8c-1.6,1.4-3.1,1.3-4.7,0 c-0.3-0.2-0.7-0.3-0.9-0.5c-1.6-1.4-3-1.1-4.5,0.4c1.7,1,3.3,1.9,5.1,3C262.6,119,261.4,119.7,260.2,120.4z M265.5,140.5 c-2.2,1.8-4.3,1.8-6.5,0c-0.1-0.1-0.3-0.1-0.5-0.3c-1.5-1.4-2.7-0.6-4.1,0.6c1.8,1,3.4,2,5.1,3c-1.4,0.8-2.6,1.6-3.8,2.3 c2.3,1.9,2.4,1.9,4.8,0.5c1-0.6,2-1.4,3.2-0.4c1.6,1.3,2.7,0.6,3.9-0.5c-0.6-0.8-1.8-0.8-2.3-1.8c1.3-0.8,2.5-1.5,4.1-2.4 C268.1,140.7,267,139.3,265.5,140.5z M312.2,93.6c1.1-1,2.3-0.9,3.3,0c1.7,1.5,3.1,0.6,4.6-0.6c-1.2-0.7-2.2-1.4-3.3-2.1 c0.8-0.5,1.5-0.9,2.2-1.4c0.7-0.5,1.2-1.1,0.7-1.9c-0.5-0.8-1.2-0.6-1.9-0.3c-0.3,0.1-0.7,0.3-0.9,0.5c-2.1,1.8-4.1,1.4-6-0.2 c-0.1-0.1-0.2-0.1-0.3-0.2c-2.2-1.3-2.6-1.2-4.5,0.7c1.6,0.9,3.2,1.9,4.9,2.9c-0.9,0.6-1.7,1.1-2.7,1.8 C309.7,93.3,310.7,95,312.2,93.6z M284.7,154.9c1.3-0.8,2.5-1.5,3.9-2.3c-1.6-1.4-3-2.2-4.7-0.6c-1.7,1.5-3.4,1.5-5,0 c-0.1-0.1-0.2-0.1-0.3-0.2c-1.6-1.3-3-1.1-4.5,0.4c1.5,0.9,3,1.8,4.6,2.8c-1.4,0.8-2.5,1.5-3.8,2.3c2.4,2,2.3,1.9,4.7,0.6 c0.9-0.5,1.7-1.7,2.8-0.8c1.5,1.1,2.7,0.8,4-0.4C286.2,155.8,285,155.9,284.7,154.9z M289.4,126.8c-1.8,1.6-3.6,1.4-5.4-0.1 c-0.3-0.3-0.7-0.4-1.1-0.6c-1.9-1.1-2.2-1-3.9,0.8c1.6,1,3.3,1.9,5,3c-1.3,0.8-2.5,1.5-3.7,2.3c1.5,1.6,3,1.9,4.8,0.6 c0.8-0.6,1.8-1.5,3-0.5c1.5,1.3,2.8,0.6,4.1-0.6c-0.8-0.5-1.5-1-2.4-1.6c1.3-0.8,2.4-1.4,3.8-2.3C292.1,126.9,291,125.4,289.4,126.8 z M395.5,133.4c0.6-0.4,0.9-1,0.5-1.7c-0.4-0.7-1-0.7-1.7-0.4c-0.6,0.3-1.3,0.7-1.9,1c-2.6,1.5-3.1,1.4-5.5-0.5 c-2.3-1.9-2.9-1.9-5.1,0.2c1.8,1,3.5,2.1,5.4,3.2c-0.9,0.6-1.6,1-2.4,1.5c1.1,0.7,1.9,2,3.2,1.1c1.6-1.2,2.9-0.8,4.3,0.3 c1.6,1.3,2.7,0.4,3.9-0.9c-1.1-0.7-2.1-1.3-3.4-2C393.8,134.4,394.7,133.9,395.5,133.4z M370.9,126.8c0.6-0.6,1.4-0.6,2.1,0 c1.7,1.5,3.1,0.5,4.4-0.6c-0.7-0.8-1.7-0.8-2.3-1.8c0.7-0.4,1.4-0.9,2.1-1.3c0.8-0.5,1.6-1.1,1-2.1c-0.6-1-1.4-0.5-2.2-0.1 c-0.2,0.1-0.5,0.2-0.6,0.3c-2.3,2-4.5,1.7-6.7-0.1c0,0-0.1-0.1-0.2-0.1c-2.3-1.4-2.4-1.4-4.6,0.6c1.7,1,3.3,2,5.2,3.1 c-0.6,0.4-0.9,0.6-1.3,0.8c-0.4,0.3-0.9,0.4-1.1,0.9C368,127.4,369.2,128.3,370.9,126.8z M220.8,124c1.1-0.6,2.1-1.8,3.5-0.6 c1.5,1.4,2.9,0.7,4.2-0.5c-1-0.6-1.8-1.1-2.8-1.7c1.5-0.9,2.9-1.7,4.2-2.5c-1.5-1.5-3-2-4.7-0.6c-0.3,0.2-0.7,0.3-0.9,0.5 c-1.1,1-2.1,0.7-3.2-0.1c-0.3-0.3-0.8-0.4-1.1-0.6c-1.5-1.3-2.8-0.7-4,0.5c1.2,1.1,2.8,1.4,3.9,2.7c-1.3,0.7-2.4,1.4-3.6,2.1 C218.4,125.3,218.6,125.2,220.8,124z M207.1,110.3c1.2-1,2.8-1.4,4-2.6c-1.3-1.2-2.6-2-4.2-0.5c-1.7,1.5-3.5,1.7-5.3,0.1 c-1.5-1.3-2.9-1-4.3,0.3c1.2,1.1,2.9,1.5,4.1,2.7c-1.3,0.8-2.5,1.5-3.6,2.2c1.6,1.8,3,1.6,4.6,0.4c1.1-0.8,2.2-1.4,3.5-0.2 c1.4,1.3,2.9,1.2,4.3-0.2C209.4,111.5,208,111.3,207.1,110.3z M323,154.6c0.7-0.5,1.7-1.6,2.7-0.8c1.9,1.5,3.1,0.4,4.5-0.8 c-0.7-0.5-1.3-0.9-1.9-1.3c1.1-0.7,2.1-1.3,3.5-2.2c-1.6-0.3-2.5-2.1-3.9-0.9c-2.2,1.7-4.3,1-6.2-0.2c-1.7-1.1-2.9-0.9-4.3,0.5 c1.5,0.9,3.1,1.8,4.7,2.8c-1.3,0.8-2.5,1.5-3.8,2.2C319.9,155.7,321.3,155.9,323,154.6z M274.3,71.5c1-0.9,1.8-0.6,2.8,0 c2.6,1.6,2.6,1.6,5-0.3c-1.1-0.7-2.2-1.4-3.4-2c0.4-0.8,1.2-0.9,1.7-1.3c0.6-0.5,1.5-1,1-2c-0.6-1.1-1.5-0.7-2.3-0.3 c-0.3,0.1-0.6,0.2-0.8,0.4c-1.8,1.5-3.4,1.3-5.3,0c-2.2-1.5-2.5-1.4-4.6,0.6c1.4,0.8,2.7,1.6,4.2,2.5c-0.9,0.5-1.6,1-2.6,1.6 C271.6,71.6,272.8,72.8,274.3,71.5z M226.7,99c1.3-1.1,2.6-1.2,4,0c1.5,1.3,2.8,0.5,4-0.7c-1.1-0.7-2.1-1.3-3.2-1.9 c1.2-1,2.6-1.3,3.6-2.5c-1.3-0.7-2.3-2.1-3.8-0.8c-2,1.8-3.9,1.4-5.9,0c-1.6-1.2-2.1-1-3.7,0.8c1.3,0.8,2.6,1.6,4,2.5 c-1.4,0.8-2.5,1.5-3.7,2.2C223.6,100,225.1,100.4,226.7,99z M245.6,109.7c0.9-0.7,2-1.5,3.2-0.4c1.5,1.4,2.7,0.7,4-0.6 c-0.9-0.6-1.7-1.1-2.6-1.7c1.3-0.8,2.5-1.5,3.8-2.3c-1.5-0.9-2.6-2.2-4.2-0.8c-1.9,1.6-3.6,1.4-5.4-0.1c-1.6-1.3-2.8-0.5-4,0.7 c1.4,0.8,2.6,1.6,4,2.5c-1.4,0.8-2.5,1.5-3.7,2.3C242.3,110.8,243.8,111.2,245.6,109.7z M293.6,81.9c0.9-0.8,1.6,0,2.2,0.3 c2.3,1.3,2.5,1.3,4.6-0.6c-1-0.6-1.9-1.2-2.9-1.8c0.4-0.7,1.1-0.9,1.6-1.2c0.7-0.5,1.4-1.1,0.8-2.1c-0.5-0.8-1.3-0.6-2.1-0.2 c-0.2,0.1-0.5,0.2-0.6,0.3c-1.8,1.6-3.6,1.5-5.3,0c-0.2-0.2-0.4-0.2-0.6-0.4c-2-1.1-2.5-1-4.1,0.9c1.4,0.9,2.8,1.7,4.4,2.6 c-0.9,0.6-1.7,1.1-2.5,1.7C290.6,82.9,292.1,83.3,293.6,81.9z M303.2,140.9c-1.4,0.8-2.5,1.5-3.7,2.2c2.1,1.9,2.3,1.9,4.7,0.7 c0.9-0.5,1.7-1.7,3-0.7c1.6,1.3,2.7,0.5,3.9-0.7c-0.7-0.5-1.4-0.9-2.1-1.4c1.3-0.8,2.4-1.5,3.5-2.2c-1.6-1.6-3.1-2-4.8-0.5 c-1.2,1.1-2.5,1-3.6,0c-1.6-1.5-3.2-1.1-4.7,0.2C300.5,139.3,301.8,140,303.2,140.9z M159,71.9c2.6,1.8,3.3,1.7,5.9-0.7 C162.4,69.4,161.8,69.4,159,71.9z M176.7,82.1c2.7,1.9,2.8,1.9,5.9-0.4C180,79.7,179.6,79.7,176.7,82.1z M195.8,93 c2.5,1.8,2.5,1.8,5.8-0.3C198.7,90.6,198.2,90.7,195.8,93z M232.6,114.1c2.2,1.9,2.3,1.9,5.5-0.2 C235.3,111.9,235.1,111.9,232.6,114.1z M272.2,137.1c2.6,1.8,2.7,1.8,5.3-0.3C275.1,134.7,274.1,134.8,272.2,137.1z M214,103.4 c2.2,1.8,2.2,1.8,5.3-0.3C217.3,101.1,216.4,101.1,214,103.4z M257.5,125.1c-2.6-2-2.6-2-5.6,0.1 C254.4,127.2,254.4,127.2,257.5,125.1z M291.3,148.1c2.6,1.7,2.6,1.7,5.5-0.3C293.9,145.8,293.3,145.9,291.3,148.1z M310.3,159 c2.6,1.7,2.6,1.7,5.3-0.4C312.9,156.8,312.2,156.9,310.3,159z M328.3,169.3c2.3,1.9,2.3,1.9,5.4-0.1 C331.3,167.2,331.1,167.2,328.3,169.3z M206.1,68c-2.5-1.9-2.7-1.9-5.1,0C203.4,69.8,203.6,70.3,206.1,68z M208.1,43.5 c2.1,1.9,2.2,1.9,5.2-0.1C210.9,41.5,210.9,41.5,208.1,43.5z M188.4,57.5c-2.4-1.7-2.4-1.7-5.1,0.3 C185.8,59.7,186.7,59.7,188.4,57.5z M321,108.7c2.5,1.8,2.5,1.8,5.1-0.1C323.4,106.7,323.2,106.7,321,108.7z M340.2,119.8 c2.4,1.9,2.5,1.9,5.1-0.1C342.9,117.8,342.6,117.8,340.2,119.8z M225.9,53.7c2.4,1.9,2.4,1.9,5.2,0.1 C228.5,51.8,228.2,51.8,225.9,53.7z M244.9,64.7c2.4,1.9,2.4,1.9,5.1,0C247.3,62.7,247,62.7,244.9,64.7z M225,79.1 c-2.1-2-2.7-2-5.1-0.1C223.2,81,222,81,225,79.1z M262.9,75.2c2.9,1.9,2.2,1.7,5.1-0.1C265.4,73.1,264.9,73.1,262.9,75.2z M364,130.5c-2.5-1.7-2.5-1.7-5,0.1C361.3,132.6,361.9,132.6,364,130.5z M301,97c2.4,1.8,2.4,1.8,5.1,0 C303.6,95.1,303.4,95.1,301,97z M382.1,141c-2.3-1.8-2.7-1.8-4.9,0.3C379.5,143,380,143,382.1,141z M276.2,111.4 c2.3,2,2.5,2,4.9,0.1C278.6,109.6,278.3,109.6,276.2,111.4z M301.1,123.1c-2.3-2-2.3-2-4.9-0.1C298.8,124.9,298.9,124.9,301.1,123.1 z M281.7,85.9c2.8,1.9,1.9,1.9,5,0C284.3,84,283.9,84,281.7,85.9z M238.1,89.5c2.4,1.8,2.4,1.8,5,0 C240.7,87.5,240.2,87.5,238.1,89.5z M320.2,134.1c-2.5-1.9-2.5-1.9-4.9-0.1C317.9,136,318.2,136,320.2,134.1z M261.6,100.1 c-2.5-1.8-2.5-1.8-4.9,0.1C259.3,102.1,259.8,102.1,261.6,100.1z M352.4,155.6c2.4,1.8,2.4,1.8,4.8,0 C354.5,153.7,354.2,153.7,352.4,155.6z M334.4,145.1c2.4,1.9,2.4,1.9,4.8,0.1C336.5,143.4,336.4,143.4,334.4,145.1z" fill="#E24F3E"/></g><g id="change5_1"><path d="M306.6,429.4c0.1-3.2,2.3-5.1,4.4-6.9c2.2-1.8,4.6-3.2,7.4-3.9c0.4-0.1,1-0.1,1.3-0.6c2.8-3.7,6.9-4.4,11.1-5.2 c0-7.2,0.4-14.4,0-21.6c-0.1-3.2,1.4-3.8,3.3-4.8c14.2-7.2,28.6-14,43-20.9c3.2-1.5,6.3-3.2,9.8-4.7c-2.5-1.8-6.8-1.4-6.2-6.3 c-18.2,10.7-37.2,19-55.7,28.5c0.6,4.7,0.2,9.6,0.3,14.5c0,0.3,0,0.6,0,0.9c0,0.9-0.1,1.8-1.2,1.9c-1.2,0-1.3-1-1.3-2 c0-2.6,0-5.3,0-7.9c0-1.8,0.1-3.7-0.3-5.4c-6.9,6.8-13.8,13.4-20.5,20.4c-5.5,5.7-11.3,11.2-16.9,16.9c-2.2,2.2-4.5,4.4-6.2,7 c-2.1,3.2-4.9,3.3-8.1,2.8c-3.4-0.6-3.8-1.2-4.1-4.9c-0.5-6.7-1-13.3-1.2-20c-13.8-0.6-22.6-8.7-29.6-19.3c-4.9-7.5-7.7-15.7-8-24.7 c-0.3-9.2,2.9-16.7,10.8-21.8c2.5-1.6,5.5-1.5,8.4-1.4c6,0.2,10.8,3.2,15.7,6.6c0.3-2,0.1-3.4-1.8-4.5c-4.1-2.5-8.5-4.3-13.3-5 c5-1.2,9.9-1.4,14.6,0.1c0-3.2,0.3-6.4,0-9.6c-1.8-16.3-1.8-32.6-1.8-49c0-3.5-0.9-7-0.7-10.5c0.1-1.1,0.2-1.8,1.2-2.5 c1.8-1.4,3.5-3.1,5.1-4.7c6.6-6.5,13.1-13.2,19.9-19.4c5-4.6,9.9-9.5,15-14c4.5-4,9-7.9,13.6-11.8c0.5-0.4,1.2-0.9,1.8-1 c4.2-0.5,7.3-3.2,10.7-5.2c8.3-4.8,16.5-9.8,24.6-14.8c6.4-3.9,12.7-8,19.3-11.5c8.2-4.5,16.3-9.3,24.7-13.4 c12.3-6.1,24.3-12.8,36-19.9c6.1-3.7,12.6-6.8,18.7-10.5c2-1.2,3.4-0.2,3.5,2.3c0.1,3.1,0,6.1,0,9.2c0,9-0.1,18,0.2,27 c0.1,5.1,0.9,10.2,1.3,15.3c0.7,8.9,0.8,17.8,0.5,26.7c-0.2,7.8-0.3,15.6-0.3,23.4c-0.1,16.2-1.4,32.3-0.9,48.5 c0.3,10.2,0.3,20.4,0.3,30.5c0,1.5-0.4,3-0.2,4.6c0.2,1.7-1.2,2.4-2.6,3c-6.4,2.7-12.4,6-18.5,9.3c-8.4,4.6-17.1,8.6-25.8,12.6 c-3,1.4-5.8,3.1-8.9,4.8c3.8,2.2,7.4,4.3,10.9,6.3c9.8,5.7,19.6,11.4,29.5,17c2.6,1.5,1.8,3.6,1.8,5.5c0.1,9.4,0.1,18.8,0.1,28.2 c0,2.8-0.1,5.5,0,8.3c0.1,2.7-0.9,4.6-3.4,6c-18.1,10.3-36.2,20.7-54.3,31.2c-1.1,0.7-2.1,0.9-3.3,0.2c-2.3-1.3-4.6-2.6-6.9-3.8 c-0.5-0.3-0.9-0.7-1.7-0.7c0,5.1,0,10.1,0,15.2c0,2.3,0,4.5,0,6.8c0,1.1-0.4,2-1.5,2.6c-11.4,6.5-22.9,13.1-34.3,19.7 c-1.7,1-3.1,1.2-5,0.1c-13.3-7.8-26.7-15.5-40.1-23.2c-0.9-0.5-1.2-1.3-1.2-2.2c-0.4-5-0.1-9.9-0.1-14.9c0-5.8,0.1-11.6,0-17.4 c0-2.3,1.1-3.7,2.8-4.8c1.7-1.1,3.3-2.3,5.3-2.9c0.2-0.1,0.4-0.4,0.6-0.6C300.7,430.8,303,429.7,306.6,429.4z M390.3,356.9 c0.4-0.2,0.6-0.2,0.8-0.3c3.7-1.9,7.4-3.9,11.1-5.8c15.9-8.1,32.5-14.7,47.9-23.8c1.8-1,2.1-2.1,2.1-3.8c0.1-9.3,0.1-18.6-0.2-27.8 c-0.3-8.5-0.2-17,0.1-25.5c0.4-9.3,0.5-18.7,0.6-28c0.2-12.4,0.4-24.8,0.4-37.2c0-7.5-0.9-14.9-1.6-22.4c-0.9-8.5-0.4-17-0.4-25.5 c0-4.8,0-9.5,0-14.4c-0.3,0.1-0.5,0.1-0.6,0.2c-9.9,5.6-19.9,11.1-29.6,17c-9.8,5.9-20.1,10.8-30.3,15.9c-2.4,1.2-3.2,2.7-3.1,5.3 c0.1,10.1,0.3,20.1,0.4,30.2c0.1,9,0.5,18,0.8,26.9c0.3,7.4,1,14.7,0.8,22.1c-0.3,12.4-0.9,24.9-1.2,37.3 c-0.2,8.9-0.1,17.8,0.2,26.8c0.2,7.7-0.2,15.4,0.5,23.1C389.3,350.5,389.9,353.6,390.3,356.9z M275.8,428.2c1-1.2,1.8-2.1,2.6-3.1 c4.6-5.5,10.1-10.1,15-15.2c8.5-8.8,17.1-17.4,25.7-26c1.3-1.3,3.3-2.4,3.3-4.8c0-3.2,0.3-6.5,0.2-9.7c-0.3-8.1-1.2-16.2-1-24.4 c0.2-9.3-0.1-18.6,0-27.8c0.1-11.5,0.3-23,0-34.5c-0.4-15.4-1.4-30.7-1.3-46.1c0-4.8,0-9.6,0-14.6c-3,2.9-5.6,5.4-8.3,7.8 c-7.8,7-15.7,13.8-23.1,21.3c-6.3,6.3-12.8,12.4-19.7,18c-0.5,0.4-0.6,0.8-0.6,1.4c0.6,8,0.7,16,1,24c0.4,11.7,1.4,23.3,2,34.9 c0.5,9.3,1,18.5,1.3,27.8c0.4,13.9,1.4,27.8,1.6,41.8C274.7,408.7,274.6,418.3,275.8,428.2z M380.6,297.4 c-5.2,2.9-10.2,5.6-15.2,8.4c-10.2,5.6-20.5,10.9-30.6,16.8c-1,0.6-2,1.3-2,2.5c-0.1,4.9,0,9.9,0,14.8c0.1,0,0.2,0,0.3,0 c13.9-7.1,27.8-14.2,41.7-21.3c1.7-0.9,3.4-1.8,4.9-3c0.6-0.4,0.9-0.8,0.9-1.6C380.6,308.6,380.6,303.2,380.6,297.4z M325.3,379.9 c18.6-9.5,37.4-17.7,55-28.1c0-4.7,0-9.3,0-14.1c-11.1,5.4-21.6,11.2-32.1,16.9c-5.1,2.7-10.2,5.5-15.3,8.2 c-1.1,0.6-1.9,0.7-2.9-0.5c-1.3-1.5-3.1-2.4-5-3.4C325.8,366,325.7,372.8,325.3,379.9z M380.3,318.5c-6.4,3.4-12.7,6.7-19.1,10 c-8.7,4.4-17.3,8.8-26,13.2c-1.2,0.6-2.5,1.3-2.5,2.6c-0.2,5.1-0.1,10.2-0.1,15.6c0.7-0.4,1.1-0.5,1.4-0.7c7.4-4,14.9-8.1,22.3-12 c7.4-3.9,14.6-8,22.2-11.5c0.8-0.4,1.8-0.5,1.8-1.8C380.3,328.7,380.3,323.7,380.3,318.5z M332.9,320.7c0.5-0.2,0.7-0.3,1-0.5 c8.9-5.3,18.1-10,27.2-15c5.8-3.2,11.6-6.3,17.4-9.4c1.5-0.8,2.3-1.7,2.2-3.6c-0.2-2.6,0-5.1-0.1-7.7c0-1.8,0.2-3.5-0.2-5.4 c-0.5,0.2-0.8,0.3-1.1,0.5c-9.4,5-18.8,10-28.3,15c-5.4,2.8-11,5.5-16.4,8.2c-0.8,0.4-1.8,0.7-1.8,2 C333,309.9,332.9,315.2,332.9,320.7z M333,300.6c16.2-7.7,31.8-16.1,47.4-24.4c-0.2-5.5-0.4-11-0.6-16.7 c-8.1,4.5-15.9,8.9-23.9,13.2c-7.9,4.3-15.3,9.6-23.5,13.8C333.1,291,332.9,295.6,333,300.6z M330,272.7c14.1-9,28.6-16.8,42.8-24.8 c-0.7-5.3,0.1-10.3-0.8-15.4c-2.8,1.7-5.6,3.3-8.3,4.9c-10.3,5.9-20.2,12.4-30.5,18.4c-3.2,1.9-4.2,3.9-3.7,7.4 C330,266.3,329.5,269.5,330,272.7z M438.5,399.2c-0.6,0.3-1,0.6-1.5,0.8c-3.7,2.1-7.3,4.2-11,6.4c-13.9,8-27.8,16-41.7,24 c-0.5,0.3-1.1,0.5-1,1.3c0,3.6,0,7.1,0,10.9c18.5-10.7,36.7-21.2,55.2-31.8C438.5,407.2,438.5,403.3,438.5,399.2z M329.4,240.6 c0,4.8,0,9.6,0,14.6c12.5-7.7,24.8-15.4,37.4-22.6c1.7-1,3.9-1.7,4.9-3.2c1.1-1.6,0.3-3.9,0.3-5.9c0.1-2.8,0-5.5,0-8.4 C357.6,223.6,343.9,232.8,329.4,240.6z M263,269.4c0,6.9,0.6,13.9,0.5,20.8c-0.1,5.5-0.2,11,0.1,16.5c0.7,11.8,1.9,23.5,2.1,35.3 c0.1,5.3,0.3,10.5,0.5,15.8c0.7,15.1,1.3,30.1,1.9,45.2c0.2,5.7,0.4,11.4,0.7,17c0.2,2.9,0.5,5.8,0.8,8.7c1.2,0.3,2.3,0.6,3.3,0.3 c-0.3-4.4-0.8-8.7-0.9-13c-0.5-14.7-0.5-29.3-1.4-44c-0.8-13.9-1-27.9-1.9-41.8c-0.7-10.5-1.3-20.9-1.7-31.4 c-0.4-8.6-0.5-17.2-0.8-25.8C266.2,270.2,266,270,263,269.4z M383.4,456c0.2,0,0.3,0,0.3,0c18-10.4,36-20.8,54-31.3 c0.4-0.3,0.9-0.5,0.9-1.2c0-3.2,0-6.4,0-9.7c-18.5,10.7-36.7,21.2-55.2,31.8C383.4,448.8,383.4,452.4,383.4,456z M438.6,386.1 c-4.6,2.8-9,5.4-13.3,7.8c-5,2.9-10,5.7-15,8.6c-8.3,4.7-16.5,9.5-24.8,14.3c-1,0.6-2.1,1.1-2.1,2.4c-0.1,2.8,0,5.6,0,8.6 c0.7-0.4,1.2-0.6,1.7-0.9c17.6-10.1,35.1-20.3,52.7-30.4c0.7-0.4,0.9-0.7,0.9-1.5C438.6,392.2,438.6,389.3,438.6,386.1z M329.3,237.6c0.8-0.4,1.4-0.7,1.9-1c8.1-4.5,15.9-9.4,23.8-14.3c5.2-3.2,10.4-6.3,15.6-9.5c1-0.6,1.5-1.3,1.4-2.6 c-0.2-2.4-0.2-4.9-0.3-7.3c0-1,0-1.9,0-3c-14.3,9-28.6,17.4-42.4,26.8C329.3,230.1,329.3,233.7,329.3,237.6z M358.3,377.3 c14.6,8.5,27.8,18.5,41.4,28c3.5-2,7-4.1,10.5-6.1c-3.6-2.2-7.2-4.3-10.5-6.7c-9.6-6.6-19.3-13-29.3-19c-1.2-0.7-2.1-0.9-3.4-0.2 C364.2,374.7,361.4,375.9,358.3,377.3z M384.6,179.3c-2.9,0.9-3.1,1-3.1,3.7c0,6-0.2,12.1,0.1,18.1c0.4,8.1,1.1,16.2,0.7,24.4 c-0.5,11.2-0.3,22.3,0.5,33.5c0.4,6,0.6,12,0.7,17.9c0.1,10.4,0.2,20.7,0,31.1c-0.2,14.8-0.5,29.6-0.3,44.4c0.1,2.8,0.7,4.7,3.7,5.1 c0.2,0,0.3,0,0.5,0c-0.5-3.5-1-6.9-1.4-10.3c-0.6-6.3-0.6-12.6-0.6-19c0-10.5-0.7-21.1-0.2-31.6c0.4-10.1,0.8-20.2,1.1-30.3 c0.4-13.5-0.9-26.9-1.3-40.4c-0.3-9.1-0.4-18.2-0.5-27.3C384.6,192.2,384.6,185.8,384.6,179.3z M324.6,280.8 c2.4,0.4,4.3,1.6,6.3,2.6c0.9,0.5,1.5,0.4,2.4-0.1c10-6,19.8-12.2,30.1-17.6c5.2-2.7,10.2-5.6,15.3-8.5c1.1-0.6,1.3-2.1,0.5-2.9 c-1.6-1.4-3.2-2.8-4.8-4.2c-1,0.6-1.9,1.2-2.9,1.8c-13.6,7.6-27.3,14.8-40.3,23.4c-1.4,0.9-2.7,1.1-4.2,0.4 c-0.8-0.4-1.6-0.9-2.6-0.9C324.2,276.8,324.4,278.7,324.6,280.8z M333.6,391.8c0,2.9,0.1,5.5,0,8.2c-0.1,1.3,0.4,2,1.5,2.6 c12.7,7.2,25.3,14.6,38,21.9c2.5,1.4,4.9,2.8,7.6,4.3c0-3.1,0-5.8,0-8.6c0-1-0.3-1.4-1.2-1.9c-7.4-4.2-14.7-8.5-22-12.7 C349.6,401,341.8,396.5,333.6,391.8z M371.7,371.3c0.3,0.2,0.5,0.3,0.7,0.4c8.2,4.7,16,9.9,23.9,15.2c4.9,3.3,9.7,6.7,14.8,9.7 c0.8,0.5,1.6,1.3,2.7,0.6c2.5-1.5,5-3,7.6-4.5c-0.2-0.2-0.4-0.4-0.6-0.5c-12.7-8.5-25.5-17.1-38.2-25.6c-0.4-0.3-0.8-0.4-1.3-0.1 C378.2,368,375,369.6,371.7,371.3z M345.4,383.8c0.5,0.3,0.8,0.5,1,0.6c10.5,5.7,20.7,11.8,31,17.7c4,2.3,8,4.8,11.9,7.3 c0.7,0.4,1.4,1.2,2.4,0.6c1.8-1.1,3.6-2.1,5.5-3.3c-3.5-2.3-6.9-4.4-10.1-6.9c-9.6-7.4-19.9-13.8-30.1-20.3c-0.7-0.4-1.3-1-2.3-0.4 C351.7,380.6,348.7,382.1,345.4,383.8z M388.1,412c-5.9-4-11.9-7.3-17.8-10.7c-8.9-5.2-17.7-10.4-26.7-15.3c-0.6-0.3-1.1-0.8-2-0.3 c-2.3,1.2-4.6,2.3-7.2,3.5c15.9,9.2,31.5,18.2,47,27.2C383.5,414.4,385.9,413.5,388.1,412z M332.2,483.7c0-3.3,0-6.3,0-9.2 c0-0.7-0.3-0.9-0.8-1.2c-11.7-5.8-23.2-12-34.5-18.4c-1.5-0.8-2.9-1.7-4.5-2.6c0,3.6,0,7,0,10.3 C305.8,469.2,318.9,476.2,332.2,483.7z M369.1,453.7c-0.4,0.2-0.6,0.2-0.8,0.3c-6.5,3.7-13,7.3-19.4,11.1c-4.5,2.7-9.1,5.2-13.4,8.2 c-0.4,0.3-0.8,0.4-0.8,1c0,3.1,0,6.1,0,9.4c1-0.6,1.7-1,2.4-1.4c10.3-5.4,20.3-11.3,30.3-17.1c1.1-0.6,1.6-1.4,1.6-2.7 C369.1,459.7,369.1,456.8,369.1,453.7z M344.7,422c2.1-1.5,2.3-1.6,4.2-1.4c7.2,0.7,12.1,4.6,15.3,10.9c0.5,0.9,1,1.5,1.9,2 c2.8,1.4,5.5,2.9,8.2,4.3c2.1,1.1,4,2.5,6.4,3.3c0-2.5-0.1-4.8,0-7.2c0.1-1.5-0.6-2.2-1.8-2.9c-12.1-7-24.2-14-36.4-21 c-2.9-1.7-5.8-3.4-9-5.2c0,2.9,0,5.5,0,8.1C338.4,414.6,342.6,417,344.7,422z M292.3,465.7c0,2.4,0.1,4.4,0,6.5 c0,1.1,0.4,1.6,1.3,2.1c10.3,5.9,20.6,11.8,30.8,17.7c2.5,1.5,5.1,2.9,7.7,4.4c0-3.5,0-6.8,0-9.7 C318.7,479.7,305.9,472.3,292.3,465.7z M369.1,467.9c-0.6-0.3-0.8,0-1,0.1c-7.4,4.3-14.8,8.5-22.2,12.8c-3.3,1.9-6.8,3.4-10,5.5 c-0.6,0.4-1.1,0.7-1.1,1.5c0,2.9,0,5.8,0,8.8c0.4-0.1,0.5-0.1,0.7-0.2c10.9-6.3,21.9-12.7,32.8-19c0.4-0.2,0.8-0.5,0.8-1.1 C369.1,473.4,369.1,470.6,369.1,467.9z M332.1,443.4c1.2-1.5,2.2-2.7,3.5-3.5c0.4-0.2,0.5-0.6,0.5-1.1c-0.2-4.1-1.5-7.9-3.8-11.4 c-1.3-2-2.5-4.1-4.8-5.2c-5.6-2.9-14.5-0.1-17.6,5.4c-0.6,1.1-0.8,2.2,0.9,2.8c0.9,0.3,1.9,0.9,2.5,1.6c1.6,1.9,3.3,2.7,6.1,2.8 C325,435,329.6,437.6,332.1,443.4z M292.3,441.1c0,2.7,0,5.1,0,7.6c0,0.8,0.5,1,1,1.3c10.2,5.7,20.4,11.3,30.8,16.8 c2.6,1.4,5.3,2.7,8.2,4.1c0-2.1-0.1-3.8,0-5.5c0.1-1-0.4-1.4-1.2-1.9c-9.3-5.3-18.6-10.7-27.9-16C299.6,445.4,296,443.3,292.3,441.1 z M369.2,442.7c-0.4,0.1-0.6,0.1-0.7,0.2c-11,6.3-21.9,12.7-32.9,19c-0.6,0.3-0.9,0.7-0.8,1.4c0,2.3,0,4.6,0,7.2 c3.1-1.9,6-3.6,8.8-5.3c8.1-4.8,16.3-9.5,24.5-14c0.9-0.5,1.2-1,1.2-1.9C369.1,447.1,369.2,444.9,369.2,442.7z M429.2,387.8 c-7.9-4.7-15.6-10.2-23.3-15.7c-4.6-3.3-9.1-6.6-13.9-9.6c-0.5-0.3-1-1-1.7-0.6c-1.8,1-3.6,1.9-5.5,3c0.4,0.3,0.7,0.5,1,0.7 c11.2,7.5,22.5,14.7,33.5,22.4C423,390.6,426,391.6,429.2,387.8z M360.1,444.5c-2.9-4.5-6.8-7.5-12.2-6.9 c-5.7,0.7-10.6,3.3-14.1,8.2c4.4,1.7,7.4,4.6,9.8,8.2C349.1,450.8,354.6,447.7,360.1,444.5z M438.7,382.7c-2-1.1-3.7-2.1-5.4-3.1 c-11.6-6.7-23.2-13.4-34.8-20.1c-2.2-1.3-3-1.2-4.9,0.9c3.2,1.8,6.1,4,9.1,6.1c9.3,6.6,18.4,13.4,28.2,19.3c0.6,0.3,1.1,1,1.9,0.4 C434.7,385,436.6,383.9,438.7,382.7z M264.1,266.8c2.7,1.1,2.7,1.1,4.8-0.8c5.9-5.2,11.6-10.6,17.3-15.9c5.6-5.3,10.6-11,16.7-15.8 c5.5-4.3,10.4-9.2,15-14.4c1.3-1.5,1.3-1.5-0.6-2.8C299,232.9,281.7,249.8,264.1,266.8z M311.7,449c1.9-1.4,3.7-2.9,3.7-5.6 c0-2.6-0.6-5.1-2.1-7.3c-2.9-4.3-7.8-5-12-2c-2.5,1.8-2.4,8.1,0.6,9.4C305.3,445.1,308.4,447.2,311.7,449z M318,452.7 c4.6,2.7,9,5.2,13.4,7.8c0.4,0.3,0.8,0.2,1.1,0c2.8-1.6,5.5-3.3,8.4-5c-2.6-3.8-5.6-6.9-10.3-7.2C326.1,448.1,321.4,448.3,318,452.7 z M355.2,207.1c-3.5-1.3-6.7-2.5-9.8-4.2c-0.7-0.4-1.1-0.1-1.6,0.2c-2,1.2-4,2.3-6,3.5c-2.6,1.5-5.1,3.1-7.7,4.7 c3.7,1.9,7.6,2.7,11.2,4.4C345.7,212.9,350.3,210.1,355.2,207.1z M370.1,197.8c-0.5-0.2-0.8-0.3-1.1-0.4c-3.7-1.2-7.6-1.4-11.3-2.6 c-0.2-0.1-0.5,0-0.7,0.1c-3.2,2-6.4,4-9.6,6.1c3.3,1.6,6.6,2.9,9.9,4c0.5,0.2,0.9,0.3,1.3,0C362.5,202.8,366.2,200.4,370.1,197.8z M362.3,442c0-0.5,0-0.9,0.1-1.4c0.9-8.7-3.9-15.2-12.6-17c-2-0.4-3.1,0.2-4,2c4.9,1.1,7.1,4.7,8.7,9c0.2,0.5,0.1,1.3,0.7,1.6 C358,437.5,360.3,439.5,362.3,442z M322.8,222.3c1.6,0.4,3.1,0.9,4.5,1.5c0.5,0.2,0.9,0.5,1.5,0.1c3.2-2.2,6.4-4.3,9.8-6.6 c-4-1-7.5-2.6-11-4.1c-0.5-0.2-0.9-0.1-1.3,0.1c-1.8,1-3.6,2-5.7,3.2C323,217.9,322.4,220.2,322.8,222.3z M380.6,456.1 c0-3.8,0-7.4,0-11.1c0-0.5,0-0.9-0.6-1.2c-2.8-1.2-5.4-2.9-8.3-4.3c0,3.5,0,6.7,0,10c0,0.6,0,1.1,0.6,1.5 C375,453,377.7,454.5,380.6,456.1z M323.7,418.1c6,0.5,9.2,4.5,11.8,9.2c2.3-1,4.6-1.4,6.8-1.8c-0.5-5.2-4-7.7-8.3-9.2 C330.4,414.9,327,416.3,323.7,418.1z M324.7,301.3c0,5.4,0,10.7,0,16c1.8,0.7,3.5,1.4,5.3,2.1c0-3.7,0-7.3,0-10.9 c0-1.8,0.9-3.9-0.1-5.2c-1-1.2-3.1-1.5-4.8-2.2C325.1,301.2,325.1,301.3,324.7,301.3z M317.3,437.5c1.3,4.9,1.8,9.6-3,13.1 c0.6,0.3,1.1,0.6,1.7,0.9c1-2.9,3.5-4.1,6.1-5c2.5-0.9,5.1-1.2,7.8-1.2C327.8,439.4,322.1,437.1,317.3,437.5z M330,358.5 c0-4.1,0-8,0-12c0-5.3,0-5.3-5.4-6.4c0,4.7-0.1,9.5,0.2,14.2c0,0.5-0.1,0.9,0.5,1.2C326.9,356.3,328.1,357.7,330,358.5z M336.8,429.7c0.5,1.4,1,2.7,1.4,4c0.3,1.3,0.4,2.6,0.6,3.9c7.8-3.2,8.1-3.3,12.7-2.9C349.4,428.2,344.5,426.5,336.8,429.7z M249.8,371.5c0,3.2,1.3,6.3,3.4,7.7c2.3,1.6,4.3,1,5.1-1.7c1-3.1-0.4-7.1-3.1-8.8c-1.3-0.8-2.9-1.9-4.3-1.1 C249.7,368.2,249.8,370,249.8,371.5z M330,338.3c0-4.9,0-9.6,0-14.3c0-0.4,0-0.9-0.4-1.1c-1.6-0.8-3.1-1.8-4.8-2 c0,4.8,0.1,9.5-0.1,14.2c0,1.4,0.5,2,1.6,2.3C327.5,337.7,328.6,337.9,330,338.3z M330.3,299.9c0.2-4.4-0.3-8.5-0.3-12.7 c0-0.5,0-1.1-0.5-1.3c-1.6-0.7-3-1.7-4.8-2.1c0,4.8,0,9.6,0,14.3C326.7,298.3,328.3,299.5,330.3,299.9z M323.3,238.7 c-0.2,5.5,0.1,10.9,0.3,16.5c1.3-0.7,2,0.7,3,0.5c0-4.5,0-8.9,0-13.3c0-2.7,0-2.7-2.6-3.5C323.8,238.8,323.6,238.8,323.3,238.7z M327.1,272.7c0.2-4.7-0.4-9.3-0.4-13.8c-1-0.4-2-0.8-3.1-1.2c0.2,4.8,0.4,9.4,0.6,14C325.2,272,326.1,272.3,327.1,272.7z M322.8,225.3c0.2,3.5,0.3,6.8,0.5,10.3c1,0.3,2.1,0.7,3.1,1c0.1-0.2,0.2-0.3,0.2-0.4c0-2.1,0.1-4.2,0.1-6.2 C326.7,226.4,326.7,226.4,322.8,225.3z M296.9,440.6c-0.1-1.2-0.1-2-0.1-3c-1,0.4-1.8,0.8-2.6,1.4 C295.1,439.5,295.9,440,296.9,440.6z M365.2,441.4c1-0.2,1.7-0.8,2.5-1.3c-0.8-0.4-1.5-0.8-2.3-1.2 C365.3,439.8,365.2,440.4,365.2,441.4z M70.9,105.9c3.8,1.9,7,4.4,10.9,6.1c0.5-2.3,0.6-4.5,0.4-6.7c-0.3-2.6,0.1-5.1,0.2-7.6 c0-0.5,0.2-1.1,0.2-1.7c0-4.1-0.1-8.1-0.2-12.2c-0.1-3.6,0-7.5,3.1-10.1c3.1-2.6,6.6-4.9,10.1-6.9c7.9-4.5,15.7-9.2,23.4-13.9 c9.6-6,19.1-12.2,29-17.7c3.3-1.8,6.5-3.8,9.7-5.7c0.4-0.3,0.9-0.6,1.5-0.5c0.5,0,1,0,1.2,0.5c0.3,0.5,0.2,1-0.2,1.5 c-0.7,0.7-1.5,1.1-2.3,1.7c-7.4,4.8-15.2,8.9-22.7,13.7c-6.1,4-12.4,7.7-18.6,11.6c-5.7,3.7-11.7,6.8-17.5,10.3 c-3.5,2.1-7.1,4.1-10.4,6.5c-2.2,1.7-3.3,3.6-3.3,6.3c0,3.6,0,7.1,0.2,10.7c0.2,3.3-0.2,6.6-0.5,9.9c-0.2,2.3-0.1,4.6-0.1,6.9 c0,5.1-0.8,10.3-0.6,15.4c0.3,8,0.1,15.9,0.4,23.9c0.3,6.5,0,12.9,0.2,19.4c0.3,8.3,1.1,16.6,2,24.8c0.6,5.8,0.4,11.7,0.5,17.5 c0.3,10.6,1.6,21.2,1.3,31.9c-0.2,7.4-0.8,14.8-1.7,22.2c-0.1,0.9-0.4,1.6-1.5,1.9c-0.7,0.2-1,0-1.3-0.4c-0.6-0.7-0.5-1.4,0-2.1 c0.3-0.4,0.5-1.1,0-1.5c-0.7-0.4-0.9,0.3-1.2,0.7c-4.3,5.1-9.6,8.7-16.3,10.3c-2.5,0.6-5,1.1-7.4,1.3c-2.9,0.3-5.7-0.7-8.3-1.8 c-8.2-3.5-14.3-9.4-19.1-16.7c-3.1-4.7-5.6-9.6-7-15c-0.8-3.2-1.7-6.5-1.4-9.9c0.1-0.8-0.2-1.2-1-1.6c-3.5-1.7-7-3.6-10.5-5.4 c-2.5-1.3-5-2.8-7.6-4.2c-2-1.1-2.9-2.8-2.9-4.9c0-4.3-0.7-8.5-0.8-12.9c-0.1-3.7-0.2-7.5-0.9-11.2c-0.2-0.9,0.2-1.9,1-2.5 c0.9-0.6,1-1.4,1-2.4c-0.2-4-0.1-8.1-0.1-12.1c0.1-5.8,0.5-11.6,1.4-17.4c0.4-2.8,1.4-5.6,0.7-8.5c-0.2-0.6,0.5-1.3,1.1-1.3 c2.7,0.2,4.4-1.8,6.4-3.1c4.8-3.2,9.2-7,14.1-10c0.9-0.6,1.6-1.4,2.4-2c-0.7-2.1-0.3-4.1-0.3-6.1c0-0.7,0.5-1.1,1.2-1.4 c1.5-0.8,2.2-1.9,2-3.7c-0.3-3.4-0.3-6.8-0.4-10.2c0-0.7,0-1.3-0.9-1.5c-1.7-0.3-2.2-1.7-2.1-2.9c0.5-7.2,0-14.4,0.2-21.7 c0.1-2.5,0.1-5,0.1-7.5c0-1,0.3-2,1.5-1.9c1.3,0.1,1.3,1,1.1,2.2c-0.3,1.5-0.2,3.1-0.2,4.7c0,6.8,0.1,13.7,0,20.5 c0,2.5,0,4.8,2.9,5.9c0.6-0.2,0.3-0.9,0.3-1.5c0.2-3.5-0.9-7-0.6-10.5c0.2-2.9,0.4-5.7,0.7-8.6c0.2-1.5,1.6-1.1,2.4-0.7 c6.5,3.3,13.1,6.3,19.3,10.1c4.4,2.6,8.6,5.5,13.2,7.7c0.6,0.3,0.6,0.8,0.3,1.5c-0.8,2-2.1,3.5-3.7,4.9c-2,1.7-3.9,3.5-5.5,5.7 c-2.2,3.1-2.3,5.5-0.3,8.8c1,1.6,1.8,3.2,2.6,4.9c1.3,2.6,0.7,4.7-1.3,6.6c-1.6,1.6-3.3,3.2-4.9,4.8c-3.1,3.1-5.3,6.7-5.8,11.3 c-3.2-2.1-6.4-3.7-9.2-6c-0.9-0.7-1.1-1.4-1.2-2.4c-0.4-11-0.6-22-0.8-33c-0.1-5.1-0.4-10.3-0.2-15.4c0-1.5-0.1-3,1-4.3 c-1.1-0.6-2.2-1.1-3.3-1.7c-0.2,0.9,0.4,116.5,0.6,117.5c13.6-1.9,22.8,4.9,29.6,15.6c4.8,7.5,7.3,16,9.4,24.5 c0.3,1.2,0.5,2.3,0.7,3.5c0.1,0.9,0.4,1.6,1.4,1.5c1-0.1,1-0.9,0.9-1.8c-0.7-4.5-1.9-9-3.3-13.3c-2.4-7.5-5.4-14.7-10.4-20.8 c-5.3-6.3-11.8-10.5-20-12c-0.5-0.1-1-0.3-1.7-0.4c11.6-2.7,21.2,0.9,29.3,8.8c4.6,4.4,7.5,10.2,10,16c1.3,3,2.4,6.1,3.5,9.2 c-1.4-22.2-0.9-44.4-3.8-66.5c-3.7-1.7-7.4-3.8-11.1-5.9c-6.1-3.5-12.2-7-18.2-10.8c-0.9-0.6-1.1-1.1-1-2.2c0.5-4.3,3-7.5,5.9-10.4 c1.5-1.5,3-2.9,4.5-4.4c2.2-2.3,3-4.9,1.6-8c-0.8-1.9-1.8-3.8-2.9-5.5c-1.8-2.8-1.7-4.2,0.3-6.8c1.1-1.5,2.5-2.8,3.9-4 c1.5-1.3,2.7-3,4-4.5C70.1,108,70.4,106.9,70.9,105.9z M33.6,123c-0.6,0.8-1.1,1.5-1.8,1.9c-1.1,0.7-1.4,1.5-1.3,2.8 c0.6,6.9,0.8,13.8,1.8,20.7c0.3,1.7-0.5,2.2-1.9,2.2c-5,0.1-9.9-0.3-14.9-0.6c-2.8-0.2-5.5-0.6-8.4-0.4c-0.4,3-0.7,5.9-1.1,8.8 c-1.2,9.5-1.5,19.1-1.5,28.7c0,0.8,0.2,1.2,0.9,1.5c8.6,4.6,16.5,10.3,24.5,15.8c1.2,0.8,2.3,1.9,4,2.4 C32.7,178.7,33.8,150.9,33.6,123z M32.8,209.6c-9.9-6.5-19-13.8-29.7-19.3c0,1.1,0.1,2,0.1,2.8c0.4,6.2,1,12.4,1.3,18.6 c0.1,2.9,1,5,3.9,6.3c5.2,2.4,10.3,5.2,15.6,8C24.3,219.2,27.3,213.8,32.8,209.6z M28.3,134.8c-6.1,3.5-11.2,8-17.1,11.9 c6.2,0.7,12.1,1,18.1,1C29,143.4,28.7,139.2,28.3,134.8z M45.5,239c0.2,2.7,1,5.6,3.9,7.5c1.8,1.2,3.5,0.6,4.4-1.4 c1.4-3.1,0.1-7.4-2.7-9.4c-1.3-0.9-2.9-1.9-4.3-1.3C45.4,235.1,45.6,237,45.5,239z M171.4,316.2c0,6,0.1,12,0,18 c-0.1,2.7-0.4,5.5-0.3,8.2c0,1.3-0.8,2.1-1.8,2.6c-8.3,4.3-16.4,9.1-24.3,14.1c-2.6,1.6-5.2,3.2-8.2,4.2c-0.2,0.1-0.4,0.4-0.6,0.6 c-0.8,1-1.7,1.2-2.8,0.4c-8.7-5.5-17.4-11-26-16.5c-3.7-2.4-7.3-4.8-10.9-7.3c-1.1-0.7-2-1.5-0.9-3.1c0.5-0.8,0.3-2.1,0.3-3.1 c0.1-6.4,0.2-12.8-0.2-19.2c-0.4-5.7-0.5-11.3-0.2-17c0.1-1.7,0.1-3.5,0.1-5.3c0-2.1,1.2-2.9,2.7-3.5c4.7-1.8,9-4.3,13.6-6.3 c4.8-2.1,9.6-4.2,14.4-6.3c1.9-0.9,3.8-1.8,5.6-2.8c0.7-0.4,1.2-0.2,1.7,0.1c11.7,6.1,23.3,12.3,34.7,18.9c0.9,0.5,1.6,1.1,2.5,1.6 c0.8,0.4,1.1,1.5,1.1,2.6c-0.1,6.4,0,12.8,0,19.2C171.7,316.2,171.5,316.2,171.4,316.2z M134.8,327.1c0-3.3-0.4-6.2,0.1-9.1 c0.6-3.4-1-4.7-3.6-6.1c-8.8-4.7-17.6-9.6-26.4-14.4c-2.2-1.2-4.2-2.6-6.6-3.6c-0.4,2.8-0.1,5.4-0.3,8c-0.1,1.8,0.5,2.7,2.1,3.6 C111.8,312.4,123.2,319.6,134.8,327.1z M112.1,286.2c12.5,6.3,23.8,13.8,36.4,19.8c2.6-1.3,5.8-2.9,9.1-4.6c-3.2-1.9-6.4-3.4-9.4-5 c-8.4-4.6-16.8-9.3-25.2-13.9c-0.5-0.3-0.9-0.7-1.6-0.4C118.5,283.4,115.5,284.7,112.1,286.2z M137.6,326.9 c5.7-3.5,11-6.9,16.4-10.2c4.5-2.8,8.9-5.5,13.4-8.3c0.8-0.5,1.7-0.9,1.6-2.1c-0.1-2.7,0-5.3,0-8c-2.6,1.4-5.1,2.9-7.7,4.3 c-7.5,3.9-15,7.8-22.5,11.7c-0.7,0.3-1.2,0.7-1.2,1.6C137.6,319.4,137.6,323,137.6,326.9z M100.3,291.7c4.8,2.7,9.3,5.2,13.8,7.7 c7.4,4.1,14.9,7.8,22,12.4c0.4,0.3,0.7,0.5,1.3,0.2c2.7-1.5,5.4-2.9,8.2-4.4c-1.1-0.5-2.1-0.9-3.1-1.4c-11-5.6-21.6-12-32.3-18 c-0.7-0.4-1.2-0.5-1.9-0.1C105.7,289.1,103.2,290.3,100.3,291.7z M98.4,330.6c0,2.1,0.1,4,0,5.8c0,1.2,0.3,1.9,1.4,2.6 c10.7,7,21.6,13.9,32.5,20.7c0.7,0.4,1.2,1.1,2.3,1.1c-0.6-3.3,0.4-6.4,0.2-9.3C122.6,344.6,110.6,337.7,98.4,330.6z M134.8,337.5 c0-2.3,0-4.4,0-6.5c0-0.5-0.2-0.7-0.6-0.9c-11.7-7.4-23.4-14.8-35.1-22.2c-0.2-0.1-0.4-0.3-0.6-0.1c0,3,0,6,0,8.5 C110.7,323.5,122.4,330.9,134.8,337.5z M167.5,296c-0.2-0.2-0.3-0.4-0.4-0.5c-11-6.3-22-12.5-33.2-18.3c-0.4-0.2-0.8-0.4-1.2-0.2 c-2.6,0.9-5.1,1.9-7.5,3.3c11.8,6.5,23.5,13,35.4,19.6C162.6,298.7,165,297.4,167.5,296z M134.8,348.5c0-2.1-0.1-3.8,0-5.4 c0.2-1.5-0.4-2.4-1.7-3.1c-11.3-6.5-22.6-13.1-33.7-20c-0.3-0.2-0.6-0.5-0.9-0.2c0,2.6,0,5.2,0,7.6 C110.5,334.5,122.6,341.1,134.8,348.5z M168.7,321.9c-10.6,5.3-20.3,11.9-30.3,17.7c-0.4,0.3-0.7,0.5-0.7,1.1c0,2.4,0,4.8,0,7.3 c0.3,0,0.5,0,0.5-0.1c10.1-5.2,19.7-11.3,29.6-16.9c0.7-0.4,0.9-0.9,0.9-1.6C168.7,327,168.7,324.6,168.7,321.9z M168.4,333.8 c-10.1,6-20,11.9-30.3,17.3c-0.4,0.2-0.8,0.3-0.8,0.8c0,2.7,0,5.4-0.5,8.4c2.4-1.3,4.5-2.3,6.4-3.5c7.9-4.9,15.8-9.7,24.1-13.9 c0.7-0.3,1.1-0.7,1.1-1.4C168.4,339,168.4,336.5,168.4,333.8z M168.9,310.6c-6.6,3.7-12.7,8-19,11.9c-3.6,2.2-7.1,4.4-10.6,6.6 c-0.7,0.4-1.6,0.8-1.6,1.9c0,1.9,0,3.8,0,5.7c0.3-0.1,0.4-0.1,0.5-0.1c10-5.6,19.4-12.3,29.9-17.1c0.8-0.4,0.9-1,0.9-1.8 C168.9,315.3,168.9,313.1,168.9,310.6z M29.8,112.1c0-0.8-0.2-1.5-1.1-1.5c-0.9,0-1.8,0-2.7,0.1c-3.1,0.5-5.8,2.2-8.8,3 c-1.1,0.3-1.8,1.2-1.7,2.6c0.1,2.7,0.8,5.3,0.6,8.1c-0.1,2.2,0.8,2.8,3,2.1c1.8-0.6,3.6-1.4,5.4-2.2c5.1-2,5.2-2,5.2-7.5 c0-0.2,0-0.5,0-0.7C29.8,114.7,29.8,113.4,29.8,112.1z M71.2,183.8c-0.2,1.2,1,1.4,2,1.6c2.5,0.4,5,0.9,7.6,1.3 c1,0.2,2.1,0.1,2.2-1.2c0.1-1.1-0.8-1.5-1.7-1.7c-2.5-0.4-5.1-0.8-7.6-1.2C72.6,182.6,71.4,182.4,71.2,183.8z M407.4,265.2 c0.8-0.3,1.3-0.9,1-1.8c-0.3-1-1.2-1.3-2-1.1c-3.6,0.9-7.2,1.9-10.8,3c-0.8,0.2-1.3,0.9-1.1,1.8c0.2,0.9,1,1.1,2.2,1.1 C400.1,267.3,403.8,266.5,407.4,265.2z" fill="inherit"/></g></svg>